SplineFontDB: 3.0
FontName: MedievalSharp-BoldOblique
FullName: Medieval Sharp Bold Oblique
FamilyName: Medieval Sharp
Weight: Bold
Copyright: Copyright (c) 2011, wmk69 (wmk69@o2.pl)\nwith Reserved Font Names 'MedievalSharp' and 'Medieval Sharp Bold Oblique'.\n\nThis Font Software is licensed under the SIL Open Font License, Version 1.1.\nThis license is available with a FAQ at:\nhttp://scripts.sil.org/OFL
Version: 2.001
ItalicAngle: -13
UnderlinePosition: -81
UnderlineWidth: 122
Ascent: 1638
Descent: 410
LayerCount: 2
Layer: 0 1 "Warstwa t+AUIA-a"  1
Layer: 1 1 "Plan pierwszy"  0
XUID: [1021 783 23647091 8578152]
FSType: 0
OS2Version: 3
OS2_WeightWidthSlopeOnly: 0
OS2_UseTypoMetrics: 1
CreationTime: 1260698820
ModificationTime: 1316698978
PfmFamily: 17
TTFWeight: 700
TTFWidth: 5
LineGap: 0
VLineGap: 0
Panose: 2 1 8 4 2 2 2 1 2 4
OS2TypoAscent: 1951
OS2TypoAOffset: 0
OS2TypoDescent: -543
OS2TypoDOffset: 0
OS2TypoLinegap: 0
OS2WinAscent: 1951
OS2WinAOffset: 0
OS2WinDescent: 543
OS2WinDOffset: 0
HheadAscent: 1951
HheadAOffset: 0
HheadDescent: -543
HheadDOffset: 0
OS2SubXSize: 1434
OS2SubYSize: 1331
OS2SubXOff: 0
OS2SubYOff: 287
OS2SupXSize: 1434
OS2SupYSize: 1331
OS2SupXOff: 0
OS2SupYOff: 977
OS2StrikeYSize: 102
OS2StrikeYPos: 512
OS2Vendor: '    '
OS2CodePages: 20000093.00000000
OS2UnicodeRanges: 8000002f.4000204b.00000000.00000000
Lookup: 258 0 0 "'kern' Kerning poziomy w tablicy 0"  {"Podtablica 'kern' Kerning poziomy w tablicy 0"  } ['kern' ('DFLT' <'dflt' > 'grek' <'dflt' > 'latn' <'dflt' > ) ]
DEI: 91125
KernClass2: 20 15 "Podtablica 'kern' Kerning poziomy w tablicy 0" 
 90 A Agrave Aacute Acircumflex Atilde Adieresis Aring Amacron Abreve Aogonek Aringacute Delta

StartChar: .notdef
Encoding: 65536 -1 0
Width: 1014
Flags: W
HStem: 0 238<443 681> 1272 238<682 920>
VStem: 150 714<0 714> 499 714<796 1510>
DStem2: 150 0 388.053 0 0.224951 0.97437<297.811 1359.07> 626.053 0 864 0 0.224951 0.97437<244.26 1305.52>
LayerCount: 2
Fore
SplineSet
150 0 m 1,0,-1
 499 1510 l 1,1,-1
 1213 1510 l 1,2,-1
 864 0 l 1,3,-1
 150 0 l 1,0,-1
681 238 m 1,4,-1
 920 1272 l 1,5,-1
 682 1272 l 1,6,-1
 443 238 l 1,7,-1
 681 238 l 1,4,-1
EndSplineSet
Validated: 1
EndChar

StartChar: exclam
Encoding: 33 33 4
Width: 742
GlyphClass: 2
Flags: W
HStem: 0 21G<171 286.5> 1490 20G<804 919>
LayerCount: 2
Fore
SplineSet
180 0 m 1,0,-1
 171 6 l 1,1,2
 211 105 211 105 232 192 c 0,3,4
 252 277 252 277 257 376 c 1,5,6
 457 393 457 393 670 468 c 1,7,-1
 679 462 l 1,8,9
 634 341 634 341 616 264 c 0,10,11
 599 190 599 190 593 92 c 1,12,13
 393 75 393 75 180 0 c 1,0,-1
911 1510 m 1,14,-1
 919 1504 l 1,15,16
 757 1118 757 1118 699 868 c 0,17,18
 658 690 658 690 654 572 c 1,19,20
 514 551 514 551 344 492 c 1,21,-1
 335 498 l 1,22,23
 391 640 391 640 432 817 c 0,24,25
 492 1077 492 1077 497 1418 c 1,26,27
 697 1435 697 1435 911 1510 c 1,14,-1
EndSplineSet
Validated: 1
EndChar

StartChar: quotedbl
Encoding: 34 34 5
Width: 1122
GlyphClass: 2
Flags: W
HStem: 1490 20G<784 899 1204 1319>
VStem: 495 208<994.324 1160.7> 915 208<994.324 1160.7>
LayerCount: 2
Fore
SplineSet
1311 1510 m 1,0,-1
 1319 1504 l 1,1,2
 1198 1301 1198 1301 1159 1128 c 0,3,4
 1128 991 1128 991 1123 872 c 1,5,6
 983 851 983 851 813 792 c 1,7,-1
 804 798 l 1,8,9
 863 948 863 948 892 1077 c 0,10,11
 915 1179 915 1179 915 1268 c 0,12,13
 915 1347 915 1347 897 1418 c 1,14,15
 1097 1435 1097 1435 1311 1510 c 1,0,-1
891 1510 m 1,16,-1
 899 1504 l 1,17,18
 778 1301 778 1301 739 1128 c 0,19,20
 708 991 708 991 703 872 c 1,21,22
 563 851 563 851 393 792 c 1,23,-1
 384 798 l 1,24,25
 443 948 443 948 472 1077 c 0,26,27
 495 1179 495 1179 495 1268 c 0,28,29
 495 1341 495 1341 477 1418 c 1,30,31
 677 1435 677 1435 891 1510 c 1,16,-1
EndSplineSet
Validated: 1
EndChar

StartChar: numbersign
Encoding: 35 35 6
Width: 1730
GlyphClass: 2
Flags: W
HStem: 392 312<384.836 623.154 1348.91 1596.72> 432 228<922 1052> 806 312<477.648 729.967 1454.78 1691.8> 850 228<1026 1156>
LayerCount: 2
Fore
SplineSet
342 806 m 1,0,-1
 338 816 l 1,1,2
 433 959 433 959 496 1118 c 1,3,4
 642 1101 642 1101 781 1091 c 1,5,6
 804 1235 804 1235 821 1382 c 1,7,8
 988 1400 988 1400 1143 1470 c 1,9,-1
 1152 1464 l 1,10,11
 1081 1265 1081 1265 1026 1079 c 1,12,13
 1084 1078 1084 1078 1139 1078 c 0,14,15
 1169 1078 1169 1078 1199 1078 c 1,16,17
 1224 1228 1224 1228 1241 1382 c 1,18,19
 1408 1400 1408 1400 1563 1470 c 1,20,-1
 1572 1464 l 1,21,22
 1502 1270 1502 1270 1449 1088 c 1,23,24
 1634 1099 1634 1099 1834 1124 c 1,25,-1
 1837 1114 l 1,26,27
 1735 975 1735 975 1679 812 c 1,28,29
 1530 830 1530 830 1382 840 c 1,30,31
 1375 810 1375 810 1368 780 c 0,32,33
 1355 724 1355 724 1343 667 c 1,34,35
 1532 679 1532 679 1737 704 c 1,36,-1
 1740 694 l 1,37,38
 1638 555 1638 555 1582 392 c 1,39,40
 1439 409 1439 409 1298 419 c 1,41,42
 1275 278 1275 278 1258 128 c 1,43,44
 1093 102 1093 102 935 40 c 1,45,-1
 927 46 l 1,46,47
 998 241 998 241 1052 431 c 1,48,49
 996 432 996 432 940 432 c 0,50,51
 910 432 910 432 880 432 c 1,52,53
 856 285 856 285 838 128 c 1,54,55
 673 102 673 102 515 40 c 1,56,-1
 507 46 l 1,57,58
 576 237 576 237 629 422 c 1,59,60
 442 411 442 411 245 386 c 1,61,-1
 241 396 l 1,62,63
 336 539 336 539 399 698 c 1,64,65
 552 680 552 680 697 670 c 1,66,67
 704 700 704 700 711 730 c 0,68,69
 723 782 723 782 736 843 c 1,70,71
 543 832 543 832 342 806 c 1,0,-1
1113 659 m 1,72,73
 1130 724 1130 724 1131 730 c 0,74,75
 1141 776 1141 776 1156 850 c 1,76,77
 1097 852 1097 852 1037 852 c 0,78,79
 1001 852 1001 852 965 851 c 1,80,81
 954 806 954 806 948 780 c 0,82,83
 933 712 933 712 922 660 c 1,84,85
 983 658 983 658 1042 658 c 0,86,87
 1077 658 1077 658 1113 659 c 1,72,73
EndSplineSet
Validated: 1
EndChar

StartChar: percent
Encoding: 37 37 7
Width: 1921
GlyphClass: 2
Flags: W
HStem: 0 21G<601.5 691 1357.5 1503.5> 1490 20G<764.5 911 1555 1645>
VStem: 395 242<1016.41 1198.49> 909 232<1010.58 1199.36> 1130 242<319.407 501.488> 1644 232<313.579 502.356>
LayerCount: 2
Fore
SplineSet
1445 586 m 1,0,1
 1389 521 1389 521 1375 453 c 0,2,3
 1372 438 1372 438 1372 423 c 0,4,5
 1372 351 1372 351 1453 283 c 0,6,7
 1503 242 1503 242 1577 229 c 1,8,9
 1620 281 1620 281 1639 357 c 0,10,11
 1644 377 1644 377 1644 396 c 0,12,13
 1644 476 1644 476 1563 536 c 0,14,15
 1514 574 1514 574 1445 586 c 1,0,1
1428 0 m 1,16,-1
 1418 0 l 1,17,18
 1297 33 1297 33 1217 115 c 0,19,20
 1130 204 1130 204 1130 323 c 0,21,22
 1130 363 1130 363 1140 407 c 0,23,24
 1174 557 1174 557 1326 680 c 0,25,26
 1422 757 1422 757 1577 813 c 1,27,-1
 1587 813 l 1,28,29
 1705 780 1705 780 1787 698 c 0,30,31
 1876 609 1876 609 1876 491 c 0,32,33
 1876 449 1876 449 1865 406 c 0,34,35
 1829 252 1829 252 1679 133 c 24,36,37
 1579 54 1579 54 1428 0 c 1,16,-1
680 0 m 1,38,39
 523 66 523 66 348 88 c 1,40,41
 752 452 752 452 1045 804 c 0,42,43
 1291 1099 1291 1099 1555 1504 c 1,44,-1
 1567 1510 l 1,45,46
 1723 1444 1723 1444 1898 1422 c 1,47,48
 1559 1081 1559 1081 1272 749 c 0,49,50
 960 388 960 388 691 6 c 1,51,-1
 680 0 l 1,38,39
710 1283 m 1,52,53
 654 1218 654 1218 640 1150 c 0,54,55
 637 1135 637 1135 637 1120 c 0,56,57
 637 1048 637 1048 718 980 c 0,58,59
 768 939 768 939 842 926 c 1,60,61
 885 978 885 978 904 1054 c 0,62,63
 909 1074 909 1074 909 1093 c 0,64,65
 909 1173 909 1173 828 1233 c 0,66,67
 779 1271 779 1271 710 1283 c 1,52,53
852 1510 m 1,68,69
 970 1477 970 1477 1052 1395 c 0,70,71
 1141 1306 1141 1306 1141 1188 c 0,72,73
 1141 1146 1141 1146 1130 1103 c 0,74,75
 1094 949 1094 949 944 830 c 24,76,77
 844 751 844 751 693 697 c 1,78,-1
 683 697 l 1,79,80
 562 730 562 730 482 812 c 0,81,82
 395 901 395 901 395 1020 c 0,83,84
 395 1060 395 1060 405 1104 c 0,85,86
 439 1254 439 1254 591 1377 c 0,87,88
 687 1454 687 1454 842 1510 c 1,89,-1
 852 1510 l 1,68,69
EndSplineSet
Validated: 1
EndChar

StartChar: ampersand
Encoding: 38 38 8
Width: 1552
VWidth: 0
GlyphClass: 2
Flags: W
HStem: 0 21G<625 820 1101 1216.5> 1490 20G<891 1122>
VStem: 208 355<356 545> 389 288<955 1114.27> 1240 334<564.962 813.5>
LayerCount: 2
Fore
SplineSet
725 0 m 1,0,1
 704 0 l 1,2,3
 546 27 546 27 412 98 c 0,4,5
 208 206 208 206 208 356 c 0,6,7
 208 384 208 384 215 411 c 0,8,9
 260 619 260 619 495 729 c 2,10,-1
 519 740 l 1,11,12
 460 776 460 776 428 824 c 0,13,14
 389 883 389 883 389 955 c 0,15,16
 389 990 389 990 398 1028 c 0,17,18
 427 1150 427 1150 561 1261 c 0,19,20
 768 1433 768 1433 1014 1510 c 1,21,-1
 1024 1510 l 1,22,23
 1220 1438 1220 1438 1322 1336 c 0,24,25
 1339 1319 1339 1319 1351 1302 c 1,26,-1
 1062 1090 l 1,27,28
 1051 1107 1051 1107 1029 1119 c 0,29,30
 917 1181 917 1181 769 1217 c 1,31,32
 698 1179 698 1179 680 1108 c 0,33,34
 677 1096 677 1096 677 1085 c 0,35,36
 677 1020 677 1020 775 984 c 2,37,-1
 937 924 l 1,38,39
 1040 712 1040 712 1187 505 c 1,40,41
 1219 563 1219 563 1235 630 c 0,42,43
 1240 651 1240 651 1240 670 c 0,44,45
 1240 773 1240 773 1096 822 c 1,46,47
 1280 882 1280 882 1434 1000 c 1,48,-1
 1447 1000 l 1,49,50
 1498 967 1498 967 1532 918 c 0,51,52
 1574 857 1574 857 1574 770 c 0,53,54
 1574 722 1574 722 1561 664 c 0,55,56
 1516 465 1516 465 1341 300 c 1,57,58
 1427 196 1427 196 1523 92 c 1,59,60
 1323 75 1323 75 1110 0 c 1,61,-1
 1101 6 l 1,62,-1
 1053 108 l 1,63,64
 915 46 915 46 725 0 c 1,0,1
933 325 m 1,65,66
 827 503 827 503 708 645 c 1,67,-1
 666 663 l 1,68,69
 584 621 584 621 566 545 c 0,70,71
 563 532 563 532 563 520 c 0,72,73
 563 458 563 458 641 419 c 0,74,75
 768 355 768 355 933 325 c 1,65,66
EndSplineSet
Validated: 1
EndChar

StartChar: quotesingle
Encoding: 39 39 9
Width: 702
GlyphClass: 2
Flags: W
HStem: 1490 20G<784 899>
VStem: 495 208<994.324 1160.7>
LayerCount: 2
Fore
SplineSet
891 1510 m 1,0,-1
 899 1504 l 1,1,2
 778 1301 778 1301 739 1128 c 0,3,4
 708 991 708 991 703 872 c 1,5,6
 563 851 563 851 393 792 c 1,7,-1
 384 798 l 1,8,9
 443 948 443 948 472 1077 c 0,10,11
 495 1179 495 1179 495 1268 c 0,12,13
 495 1347 495 1347 477 1418 c 1,14,15
 677 1435 677 1435 891 1510 c 1,0,-1
EndSplineSet
Validated: 1
EndChar

StartChar: parenleft
Encoding: 40 40 10
Width: 1022
GlyphClass: 2
Flags: W
HStem: 1567 153<1257.75 1358>
VStem: 261 319<229.887 672.445>
LayerCount: 2
Fore
SplineSet
600 -324 m 1,0,1
 412 -188 412 -188 312 67 c 0,2,3
 261 197 261 197 261 354 c 0,4,5
 261 482 261 482 295 630 c 0,6,7
 372 965 372 965 579 1225 c 0,8,9
 900 1628 900 1628 1393 1720 c 1,10,-1
 1358 1567 l 1,11,12
 1012 1443 1012 1443 812 1158 c 0,13,14
 667 952 667 952 607 688 c 0,15,16
 580 570 580 570 580 467 c 0,17,18
 580 340 580 340 622 235 c 0,19,20
 700 39 700 39 980 -138 c 1,21,-1
 600 -324 l 1,0,1
EndSplineSet
Validated: 1
EndChar

StartChar: parenright
Encoding: 41 41 11
Width: 1022
GlyphClass: 2
Flags: W
HStem: -324 153<-13 86.0132>
VStem: 764 319<723.553 1166.55>
LayerCount: 2
Fore
SplineSet
744 1720 m 1,0,1
 931 1584 931 1584 1032 1329 c 0,2,3
 1083 1200 1083 1200 1083 1043 c 0,4,5
 1083 915 1083 915 1049 766 c 0,6,7
 973 431 973 431 765 171 c 0,8,9
 443 -232 443 -232 -49 -324 c 1,10,-1
 -13 -171 l 1,11,12
 331 -48 331 -48 532 238 c 0,13,14
 676 443 676 443 737 708 c 0,15,16
 764 826 764 826 764 928 c 0,17,18
 764 1056 764 1056 722 1161 c 0,19,20
 643 1358 643 1358 364 1534 c 1,21,-1
 744 1720 l 1,0,1
EndSplineSet
Validated: 1
EndChar

StartChar: asterisk
Encoding: 42 42 12
Width: 1421
GlyphClass: 2
Flags: W
HStem: 1490 20G<1138.5 1229>
LayerCount: 2
Fore
SplineSet
1221 1510 m 1,0,-1
 1229 1504 l 1,1,2
 1161 1345 1161 1345 1109 1179 c 1,3,4
 1233 1255 1233 1255 1343 1340 c 1,5,6
 1422 1195 1422 1195 1523 1093 c 1,7,-1
 1521 1082 l 1,8,9
 1353 1029 1353 1029 1182 955 c 1,10,11
 1313 885 1313 885 1462 829 c 1,12,-1
 1460 818 l 1,13,14
 1311 716 1311 716 1166 571 c 1,15,16
 1092 657 1092 657 1010 730 c 1,17,18
 994 608 994 608 994 483 c 1,19,20
 807 459 807 459 643 401 c 1,21,-1
 634 407 l 1,22,23
 704 573 704 573 754 733 c 1,24,25
 635 659 635 659 519 571 c 1,26,27
 441 716 441 716 339 818 c 1,28,-1
 341 829 l 1,29,30
 516 885 516 885 679 955 c 1,31,32
 544 1029 544 1029 400 1082 c 1,33,-1
 402 1093 l 1,34,35
 552 1195 552 1195 696 1340 c 1,36,37
 767 1256 767 1256 853 1182 c 1,38,39
 869 1308 869 1308 870 1428 c 1,40,41
 1056 1452 1056 1452 1221 1510 c 1,0,-1
EndSplineSet
Validated: 1
EndChar

StartChar: plus
Encoding: 43 43 13
Width: 1409
GlyphClass: 2
Flags: W
HStem: 606 342<434.078 629.938 1136.51 1333.92>
LayerCount: 2
Fore
SplineSet
296 606 m 1,0,-1
 292 616 l 1,1,2
 385 767 385 767 451 948 c 1,3,4
 620 909 620 909 790 899 c 1,5,6
 822 1081 822 1081 823 1250 c 1,7,8
 1008 1274 1008 1274 1174 1332 c 1,9,-1
 1182 1326 l 1,10,11
 1092 1118 1092 1118 1032 897 c 1,12,13
 1254 906 1254 906 1472 948 c 1,14,-1
 1476 938 l 1,15,16
 1383 787 1383 787 1317 606 c 1,17,18
 1158 644 1158 644 977 655 c 1,19,20
 948 482 948 482 946 304 c 1,21,22
 759 280 759 280 595 222 c 1,23,-1
 587 228 l 1,24,25
 679 448 679 448 737 657 c 1,26,27
 525 649 525 649 296 606 c 1,0,-1
EndSplineSet
Validated: 1
EndChar

StartChar: comma
Encoding: 44 44 14
Width: 804
GlyphClass: 2
Flags: W
HStem: -226 16<76 87.3682>
VStem: 319 372<52.2129 279.654>
LayerCount: 2
Fore
SplineSet
651 397 m 1,0,-1
 659 391 l 1,1,2
 691 334 691 334 691 256 c 0,3,4
 691 201 691 201 676 140 c 0,5,6
 592 -226 592 -226 72 -226 c 1,7,-1
 76 -210 l 1,8,9
 260 -119 260 -119 309 88 c 0,10,11
 319 130 319 130 319 164 c 0,12,13
 319 265 319 265 237 305 c 1,14,15
 437 322 437 322 651 397 c 1,0,-1
EndSplineSet
Validated: 1
EndChar

StartChar: hyphen
Encoding: 45 45 15
Width: 1409
GlyphClass: 2
Flags: W
HStem: 606 342<434.078 630.993 1138.39 1333.92> 659 236<486.95 1282.23>
LayerCount: 2
Fore
SplineSet
296 606 m 1,0,-1
 292 616 l 1,1,2
 385 767 385 767 451 948 c 1,3,4
 681 895 681 895 913 895 c 0,5,6
 1197 895 1197 895 1472 948 c 1,7,-1
 1476 938 l 1,8,9
 1383 787 1383 787 1317 606 c 1,10,11
 1096 659 1096 659 836 659 c 0,12,13
 580 659 580 659 296 606 c 1,0,-1
EndSplineSet
Validated: 1
EndChar

StartChar: period
Encoding: 46 46 16
Width: 702
GlyphClass: 2
Flags: W
HStem: 0 518
VStem: 151 519
LayerCount: 2
Fore
SplineSet
160 0 m 1,0,-1
 151 6 l 1,1,2
 195 113 195 113 218 216 c 0,3,4
 243 327 243 327 248 426 c 1,5,6
 448 443 448 443 662 518 c 1,7,-1
 670 512 l 1,8,9
 624 387 624 387 602 290 c 0,10,11
 579 190 579 190 573 92 c 1,12,13
 373 75 373 75 160 0 c 1,0,-1
EndSplineSet
Validated: 1
EndChar

StartChar: slash
Encoding: 47 47 17
Width: 1259
GlyphClass: 2
Flags: W
LayerCount: 2
Fore
SplineSet
327 -150 m 1,0,1
 171 -84 171 -84 -4 -62 c 1,2,3
 369 372 369 372 743 868 c 0,4,5
 1039 1260 1039 1260 1269 1654 c 1,6,-1
 1280 1660 l 1,7,8
 1437 1594 1437 1594 1612 1572 c 1,9,10
 1218 1113 1218 1113 864 642 c 0,11,12
 570 251 570 251 339 -144 c 1,13,-1
 327 -150 l 1,0,1
EndSplineSet
Validated: 1
EndChar

StartChar: zero
Encoding: 48 48 18
Width: 1504
VWidth: 0
GlyphClass: 2
Flags: W
HStem: 0 21G<632 907> 1490 20G<948 1219>
VStem: 272 343<534.343 834.021> 1238 343<682.652 975.988>
LayerCount: 2
Fore
SplineSet
782 0 m 1,0,-1
 772 0 l 1,1,2
 492 103 492 103 376 255 c 0,3,4
 272 392 272 392 272 576 c 0,5,6
 272 659 272 659 293 751 c 0,7,8
 361 1048 361 1048 618 1261 c 24,9,10
 825 1433 825 1433 1071 1510 c 1,11,-1
 1081 1510 l 1,12,13
 1357 1408 1357 1408 1476 1254 c 16,14,15
 1581 1118 1581 1118 1581 935 c 0,16,17
 1581 851 1581 851 1559 759 c 0,18,19
 1490 464 1490 464 1234 248 c 0,20,21
 1032 78 1032 78 782 0 c 1,0,-1
765 1174 m 1,22,23
 669 1030 669 1030 632 864 c 0,24,25
 615 786 615 786 615 720 c 0,26,27
 615 559 615 559 718 453 c 0,28,29
 825 346 825 346 1088 336 c 1,30,31
 1182 484 1182 484 1220 646 c 0,32,33
 1238 722 1238 722 1238 789 c 0,34,35
 1238 951 1238 951 1135 1057 c 0,36,37
 1036 1161 1036 1161 765 1174 c 1,22,23
EndSplineSet
Validated: 1
EndChar

StartChar: one
Encoding: 49 49 19
Width: 1023
GlyphClass: 2
Flags: W
HStem: 0 21G<419 534.5> 1490 20G<1055 1170>
LayerCount: 2
Fore
SplineSet
428 0 m 1,0,-1
 419 6 l 1,1,2
 548 370 548 370 631 730 c 0,3,4
 669 895 669 895 698 1066 c 1,5,6
 568 954 568 954 498 851 c 1,7,8
 355 910 355 910 225 931 c 1,9,10
 533 1146 533 1146 748 1418 c 1,11,12
 948 1435 948 1435 1162 1510 c 1,13,-1
 1170 1504 l 1,14,15
 1046 1157 1046 1157 959 782 c 0,16,17
 878 433 878 433 841 92 c 1,18,19
 641 75 641 75 428 0 c 1,0,-1
EndSplineSet
Validated: 1
EndChar

StartChar: four
Encoding: 52 52 20
Width: 1304
GlyphClass: 2
Flags: W
HStem: 0 21G<700 815.5> 285 228<506.643 791.012> 1490 20G<1336 1451>
LayerCount: 2
Fore
SplineSet
709 0 m 1,0,-1
 700 6 l 1,1,2
 750 145 750 145 793 285 c 1,3,4
 676 289 676 289 565 289 c 0,5,6
 404 289 404 289 141 247 c 1,7,-1
 113 448 l 1,8,9
 634 906 634 906 1029 1418 c 1,10,11
 1229 1435 1229 1435 1443 1510 c 1,12,-1
 1451 1504 l 1,13,14
 1328 1156 1328 1156 1240 782 c 0,15,16
 1159 436 1159 436 1122 92 c 1,17,18
 922 75 922 75 709 0 c 1,0,-1
502 517 m 1,19,20
 571 513 571 513 697 513 c 0,21,22
 755 513 755 513 861 524 c 1,23,24
 887 620 887 620 912 730 c 0,25,26
 947 886 947 886 979 1066 c 1,27,28
 760 845 760 845 502 517 c 1,19,20
EndSplineSet
Validated: 1
EndChar

StartChar: six
Encoding: 54 54 21
Width: 1460
VWidth: 0
GlyphClass: 2
Flags: W
HStem: 0 21G<632 901> 1490 20G<948 1223>
VStem: 272 343<534.746 834.531> 1150 338<499.679 806>
LayerCount: 2
Fore
SplineSet
782 0 m 1,0,-1
 772 0 l 1,1,2
 492 103 492 103 376 255 c 0,3,4
 272 392 272 392 272 576 c 0,5,6
 272 659 272 659 293 751 c 0,7,8
 361 1048 361 1048 618 1261 c 24,9,10
 825 1433 825 1433 1071 1510 c 1,11,-1
 1081 1510 l 1,12,13
 1365 1405 1365 1405 1476 1254 c 16,14,15
 1490 1235 1490 1235 1502 1216 c 1,16,-1
 1168 1018 l 1,17,18
 1153 1038 1153 1038 1135 1057 c 0,19,20
 1037 1161 1037 1161 765 1174 c 1,21,22
 670 1031 670 1031 632 864 c 0,23,24
 615 789 615 789 615 723 c 0,25,26
 615 560 615 560 718 453 c 0,27,28
 818 349 818 349 1088 336 c 1,29,30
 1127 393 1127 393 1146 471 c 0,31,32
 1150 487 1150 487 1150 501 c 0,33,34
 1150 662 1150 662 706 671 c 1,35,-1
 1078 979 l 17,36,37
 1488 932 1488 932 1488 680 c 0,38,39
 1488 639 1488 639 1477 593 c 0,40,41
 1433 411 1433 411 1234 248 c 0,42,43
 1020 73 1020 73 782 0 c 1,0,-1
EndSplineSet
Validated: 1
EndChar

StartChar: seven
Encoding: 55 55 22
Width: 1149
GlyphClass: 2
Flags: W
HStem: 0 21G<204 319.5> 1224 241<483.239 902> 1490 20G<413 565.5 1311 1476>
LayerCount: 2
Fore
SplineSet
213 0 m 1,0,-1
 204 6 l 1,1,2
 754 828 754 828 902 1223 c 1,3,4
 882 1224 882 1224 799 1224 c 0,5,6
 539 1224 539 1224 282 1108 c 1,7,-1
 278 1118 l 1,8,9
 365 1250 365 1250 461 1510 c 1,10,11
 670 1465 670 1465 929 1465 c 0,12,13
 1154 1465 1154 1465 1468 1510 c 1,14,-1
 1476 1504 l 1,15,16
 1109 1012 1109 1012 626 92 c 1,17,18
 426 75 426 75 213 0 c 1,0,-1
EndSplineSet
Validated: 1
EndChar

StartChar: eight
Encoding: 56 56 23
Width: 1362
VWidth: 0
GlyphClass: 2
Flags: W
HStem: 0 21G<625 846.5> 1490 20G<891 1125>
VStem: 208 355<281 526> 389 288<955 1114.27> 1065 306<430.476 624 1022.11 1047.62> 1072 317<1046.86 1226.5>
LayerCount: 2
Fore
SplineSet
666 663 m 1,0,1
 584 621 584 621 566 545 c 0,2,3
 563 532 563 532 563 520 c 0,4,5
 563 458 563 458 641 419 c 0,6,7
 801 338 801 338 1013 314 c 1,8,9
 1048 358 1048 358 1061 406 c 16,10,11
 1065 421 1065 421 1065 434 c 0,12,13
 1065 517 1065 517 936 564 c 2,14,-1
 666 663 l 1,0,1
769 1217 m 1,15,16
 696 1178 696 1178 680 1108 c 0,17,18
 677 1095 677 1095 677 1083 c 0,19,20
 677 1015 677 1015 775 984 c 2,21,-1
 979 918 l 1,22,23
 1055 949 1055 949 1069 1021 c 0,24,25
 1072 1036 1072 1036 1072 1048 c 0,26,27
 1072 1096 1072 1096 1029 1119 c 0,28,29
 915 1181 915 1181 769 1217 c 1,15,16
725 0 m 1,30,-1
 704 0 l 1,31,32
 546 27 546 27 412 98 c 0,33,34
 208 206 208 206 208 356 c 0,35,36
 208 379 208 379 215 411 c 8,37,38
 259 616 259 616 495 729 c 2,39,-1
 519 740 l 1,40,41
 460 776 460 776 428 824 c 0,42,43
 389 883 389 883 389 955 c 0,44,45
 389 990 389 990 398 1028 c 0,46,47
 427 1150 427 1150 561 1261 c 0,48,49
 768 1433 768 1433 1014 1510 c 1,50,-1
 1024 1510 l 1,51,52
 1226 1435 1226 1435 1322 1336 c 0,53,54
 1389 1267 1389 1267 1389 1186 c 0,55,56
 1389 1161 1389 1161 1383 1136 c 0,57,58
 1349 993 1349 993 1164 888 c 1,59,-1
 1124 866 l 1,60,-1
 1137 861 l 2,61,62
 1283 804 1283 804 1334 719 c 0,63,64
 1371 658 1371 658 1371 590 c 0,65,66
 1371 560 1371 560 1364 528 c 0,67,68
 1325 370 1325 370 1177 248 c 0,69,70
 968 74 968 74 725 0 c 1,30,-1
EndSplineSet
Validated: 1
EndChar

StartChar: nine
Encoding: 57 57 24
Width: 1460
VWidth: 0
GlyphClass: 2
Flags: W
HStem: 0 21G<586 861.5> 1490 20G<907 1178>
VStem: 322 337<705 1012.52> 1194 342<676.019 976.22>
LayerCount: 2
Fore
SplineSet
738 0 m 1,0,-1
 728 0 l 1,1,2
 444 105 444 105 333 256 c 16,3,4
 319 275 319 275 307 294 c 1,5,-1
 641 492 l 1,6,7
 654 475 654 475 674 453 c 0,8,9
 770 349 770 349 1044 336 c 1,10,11
 1135 475 1135 475 1176 646 c 0,12,13
 1194 722 1194 722 1194 789 c 0,14,15
 1194 952 1194 952 1091 1057 c 0,16,17
 992 1161 992 1161 721 1174 c 1,18,19
 685 1121 685 1121 663 1039 c 0,20,21
 659 1024 659 1024 659 1009 c 0,22,23
 659 849 659 849 1103 839 c 1,24,-1
 731 531 l 17,25,26
 322 578 322 578 322 832 c 0,27,28
 322 872 322 872 332 917 c 0,29,30
 372 1096 372 1096 574 1262 c 0,31,32
 787 1437 787 1437 1027 1510 c 1,33,-1
 1037 1510 l 1,34,35
 1319 1407 1319 1407 1433 1255 c 0,36,37
 1536 1118 1536 1118 1536 935 c 0,38,39
 1536 852 1536 852 1515 759 c 0,40,41
 1449 465 1449 465 1190 249 c 24,42,43
 985 77 985 77 738 0 c 1,0,-1
EndSplineSet
Validated: 1
EndChar

StartChar: colon
Encoding: 58 58 25
Width: 702
GlyphClass: 2
Flags: W
HStem: 0 21G<151 266.5>
VStem: 151 639
LayerCount: 2
Fore
SplineSet
160 0 m 1,0,-1
 151 6 l 1,1,2
 191 105 191 105 212 192 c 0,3,4
 232 277 232 277 237 376 c 1,5,6
 437 393 437 393 650 468 c 1,7,-1
 659 462 l 1,8,9
 614 341 614 341 596 264 c 0,10,11
 579 190 579 190 573 92 c 1,12,13
 373 75 373 75 160 0 c 1,0,-1
292 570 m 1,14,-1
 283 576 l 1,15,16
 323 675 323 675 344 762 c 0,17,18
 364 847 364 847 368 946 c 1,19,20
 568 963 568 963 782 1038 c 1,21,-1
 790 1032 l 1,22,23
 749 919 749 919 728 834 c 0,24,25
 710 760 710 760 705 662 c 1,26,27
 505 645 505 645 292 570 c 1,14,-1
EndSplineSet
Validated: 1
EndChar

StartChar: semicolon
Encoding: 59 59 26
Width: 804
GlyphClass: 2
Flags: W
HStem: -226 16<76 87.3682>
VStem: 319 372<52.2129 279.654>
LayerCount: 2
Fore
SplineSet
651 397 m 1,0,-1
 659 391 l 1,1,2
 691 334 691 334 691 256 c 0,3,4
 691 201 691 201 676 140 c 0,5,6
 592 -226 592 -226 72 -226 c 1,7,-1
 76 -210 l 1,8,9
 260 -119 260 -119 309 88 c 0,10,11
 319 130 319 130 319 164 c 0,12,13
 319 265 319 265 237 305 c 1,14,15
 437 322 437 322 651 397 c 1,0,-1
280 520 m 1,16,-1
 271 526 l 1,17,18
 311 622 311 622 338 736 c 0,19,20
 364 847 364 847 368 946 c 1,21,22
 568 963 568 963 782 1038 c 1,23,-1
 790 1032 l 1,24,25
 744 907 744 907 722 810 c 0,26,27
 699 710 699 710 693 612 c 1,28,29
 493 595 493 595 280 520 c 1,16,-1
EndSplineSet
Validated: 1
EndChar

StartChar: less
Encoding: 60 60 27
Width: 1480
GlyphClass: 2
Flags: W
LayerCount: 2
Fore
SplineSet
286 588 m 1,0,1
 407 784 407 784 468 980 c 1,2,3
 1027 1062 1027 1062 1589 1363 c 1,4,-1
 1592 1353 l 1,5,6
 1487 1182 1487 1182 1423 1001 c 1,7,8
 1076 970 1076 970 754 800 c 1,9,10
 996 639 996 639 1411 592 c 1,11,-1
 1414 582 l 1,12,13
 1295 386 1295 386 1232 190 c 1,14,15
 828 471 828 471 289 578 c 1,16,-1
 286 588 l 1,0,1
EndSplineSet
Validated: 1
EndChar

StartChar: equal
Encoding: 61 61 28
Width: 1409
GlyphClass: 2
Flags: W
HStem: 400 342<386.312 582.993 1085.5 1285.92> 453 236<438.95 1234.38> 816 342<482.312 678.993 1181.5 1381.92> 869 236<534.95 1330.38>
LayerCount: 2
Fore
SplineSet
248 400 m 1,0,-1
 245 410 l 1,1,2
 338 561 338 561 403 742 c 1,3,4
 633 689 633 689 865 689 c 0,5,6
 1149 689 1149 689 1424 742 c 1,7,-1
 1428 732 l 1,8,9
 1335 581 1335 581 1269 400 c 1,10,11
 1049 453 1049 453 789 453 c 0,12,13
 533 453 533 453 248 400 c 1,0,-1
344 816 m 1,14,-1
 341 826 l 1,15,16
 434 977 434 977 499 1158 c 1,17,18
 729 1105 729 1105 961 1105 c 0,19,20
 1245 1105 1245 1105 1520 1158 c 1,21,-1
 1524 1148 l 1,22,23
 1431 997 1431 997 1365 816 c 1,24,25
 1145 869 1145 869 885 869 c 0,26,27
 629 869 629 869 344 816 c 1,14,-1
EndSplineSet
Validated: 1
EndChar

StartChar: greater
Encoding: 62 62 29
Width: 1480
GlyphClass: 2
Flags: W
LayerCount: 2
Fore
SplineSet
1553 965 m 1,0,1
 1432 769 1432 769 1370 573 c 1,2,3
 811 491 811 491 250 190 c 1,4,-1
 246 200 l 1,5,6
 352 371 352 371 415 552 c 1,7,8
 763 583 763 583 1085 753 c 1,9,10
 870 915 870 915 428 961 c 1,11,-1
 424 971 l 1,12,13
 543 1167 543 1167 607 1363 c 1,14,15
 966 1095 966 1095 1549 975 c 1,16,-1
 1553 965 l 1,0,1
EndSplineSet
Validated: 1
EndChar

StartChar: question
Encoding: 63 63 30
Width: 1381
VWidth: 0
GlyphClass: 2
Flags: W
HStem: 0 21G<490 605.5> 1490 20G<878.5 1164.5>
VStem: 374 277<882.223 1098.29>
LayerCount: 2
Fore
SplineSet
1006 1510 m 1,0,-1
 1016 1510 l 1,1,2
 1313 1399 1313 1399 1411 1254 c 0,3,4
 1469 1168 1469 1168 1469 1073 c 0,5,6
 1469 1035 1469 1035 1460 994 c 0,7,8
 1393 718 1393 718 1067 600 c 0,9,10
 929 550 929 550 918 534 c 1,11,-1
 670 479 l 1,12,13
 724 714 724 714 1005 848 c 24,14,15
 1091 889 1091 889 1104 956 c 0,16,17
 1106 966 1106 966 1106 976 c 0,18,19
 1106 1016 1106 1016 1070 1057 c 0,20,21
 979 1158 979 1158 700 1174 c 1,22,23
 665 1133 665 1133 654 1088 c 0,24,25
 651 1076 651 1076 651 1066 c 0,26,27
 651 974 651 974 847 937 c 1,28,-1
 481 753 l 1,29,30
 374 841 374 841 374 946 c 0,31,32
 374 971 374 971 380 997 c 0,33,34
 413 1141 413 1141 553 1261 c 0,35,36
 751 1430 751 1430 1006 1510 c 1,0,-1
499 0 m 1,37,-1
 490 6 l 1,38,39
 530 105 530 105 551 192 c 0,40,41
 571 277 571 277 576 376 c 1,42,43
 776 393 776 393 989 468 c 1,44,-1
 998 462 l 1,45,46
 953 341 953 341 935 264 c 0,47,48
 918 190 918 190 912 92 c 1,49,50
 712 75 712 75 499 0 c 1,37,-1
EndSplineSet
Validated: 1
EndChar

StartChar: at
Encoding: 64 64 31
Width: 1390
GlyphClass: 2
Flags: W
HStem: -380 21G<524 799.5> 0 21G<785.5 863.5 889 1004.5> 1110 20G<840 1074>
VStem: 163 278<134.725 447.422> 552 248<296 462.556> 1052 335<409.887 731.188>
LayerCount: 2
Fore
SplineSet
849 0 m 9,0,-1
 839 0 l 17,1,2
 732 25 732 25 667 77 c 0,3,4
 552 168 552 168 552 296 c 0,5,6
 552 327 552 327 559 358 c 0,7,8
 596 520 596 520 710 590 c 0,9,10
 829 663 829 663 908 663 c 0,11,12
 965 663 965 663 1029 654 c 1,13,14
 831 535 831 535 805 427 c 0,15,16
 800 406 800 406 800 389 c 0,17,18
 800 320 800 320 876 300 c 0,19,20
 917 289 917 289 964 289 c 0,21,22
 971 289 971 289 978 289 c 1,23,24
 1033 461 1033 461 1038 484 c 0,25,26
 1052 544 1052 544 1052 593 c 0,27,28
 1052 700 1052 700 986 753 c 8,29,30
 867 850 867 850 679 850 c 1,31,32
 515 709 515 709 460 471 c 0,33,34
 441 389 441 389 441 319 c 0,35,36
 441 131 441 131 580 30 c 0,37,38
 764 -103 764 -103 1127 -132 c 1,39,40
 925 -302 925 -302 674 -380 c 1,41,-1
 664 -380 l 1,42,43
 384 -277 384 -277 268 -125 c 0,44,45
 163 13 163 13 163 196 c 0,46,47
 163 280 163 280 185 371 c 0,48,49
 254 669 254 669 510 881 c 24,50,51
 717 1053 717 1053 963 1130 c 1,52,-1
 973 1130 l 1,53,54
 1175 1071 1175 1071 1276 964 c 0,55,56
 1387 847 1387 847 1387 687 c 0,57,58
 1387 628 1387 628 1372 562 c 0,59,60
 1323 353 1323 353 1311 92 c 1,61,62
 1111 75 1111 75 898 0 c 1,63,-1
 889 6 l 1,64,-1
 905 50 l 1,65,66
 878 19 878 19 849 0 c 9,0,-1
EndSplineSet
Validated: 1
EndChar

StartChar: A
Encoding: 65 65 32
Width: 1483
GlyphClass: 2
Flags: W
HStem: 0 21G<6 108.5 1077 1192.5> 421 231<680.715 1054.43> 1490 20G<1172 1287>
LayerCount: 2
Fore
SplineSet
15 0 m 1,0,-1
 6 6 l 1,1,2
 525 692 525 692 865 1418 c 1,3,4
 1065 1435 1065 1435 1279 1510 c 1,5,-1
 1287 1504 l 1,6,7
 1292 723 1292 723 1499 92 c 1,8,9
 1299 75 1299 75 1086 0 c 1,10,-1
 1077 6 l 1,11,12
 1087 119 1087 119 1087 226 c 0,13,14
 1086 326 1086 326 1079 411 c 1,15,16
 970 421 970 421 800 421 c 0,17,18
 641 421 641 421 542 411 c 1,19,20
 459 253 459 253 387 88 c 1,21,22
 202 66 202 66 15 0 c 1,0,-1
678 655 m 1,23,24
 740 652 740 652 866 652 c 0,25,26
 1000 652 1000 652 1058 654 c 1,27,28
 1030 888 1030 888 970 1091 c 1,29,30
 812 881 812 881 678 655 c 1,23,24
EndSplineSet
Validated: 1
EndChar

StartChar: C
Encoding: 67 67 33
Width: 1456
VWidth: 0
GlyphClass: 2
Flags: W
HStem: 0 21G<632 908> 1490 20G<948 1221.5>
VStem: 272 343<534.461 834.361>
LayerCount: 2
Fore
SplineSet
782 0 m 1,0,-1
 772 0 l 1,1,2
 492 103 492 103 376 255 c 0,3,4
 272 392 272 392 272 576 c 0,5,6
 272 659 272 659 293 751 c 0,7,8
 361 1048 361 1048 618 1261 c 24,9,10
 825 1433 825 1433 1071 1510 c 1,11,-1
 1081 1510 l 1,12,13
 1362 1406 1362 1406 1476 1254 c 16,14,15
 1509 1210 1509 1210 1532 1161 c 1,16,-1
 1178 1004 l 1,17,18
 1159 1032 1159 1032 1135 1057 c 0,19,20
 1035 1161 1035 1161 765 1174 c 1,21,22
 670 1032 670 1032 632 864 c 0,23,24
 615 788 615 788 615 722 c 0,25,26
 615 559 615 559 718 453 c 0,27,28
 822 346 822 346 1088 336 c 1,29,30
 1119 398 1119 398 1133 460 c 0,31,32
 1146 518 1146 518 1146 575 c 0,33,34
 1146 614 1146 614 1140 654 c 9,35,-1
 1484 554 l 17,36,37
 1397 386 1397 386 1234 248 c 0,38,39
 1034 78 1034 78 782 0 c 1,0,-1
EndSplineSet
Validated: 1
EndChar

StartChar: E
Encoding: 69 69 34
Width: 1249
GlyphClass: 2
Flags: W
HStem: 0 21G<181 298.5 1034.5 1155> 45 241<637.688 1091.91> 593 242<733 1066.66> 1490 20G<817 932 1403.5 1489>
LayerCount: 2
Fore
SplineSet
190 0 m 1,0,-1
 181 6 l 1,1,2
 312 376 312 376 393 730 c 0,3,4
 469 1063 469 1063 510 1418 c 1,5,6
 710 1435 710 1435 924 1510 c 1,7,-1
 932 1504 l 1,8,9
 1025 1461 1025 1461 1202 1461 c 0,10,11
 1321 1461 1321 1461 1486 1510 c 1,12,-1
 1489 1500 l 1,13,14
 1403 1368 1403 1368 1307 1108 c 1,15,16
 1126 1121 1126 1121 1039 1183 c 0,17,18
 939 1254 939 1254 906 1428 c 1,19,20
 806 1136 806 1136 733 835 c 1,21,22
 1009 835 1009 835 1263 950 c 1,23,-1
 1267 940 l 1,24,25
 1181 808 1181 808 1085 548 c 1,26,27
 942 593 942 593 680 593 c 1,28,29
 652 461 652 461 629 296 c 1,30,31
 698 286 698 286 819 286 c 0,32,33
 1028 286 1028 286 1286 402 c 1,34,-1
 1290 392 l 1,35,36
 1203 260 1203 260 1107 0 c 1,37,38
 962 45 962 45 768 45 c 0,39,40
 407 45 407 45 190 0 c 1,0,-1
EndSplineSet
Validated: 1
EndChar

StartChar: G
Encoding: 71 71 35
Width: 1504
GlyphClass: 2
Flags: W
HStem: 0 21G<632 907.5> 1490 20G<948 1221.5>
VStem: 272 343<534.461 834.361>
LayerCount: 2
Fore
SplineSet
782 0 m 1,0,-1
 772 0 l 1,1,2
 492 103 492 103 376 255 c 0,3,4
 272 392 272 392 272 576 c 0,5,6
 272 659 272 659 293 751 c 0,7,8
 361 1048 361 1048 618 1261 c 24,9,10
 825 1433 825 1433 1071 1510 c 1,11,-1
 1081 1510 l 1,12,13
 1362 1406 1362 1406 1476 1254 c 16,14,15
 1509 1210 1509 1210 1532 1161 c 1,16,-1
 1178 1004 l 1,17,18
 1159 1032 1159 1032 1135 1057 c 0,19,20
 1035 1161 1035 1161 765 1174 c 1,21,22
 670 1032 670 1032 632 864 c 0,23,24
 615 788 615 788 615 722 c 0,25,26
 615 559 615 559 718 453 c 0,27,28
 822 346 822 346 1088 336 c 1,29,30
 1171 466 1171 466 1210 605 c 1,31,32
 1045 583 1045 583 846 495 c 1,33,-1
 843 505 l 1,34,35
 929 637 929 637 1025 897 c 1,36,37
 1170 852 1170 852 1364 852 c 2,38,-1
 1575 852 l 1,39,-1
 1559 759 l 17,40,41
 1491 465 1491 465 1234 248 c 0,42,43
 1033 78 1033 78 782 0 c 1,0,-1
EndSplineSet
Validated: 1
EndChar

StartChar: H
Encoding: 72 72 36
Width: 1524
GlyphClass: 2
Flags: W
HStem: 0 21G<181 296.5 940 1055.5> 659 241<755.249 1128.59> 1490 20G<817 932 1576 1691>
LayerCount: 2
Fore
SplineSet
190 0 m 1,0,-1
 181 6 l 1,1,2
 308 364 308 364 393 733 c 0,3,4
 469 1063 469 1063 510 1418 c 1,5,6
 710 1435 710 1435 924 1510 c 1,7,-1
 932 1504 l 1,8,9
 828 1212 828 1212 752 908 c 1,10,11
 856 900 856 900 955 900 c 0,12,13
 1061 900 1061 900 1190 911 c 1,14,15
 1240 1159 1240 1159 1269 1418 c 1,16,17
 1469 1435 1469 1435 1683 1510 c 1,18,-1
 1691 1504 l 1,19,20
 1570 1165 1570 1165 1480 782 c 0,21,22
 1398 433 1398 433 1362 92 c 1,23,24
 1162 75 1162 75 949 0 c 1,25,-1
 940 6 l 1,26,27
 1053 325 1053 325 1132 650 c 1,28,29
 1023 659 1023 659 901 659 c 0,30,31
 800 659 800 659 692 649 c 1,32,33
 633 367 633 367 603 92 c 1,34,35
 403 75 403 75 190 0 c 1,0,-1
EndSplineSet
Validated: 1
EndChar

StartChar: I
Encoding: 73 73 37
Width: 765
GlyphClass: 2
Flags: W
HStem: 0 21G<181 296.5> 1490 20G<817 932>
LayerCount: 2
Fore
SplineSet
190 0 m 1,0,-1
 181 6 l 1,1,2
 312 376 312 376 393 730 c 0,3,4
 469 1063 469 1063 510 1418 c 1,5,6
 710 1435 710 1435 924 1510 c 1,7,-1
 932 1504 l 1,8,9
 808 1157 808 1157 721 782 c 0,10,11
 640 433 640 433 603 92 c 1,12,13
 403 75 403 75 190 0 c 1,0,-1
EndSplineSet
Validated: 1
EndChar

StartChar: L
Encoding: 76 76 38
Width: 1204
GlyphClass: 2
Flags: W
HStem: 0 21G<181 298.5 1034.5 1155> 45 241<637.688 1089.53> 1490 20G<817 932>
LayerCount: 2
Fore
SplineSet
190 0 m 1,0,-1
 181 6 l 1,1,2
 310 369 310 369 393 730 c 0,3,4
 470 1064 470 1064 510 1418 c 1,5,6
 710 1435 710 1435 924 1510 c 1,7,-1
 932 1504 l 1,8,9
 806 1150 806 1150 721 782 c 0,10,11
 654 493 654 493 629 296 c 1,12,13
 697 286 697 286 819 286 c 0,14,15
 1023 286 1023 286 1286 402 c 1,16,-1
 1290 392 l 1,17,18
 1203 260 1203 260 1107 0 c 1,19,20
 962 45 962 45 768 45 c 0,21,22
 407 45 407 45 190 0 c 1,0,-1
EndSplineSet
Validated: 1
EndChar

StartChar: N
Encoding: 78 78 39
Width: 1584
GlyphClass: 2
Flags: W
HStem: 0 21G<268 334 1003 1118.5> 1490 20G<754 869 1661.5 1751>
LayerCount: 2
Fore
SplineSet
277 0 m 1,0,-1
 268 6 l 1,1,2
 395 308 395 308 486 695 c 0,3,4
 543 937 543 937 578 1186 c 1,5,6
 526 1286 526 1286 447 1418 c 1,7,8
 647 1435 647 1435 861 1510 c 1,9,-1
 869 1504 l 1,10,11
 993 849 993 849 1253 478 c 1,12,13
 1289 613 1289 613 1328 781 c 0,14,15
 1400 1095 1400 1095 1410 1422 c 1,16,17
 1580 1444 1580 1444 1743 1510 c 1,18,-1
 1751 1504 l 1,19,20
 1600 1070 1600 1070 1532 773 c 0,21,22
 1460 460 1460 460 1425 92 c 1,23,24
 1225 75 1225 75 1012 0 c 1,25,-1
 1003 6 l 1,26,27
 936 468 936 468 726 826 c 1,28,29
 710 765 710 765 682 642 c 0,30,31
 624 391 624 391 609 88 c 1,32,33
 391 51 391 51 277 0 c 1,0,-1
EndSplineSet
Validated: 1
EndChar

StartChar: O
Encoding: 79 79 40
Width: 1504
VWidth: 0
GlyphClass: 2
Flags: W
HStem: 0 21G<632 907> 1490 20G<948 1219>
VStem: 272 343<534.343 834.021> 1238 343<682.652 975.988>
LayerCount: 2
Fore
SplineSet
782 0 m 1,0,-1
 772 0 l 1,1,2
 492 103 492 103 376 255 c 0,3,4
 272 392 272 392 272 576 c 0,5,6
 272 659 272 659 293 751 c 0,7,8
 361 1048 361 1048 618 1261 c 24,9,10
 825 1433 825 1433 1071 1510 c 1,11,-1
 1081 1510 l 1,12,13
 1357 1408 1357 1408 1476 1254 c 16,14,15
 1581 1118 1581 1118 1581 935 c 0,16,17
 1581 851 1581 851 1559 759 c 0,18,19
 1490 464 1490 464 1234 248 c 0,20,21
 1032 78 1032 78 782 0 c 1,0,-1
765 1174 m 1,22,23
 669 1030 669 1030 632 864 c 0,24,25
 615 786 615 786 615 720 c 0,26,27
 615 559 615 559 718 453 c 0,28,29
 825 346 825 346 1088 336 c 1,30,31
 1182 484 1182 484 1220 646 c 0,32,33
 1238 722 1238 722 1238 789 c 0,34,35
 1238 951 1238 951 1135 1057 c 0,36,37
 1036 1161 1036 1161 765 1174 c 1,22,23
EndSplineSet
Validated: 1
EndChar

StartChar: T
Encoding: 84 84 41
Width: 1246
GlyphClass: 2
Flags: W
HStem: 0 21G<418 533.5> 1240 227<505.25 724 1070.66 1244.39> 1490 20G<398 575.5 1443.5 1587>
LayerCount: 2
Fore
SplineSet
427 0 m 1,0,-1
 418 6 l 1,1,2
 548 374 548 374 630 730 c 0,3,4
 687 979 687 979 724 1240 c 1,5,6
 515 1220 515 1220 267 1108 c 1,7,-1
 263 1118 l 1,8,9
 350 1250 350 1250 446 1510 c 1,10,11
 705 1467 705 1467 978 1467 c 0,12,13
 1303 1467 1303 1467 1584 1510 c 1,14,-1
 1587 1500 l 1,15,16
 1501 1368 1501 1368 1405 1108 c 1,17,18
 1249 1219 1249 1219 1084 1240 c 1,19,20
 1012 1014 1012 1014 958 782 c 0,21,22
 876 427 876 427 840 92 c 1,23,24
 640 75 640 75 427 0 c 1,0,-1
EndSplineSet
Validated: 1
EndChar

StartChar: V
Encoding: 86 86 42
Width: 1483
GlyphClass: 2
Flags: W
HStem: 0 21G<544 659.5> 1490 20G<639 754 1723 1825>
LayerCount: 2
Fore
SplineSet
553 0 m 1,0,-1
 544 6 l 1,1,2
 543 795 543 795 332 1418 c 1,3,4
 532 1435 532 1435 746 1510 c 1,5,-1
 754 1504 l 1,6,7
 745 1372 745 1372 745 1246 c 0,8,9
 745 797 745 797 862 419 c 1,10,11
 1207 880 1207 880 1444 1422 c 1,12,13
 1629 1444 1629 1444 1817 1510 c 1,14,-1
 1825 1504 l 1,15,16
 1307 818 1307 818 966 92 c 1,17,18
 766 75 766 75 553 0 c 1,0,-1
EndSplineSet
Validated: 1
EndChar

StartChar: W
Encoding: 87 87 43
Width: 2022
GlyphClass: 2
Flags: W
HStem: 0 21G<544 659.5 1083 1198.5> 1490 20G<639 754 1178 1293 1723 1825 2262 2364>
VStem: 545 194<776 851>
LayerCount: 2
Fore
SplineSet
553 0 m 1,0,-1
 544 6 l 1,1,2
 545 46 545 46 545 86 c 0,3,4
 545 851 545 851 332 1418 c 1,5,6
 532 1435 532 1435 746 1510 c 1,7,-1
 754 1504 l 1,8,9
 739 1337 739 1337 739 1196 c 0,10,11
 739 776 739 776 862 419 c 1,12,13
 970 540 970 540 1062 669 c 1,14,15
 1012 1071 1012 1071 871 1418 c 1,16,17
 1071 1435 1071 1435 1285 1510 c 1,18,-1
 1293 1504 l 1,19,20
 1267 1307 1267 1307 1267 1128 c 0,21,22
 1267 1067 1267 1067 1270 1007 c 1,23,24
 1375 1207 1375 1207 1444 1422 c 1,25,26
 1629 1444 1629 1444 1817 1510 c 1,27,-1
 1825 1504 l 1,28,29
 1523 1139 1523 1139 1299 761 c 1,30,31
 1332 577 1332 577 1401 419 c 1,32,33
 1746 880 1746 880 1983 1422 c 1,34,35
 2168 1444 2168 1444 2356 1510 c 1,36,-1
 2364 1504 l 1,37,38
 1846 818 1846 818 1505 92 c 1,39,40
 1305 75 1305 75 1092 0 c 1,41,-1
 1083 6 l 1,42,43
 1089 114 1089 114 1089 219 c 0,44,45
 1089 294 1089 294 1086 364 c 1,46,47
 1022 229 1022 229 966 92 c 1,48,49
 766 75 766 75 553 0 c 1,0,-1
EndSplineSet
Validated: 1
EndChar

StartChar: bracketleft
Encoding: 91 91 44
Width: 1003
GlyphClass: 2
Flags: W
HStem: -245 241<552.814 789.462>
LayerCount: 2
Fore
SplineSet
113 -290 m 1,0,1
 104 -284 l 1,2,3
 230 71 230 71 383 732 c 0,4,5
 527 1354 527 1354 568 1710 c 1,6,7
 768 1727 768 1727 981 1802 c 1,8,-1
 990 1796 l 1,9,10
 1074 1754 1074 1754 1158 1754 c 0,11,12
 1248 1754 1248 1754 1363 1802 c 1,13,-1
 1367 1792 l 1,14,15
 1280 1660 1280 1660 1185 1402 c 1,16,17
 1058 1425 1058 1425 1008 1498 c 0,18,19
 960 1568 960 1568 960 1668 c 0,20,21
 960 1693 960 1693 963 1720 c 1,22,23
 855 1406 855 1406 723 837 c 128,-1,24
 591 268 591 268 552 6 c 1,25,26
 578 -4 578 -4 610 -4 c 0,27,28
 780 -4 780 -4 973 112 c 1,29,-1
 977 102 l 1,30,31
 890 -30 890 -30 794 -290 c 1,32,33
 649 -245 649 -245 476 -245 c 0,34,35
 336 -245 336 -245 113 -290 c 1,0,1
EndSplineSet
Validated: 1
EndChar

StartChar: backslash
Encoding: 92 92 45
Width: 1259
GlyphClass: 2
Flags: W
LayerCount: 2
Fore
SplineSet
862 -150 m 1,0,1
 854 -144 l 1,2,3
 805 249 805 249 691 642 c 0,4,5
 554 1114 554 1114 373 1572 c 1,6,7
 558 1594 558 1594 745 1660 c 1,8,-1
 754 1654 l 1,9,10
 802 1260 802 1260 916 868 c 0,11,12
 1054 392 1054 392 1235 -62 c 1,13,14
 1050 -84 1050 -84 862 -150 c 1,0,1
EndSplineSet
Validated: 1
EndChar

StartChar: bracketright
Encoding: 93 93 46
Width: 1003
GlyphClass: 2
Flags: W
HStem: 1516 241<562.538 799.186>
LayerCount: 2
Fore
SplineSet
-11 -290 m 1,0,-1
 -15 -280 l 1,1,2
 72 -148 72 -148 167 110 c 1,3,4
 294 87 294 87 344 14 c 0,5,6
 392 -56 392 -56 392 -156 c 0,7,8
 392 -181 392 -181 389 -208 c 1,9,10
 499 113 499 113 629 675 c 0,11,12
 760 1243 760 1243 800 1506 c 1,13,14
 774 1516 774 1516 742 1516 c 0,15,16
 572 1516 572 1516 379 1400 c 1,17,-1
 376 1410 l 1,18,19
 462 1542 462 1542 558 1802 c 1,20,21
 703 1757 703 1757 876 1757 c 0,22,23
 1016 1757 1016 1757 1239 1802 c 1,24,-1
 1248 1796 l 1,25,26
 1121 1439 1121 1439 969 780 c 0,27,28
 825 157 825 157 784 -198 c 1,29,30
 584 -215 584 -215 371 -290 c 1,31,-1
 362 -284 l 1,32,33
 278 -242 278 -242 194 -242 c 0,34,35
 104 -242 104 -242 -11 -290 c 1,0,-1
EndSplineSet
Validated: 1
EndChar

StartChar: asciicircum
Encoding: 94 94 47
Width: 1473
GlyphClass: 2
Flags: W
HStem: 1490 20G<1167 1282>
LayerCount: 2
Fore
SplineSet
1274 1510 m 1,0,-1
 1282 1504 l 1,1,2
 1334 1150 1334 1150 1524 872 c 1,3,4
 1324 855 1324 855 1111 780 c 1,5,-1
 1102 786 l 1,6,7
 1081 983 1081 983 972 1122 c 1,8,9
 803 1002 803 1002 712 868 c 1,10,11
 527 846 527 846 340 780 c 1,12,-1
 331 786 l 1,13,14
 686 1118 686 1118 860 1418 c 1,15,16
 1060 1435 1060 1435 1274 1510 c 1,0,-1
EndSplineSet
Validated: 1
EndChar

StartChar: underscore
Encoding: 95 95 48
Width: 1409
GlyphClass: 2
Flags: W
HStem: -380 342<206.094 402.993 905.502 1105.92> -327 236<258.95 1054.38>
LayerCount: 2
Fore
SplineSet
68 -380 m 1,0,-1
 65 -370 l 1,1,2
 157 -219 157 -219 223 -38 c 1,3,4
 453 -91 453 -91 685 -91 c 0,5,6
 969 -91 969 -91 1244 -38 c 1,7,-1
 1248 -48 l 1,8,9
 1155 -199 1155 -199 1089 -380 c 1,10,11
 869 -327 869 -327 609 -327 c 0,12,13
 353 -327 353 -327 68 -380 c 1,0,-1
EndSplineSet
Validated: 1
EndChar

StartChar: grave
Encoding: 96 96 49
Width: 1024
GlyphClass: 2
Flags: W
HStem: 952 558
VStem: 475 640
LayerCount: 2
Fore
SplineSet
895 1510 m 1,0,-1
 903 1504 l 1,1,2
 940 1248 940 1248 1115 1042 c 1,3,-1
 1106 1032 l 1,4,5
 966 1011 966 1011 796 952 c 1,6,-1
 787 958 l 1,7,8
 711 1208 711 1208 475 1408 c 1,9,-1
 481 1418 l 1,10,11
 681 1435 681 1435 895 1510 c 1,0,-1
EndSplineSet
Validated: 1
EndChar

StartChar: a
Encoding: 97 97 50
Width: 1261
GlyphClass: 2
Flags: W
HStem: 0 289<556.884 763.411> 1110 20G<703.5 945>
VStem: 921 337<414.286 727.602>
LayerCount: 2
Fore
SplineSet
639 0 m 9,0,-1
 629 0 l 17,1,2
 446 0 446 0 317 79 c 0,3,4
 175 166 175 166 175 297 c 0,5,6
 175 327 175 327 183 360 c 0,7,8
 220 514 220 514 356 600 c 0,9,10
 472 674 472 674 636 674 c 0,11,12
 693 674 693 674 757 665 c 1,13,14
 558 545 558 545 532 438 c 0,15,16
 527 417 527 417 527 400 c 0,17,18
 527 330 527 330 604 311 c 0,19,20
 692 289 692 289 849 289 c 1,21,22
 903 458 903 458 909 484 c 0,23,24
 921 536 921 536 921 582 c 0,25,26
 921 686 921 686 857 753 c 8,27,28
 759 856 759 856 373 856 c 1,29,30
 573 1056 573 1056 834 1130 c 1,31,-1
 844 1130 l 1,32,33
 1046 1071 1046 1071 1147 964 c 0,34,35
 1258 847 1258 847 1258 687 c 0,36,37
 1258 628 1258 628 1243 562 c 0,38,39
 1194 361 1194 361 1182 92 c 1,40,41
 982 75 982 75 769 0 c 1,42,-1
 760 6 l 1,43,-1
 776 50 l 1,44,45
 709 20 709 20 639 0 c 9,0,-1
EndSplineSet
Validated: 1
EndChar

StartChar: b
Encoding: 98 98 51
Width: 1320
GlyphClass: 2
Flags: W
HStem: 0 21G<618.5 838.5> 1110 20G<892 1052> 1490 20G<784 899>
VStem: 307 336<404.079 694.822> 1056 309<470.359 696.737>
LayerCount: 2
Fore
SplineSet
730 0 m 1,0,-1
 720 0 l 1,1,2
 517 59 517 59 417 166 c 0,3,4
 307 283 307 283 307 444 c 0,5,6
 307 503 307 503 322 569 c 9,7,-1
 360 730 l 17,8,9
 436 1063 436 1063 477 1418 c 1,10,11
 677 1435 677 1435 891 1510 c 1,12,-1
 899 1504 l 1,13,14
 815 1272 815 1272 755 1057 c 1,15,16
 843 1102 843 1102 941 1130 c 1,17,-1
 951 1130 l 1,18,19
 1153 1071 1153 1071 1254 964 c 0,20,21
 1365 847 1365 847 1365 687 c 0,22,23
 1365 629 1365 629 1350 562 c 0,24,25
 1301 359 1301 359 1130 216 c 0,26,27
 947 63 947 63 730 0 c 1,0,-1
700 843 m 1,28,29
 682 752 682 752 656 646 c 0,30,31
 643 592 643 592 643 546 c 0,32,33
 643 438 643 438 713 377 c 0,34,35
 798 302 798 302 961 291 c 1,36,37
 1029 399 1029 399 1048 484 c 0,38,39
 1056 520 1056 520 1056 553 c 0,40,41
 1056 667 1056 667 964 753 c 0,42,43
 892 820 892 820 700 843 c 1,28,29
EndSplineSet
Validated: 1
EndChar

StartChar: c
Encoding: 99 99 52
Width: 1188
GlyphClass: 2
Flags: W
HStem: 0 21G<528.5 747> 1110 20G<738 960>
VStem: 215 314<432.257 658.857>
LayerCount: 2
Fore
SplineSet
639 0 m 9,0,-1
 629 0 l 17,1,2
 428 59 428 59 326 166 c 0,3,4
 215 283 215 283 215 443 c 0,5,6
 215 503 215 503 231 569 c 0,7,8
 276 765 276 765 450 914 c 24,9,10
 626 1065 626 1065 850 1130 c 9,11,-1
 860 1130 l 17,12,13
 1060 1070 1060 1070 1163 964 c 16,14,15
 1221 904 1221 904 1248 829 c 1,16,-1
 941 665 l 1,17,18
 917 713 917 713 873 753 c 0,19,20
 794 826 794 826 625 839 c 1,21,22
 558 731 558 731 538 646 c 0,23,24
 529 608 529 608 529 574 c 0,25,26
 529 459 529 459 622 377 c 0,27,28
 706 302 706 302 870 291 c 1,29,30
 888 370 888 370 888 458 c 9,31,-1
 1171 361 l 17,32,33
 1119 283 1119 283 1039 216 c 0,34,35
 855 62 855 62 639 0 c 9,0,-1
EndSplineSet
Validated: 1
EndChar

StartChar: d
Encoding: 100 100 53
Width: 1330
GlyphClass: 2
Flags: W
HStem: 0 21G<528.5 679 776 891.5> 1110 20G<737.5 924> 1490 20G<1412 1527>
VStem: 215 314<432.423 658.678>
DStem2: 870 291 1527 1504 0.282687 0.959212<0 1349.25>
LayerCount: 2
Fore
SplineSet
639 0 m 1,0,-1
 629 0 l 1,1,2
 428 59 428 59 326 166 c 0,3,4
 215 283 215 283 215 443 c 0,5,6
 215 504 215 504 231 569 c 0,7,8
 276 764 276 764 450 914 c 0,9,10
 625 1065 625 1065 850 1130 c 1,11,-1
 860 1130 l 1,12,13
 988 1082 988 1082 1037 984 c 1,14,15
 1069 1165 1069 1165 1105 1418 c 1,16,17
 1305 1435 1305 1435 1519 1510 c 1,18,-1
 1527 1504 l 1,19,20
 1406 1165 1406 1165 1316 782 c 0,21,22
 1234 433 1234 433 1198 92 c 1,23,24
 998 75 998 75 785 0 c 1,25,-1
 776 6 l 1,26,-1
 795 59 l 1,27,28
 719 23 719 23 639 0 c 1,0,-1
625 839 m 1,29,30
 558 731 558 731 538 646 c 0,31,32
 529 608 529 608 529 573 c 0,33,34
 529 460 529 460 622 377 c 0,35,36
 706 302 706 302 870 291 c 1,37,38
 919 450 919 450 959 612 c 1,39,40
 941 690 941 690 873 753 c 0,41,42
 794 826 794 826 625 839 c 1,29,30
EndSplineSet
Validated: 1
EndChar

StartChar: e
Encoding: 101 101 54
Width: 1188
GlyphClass: 2
Flags: W
HStem: 0 21G<528.5 747.5> 498 20<692.297 865> 1110 20G<738 956.5>
VStem: 215 314<432.472 658.857>
LayerCount: 2
Fore
SplineSet
639 0 m 9,0,-1
 629 0 l 17,1,2
 428 59 428 59 326 166 c 0,3,4
 215 283 215 283 215 443 c 0,5,6
 215 505 215 505 231 569 c 0,7,8
 276 765 276 765 450 914 c 24,9,10
 626 1065 626 1065 850 1130 c 9,11,-1
 860 1130 l 17,12,13
 1053 1073 1053 1073 1163 964 c 16,14,15
 1235 893 1235 893 1235 805 c 0,16,17
 1235 779 1235 779 1229 751 c 0,18,19
 1194 609 1194 609 1045 540 c 0,20,21
 955 498 955 498 837 498 c 0,22,23
 758 498 758 498 663 518 c 1,24,25
 865 569 865 569 890 671 c 0,26,27
 894 687 894 687 894 700 c 0,28,29
 894 734 894 734 873 753 c 0,30,31
 804 822 804 822 625 839 c 1,32,33
 558 731 558 731 538 646 c 0,34,35
 529 608 529 608 529 574 c 0,36,37
 529 460 529 460 622 377 c 0,38,39
 706 302 706 302 870 291 c 1,40,41
 888 370 888 370 888 458 c 9,42,-1
 1171 361 l 17,43,44
 1121 285 1121 285 1039 216 c 0,45,46
 856 62 856 62 639 0 c 9,0,-1
EndSplineSet
Validated: 1
EndChar

StartChar: f
Encoding: 102 102 55
Width: 1145
GlyphClass: 2
Flags: W
HStem: 0 21G<165 280.5> 509 327<721.404 997.094> 551 243<715 976.968> 1490 20G<973 1207.5>
LayerCount: 2
Fore
SplineSet
174 0 m 1,0,-1
 165 6 l 1,1,2
 269 267 269 267 328 503 c 0,3,4
 332 519 332 519 336 535 c 1,5,6
 257 525 257 525 174 509 c 1,7,-1
 170 519 l 1,8,9
 238 646 238 646 308 836 c 1,10,11
 348 827 348 827 388 819 c 1,12,13
 394 869 394 869 396 909 c 1,14,15
 455 1101 455 1101 683 1294 c 0,16,17
 863 1446 863 1446 1083 1510 c 1,18,-1
 1093 1510 l 1,19,20
 1322 1444 1322 1444 1427 1307 c 9,21,-1
 1139 1097 l 17,22,23
 1070 1195 1070 1195 884 1217 c 1,24,25
 821 1106 821 1106 780 998 c 0,26,27
 748 914 748 914 715 794 c 1,28,29
 920 798 920 798 1116 836 c 1,30,-1
 1120 826 l 1,31,32
 1051 699 1051 699 982 509 c 1,33,34
 821 545 821 545 655 551 c 1,35,36
 603 318 603 318 587 92 c 1,37,38
 387 75 387 75 174 0 c 1,0,-1
EndSplineSet
Validated: 1
EndChar

StartChar: g
Encoding: 103 103 56
Width: 1306
GlyphClass: 2
Flags: W
HStem: -380 255<504.842 640.99> 0 21G<529 696> 1110 20G<742 962>
VStem: 216 307<411.922 659.534> 938 337<420.327 726.466>
LayerCount: 2
Fore
SplineSet
640 0 m 1,0,-1
 630 0 l 1,1,2
 428 59 428 59 327 166 c 0,3,4
 216 283 216 283 216 443 c 0,5,6
 216 502 216 502 231 568 c 0,7,8
 280 770 280 770 451 914 c 0,9,10
 633 1067 633 1067 851 1130 c 1,11,-1
 861 1130 l 1,12,13
 1063 1071 1063 1071 1164 964 c 0,14,15
 1275 847 1275 847 1275 687 c 0,16,17
 1275 629 1275 629 1260 562 c 0,18,19
 1214 374 1214 374 1207 221 c 1,20,21
 1147 29 1147 29 920 -164 c 0,22,23
 741 -316 741 -316 520 -380 c 1,24,-1
 510 -380 l 1,25,26
 311 -320 311 -320 208 -214 c 0,27,28
 149 -153 149 -153 122 -79 c 1,29,-1
 384 50 l 1,30,31
 403 5 403 5 451 -38 c 0,32,33
 547 -125 547 -125 641 -125 c 0,34,35
 681 -125 681 -125 730 -121 c 1,36,37
 811 -14 811 -14 838 104 c 1,38,39
 752 36 752 36 640 0 c 1,0,-1
877 267 m 1,40,41
 893 350 893 350 925 484 c 0,42,43
 938 538 938 538 938 584 c 0,44,45
 938 693 938 693 868 753 c 0,46,47
 783 828 783 828 620 839 c 1,48,49
 552 732 552 732 533 646 c 0,50,51
 523 602 523 602 523 561 c 0,52,53
 523 442 523 442 612 357 c 0,54,55
 682 290 682 290 877 267 c 1,40,41
EndSplineSet
Validated: 1
EndChar

StartChar: h
Encoding: 104 104 57
Width: 1360
GlyphClass: 2
Flags: W
HStem: 0 21G<151 266.5 859 974.5> 1110 20G<888.5 1044> 1490 20G<787 902>
VStem: 1021 336<414.33 731.569>
LayerCount: 2
Fore
SplineSet
160 0 m 1,0,-1
 151 6 l 1,1,2
 282 376 282 376 363 730 c 0,3,4
 439 1063 439 1063 480 1418 c 1,5,6
 680 1435 680 1435 894 1510 c 1,7,-1
 902 1504 l 1,8,9
 826 1289 826 1289 763 1065 c 1,10,11
 844 1104 844 1104 933 1130 c 1,12,-1
 943 1130 l 1,13,14
 1145 1071 1145 1071 1246 964 c 0,15,16
 1357 847 1357 847 1357 687 c 0,17,18
 1357 628 1357 628 1342 562 c 0,19,20
 1293 361 1293 361 1281 92 c 1,21,22
 1081 75 1081 75 868 0 c 1,23,-1
 859 6 l 1,24,25
 980 359 980 359 1008 484 c 0,26,27
 1021 543 1021 543 1021 591 c 0,28,29
 1021 696 1021 696 956 753 c 0,30,31
 869 828 869 828 708 839 c 1,32,-1
 704 840 l 1,33,34
 697 811 697 811 691 782 c 0,35,36
 606 405 606 405 573 92 c 1,37,38
 373 75 373 75 160 0 c 1,0,-1
EndSplineSet
Validated: 1
EndChar

StartChar: i
Encoding: 105 105 58
Width: 702
GlyphClass: 2
Flags: W
HStem: 0 21G<151 266.5> 1110 20G<696.5 811> 1490 20G<784 899>
LayerCount: 2
Fore
SplineSet
413 1138 m 1,0,1
 452 1215 452 1215 463 1276 c 0,2,3
 477 1354 477 1354 477 1418 c 1,4,5
 677 1435 677 1435 891 1510 c 1,6,-1
 899 1504 l 1,7,8
 861 1417 861 1417 848 1356 c 128,-1,9
 835 1295 835 1295 835 1224 c 1,10,11
 635 1207 635 1207 421 1132 c 1,12,-1
 413 1138 l 1,0,1
160 0 m 1,13,-1
 151 6 l 1,14,15
 264 334 264 334 318 565 c 0,16,17
 372 797 372 797 390 1038 c 1,18,19
 590 1055 590 1055 803 1130 c 1,20,-1
 811 1124 l 1,21,22
 698 841 698 841 649 627 c 0,23,24
 585 349 585 349 573 92 c 1,25,26
 373 75 373 75 160 0 c 1,13,-1
EndSplineSet
Validated: 1
EndChar

StartChar: j
Encoding: 106 106 59
Width: 702
GlyphClass: 2
Flags: W
HStem: -380 21G<-114 5> 1110 20G<696.5 811> 1490 20G<784 899>
LayerCount: 2
Fore
SplineSet
413 1138 m 1,0,1
 452 1215 452 1215 463 1276 c 0,2,3
 477 1354 477 1354 477 1418 c 1,4,5
 677 1435 677 1435 891 1510 c 1,6,-1
 899 1504 l 1,7,8
 861 1417 861 1417 848 1356 c 128,-1,9
 835 1295 835 1295 835 1224 c 1,10,11
 635 1207 635 1207 421 1132 c 1,12,-1
 413 1138 l 1,0,1
-106 -380 m 9,13,-1
 -114 -374 l 17,14,15
 90 -144 90 -144 196 132 c 0,16,17
 248 268 248 268 318 565 c 0,18,19
 374 803 374 803 390 1038 c 1,20,21
 590 1055 590 1055 803 1130 c 1,22,-1
 811 1124 l 1,23,24
 698 839 698 839 649 627 c 0,25,26
 588 361 588 361 581 221 c 1,27,28
 521 29 521 29 294 -164 c 0,29,30
 116 -316 116 -316 -106 -380 c 9,13,-1
EndSplineSet
Validated: 1
EndChar

StartChar: k
Encoding: 107 107 60
Width: 1234
GlyphClass: 2
Flags: W
HStem: 0 21G<151 266.5 823 938.5> 1110 20G<1122 1177> 1490 20G<787 902>
LayerCount: 2
Fore
SplineSet
160 0 m 1,0,-1
 151 6 l 1,1,2
 282 376 282 376 363 730 c 0,3,4
 439 1063 439 1063 480 1418 c 1,5,6
 680 1435 680 1435 894 1510 c 1,7,-1
 902 1504 l 1,8,9
 777 1154 777 1154 687 768 c 1,10,11
 921 898 921 898 1122 1124 c 1,12,-1
 1133 1130 l 1,13,14
 1221 1024 1221 1024 1346 962 c 1,15,16
 1130 847 1130 847 956 694 c 1,17,18
 1028 402 1028 402 1245 92 c 1,19,20
 1045 75 1045 75 832 0 c 1,21,-1
 823 6 l 1,22,23
 788 278 788 278 676 504 c 1,24,25
 646 475 646 475 623 446 c 1,26,27
 592 269 592 269 573 92 c 1,28,29
 373 75 373 75 160 0 c 1,0,-1
EndSplineSet
Validated: 1
EndChar

StartChar: l
Encoding: 108 108 61
Width: 705
GlyphClass: 2
Flags: W
HStem: 0 21G<151 266.5> 1490 20G<787 902>
LayerCount: 2
Fore
SplineSet
160 0 m 1,0,-1
 151 6 l 1,1,2
 282 376 282 376 363 730 c 0,3,4
 439 1063 439 1063 480 1418 c 1,5,6
 680 1435 680 1435 894 1510 c 1,7,-1
 902 1504 l 1,8,9
 778 1157 778 1157 691 782 c 0,10,11
 610 433 610 433 573 92 c 1,12,13
 373 75 373 75 160 0 c 1,0,-1
EndSplineSet
Validated: 1
EndChar

StartChar: m
Encoding: 109 109 62
Width: 2068
GlyphClass: 2
Flags: W
HStem: 0 21G<151 266.5 859 974.5 1567 1682.5> 810 320<1515.73 1646.52>
VStem: 1022 335<410.445 731.527> 1729 336<414.33 731.569>
DStem2: 151 6 708 839 0.256154 0.966636<277.848 954.772>
LayerCount: 2
Fore
SplineSet
160 0 m 1,0,-1
 151 6 l 1,1,2
 264 334 264 334 318 565 c 0,3,4
 372 797 372 797 390 1038 c 1,5,6
 590 1055 590 1055 803 1130 c 1,7,-1
 811 1124 l 1,8,-1
 794 1080 l 1,9,10
 861 1109 861 1109 933 1130 c 1,11,-1
 943 1130 l 1,12,13
 1148 1070 1148 1070 1246 964 c 0,14,15
 1258 951 1258 951 1269 937 c 1,16,17
 1434 1070 1434 1070 1641 1130 c 1,18,-1
 1651 1130 l 1,19,20
 1853 1071 1853 1071 1954 964 c 0,21,22
 2065 847 2065 847 2065 687 c 0,23,24
 2065 628 2065 628 2050 562 c 0,25,26
 2001 361 2001 361 1989 92 c 1,27,28
 1789 75 1789 75 1576 0 c 1,29,-1
 1567 6 l 1,30,31
 1688 359 1688 359 1716 484 c 0,32,33
 1729 543 1729 543 1729 591 c 0,34,35
 1729 696 1729 696 1663.5 753 c 128,-1,36
 1598 810 1598 810 1494 810 c 0,37,38
 1419 810 1419 810 1344 790 c 1,39,40
 1357 740 1357 740 1357 685 c 0,41,42
 1357 626 1357 626 1342 562 c 0,43,44
 1293 352 1293 352 1281 92 c 1,45,46
 1081 75 1081 75 868 0 c 1,47,-1
 859 6 l 1,48,49
 972 332 972 332 1008 484 c 0,50,51
 1022 543 1022 543 1022 592 c 0,52,53
 1022 699 1022 699 956 753 c 0,54,55
 867 828 867 828 708 839 c 1,56,57
 672 728 672 728 649 627 c 0,58,59
 585 346 585 346 573 92 c 1,60,61
 373 75 373 75 160 0 c 1,0,-1
EndSplineSet
Validated: 1
EndChar

StartChar: n
Encoding: 110 110 63
Width: 1360
GlyphClass: 2
Flags: W
HStem: 0 21G<151 266.5 859 974.5> 1110 20G<696.5 811 897 1044>
VStem: 1022 335<415.424 731.018>
DStem2: 151 6 708 839 0.256154 0.966636<277.848 954.772>
LayerCount: 2
Fore
SplineSet
160 0 m 1,0,-1
 151 6 l 1,1,2
 264 334 264 334 318 565 c 0,3,4
 372 797 372 797 390 1038 c 1,5,6
 590 1055 590 1055 803 1130 c 1,7,-1
 811 1124 l 1,8,-1
 794 1080 l 1,9,10
 861 1109 861 1109 933 1130 c 1,11,-1
 943 1130 l 1,12,13
 1145 1071 1145 1071 1246 964 c 0,14,15
 1357 847 1357 847 1357 687 c 0,16,17
 1357 628 1357 628 1342 562 c 0,18,19
 1293 361 1293 361 1281 92 c 1,20,21
 1081 75 1081 75 868 0 c 1,22,-1
 859 6 l 1,23,24
 972 332 972 332 1008 484 c 0,25,26
 1022 543 1022 543 1022 592 c 0,27,28
 1022 699 1022 699 956 753 c 0,29,30
 867 828 867 828 708 839 c 1,31,32
 672 728 672 728 649 627 c 0,33,34
 585 346 585 346 573 92 c 1,35,36
 373 75 373 75 160 0 c 1,0,-1
EndSplineSet
Validated: 1
EndChar

StartChar: o
Encoding: 111 111 64
Width: 1229
GlyphClass: 2
Flags: W
HStem: 0 21G<528.5 747.5> 1110 20G<738.5 961>
VStem: 215 314<432.423 657.863> 965 309<470.359 696.786>
LayerCount: 2
Fore
SplineSet
625 839 m 1,0,1
 558 731 558 731 538 646 c 0,2,3
 529 608 529 608 529 573 c 0,4,5
 529 460 529 460 622 377 c 0,6,7
 706 302 706 302 870 291 c 1,8,9
 938 399 938 399 957 484 c 0,10,11
 965 520 965 520 965 554 c 0,12,13
 965 667 965 667 873 753 c 0,14,15
 794 826 794 826 625 839 c 1,0,1
639 0 m 9,16,-1
 629 0 l 17,17,18
 428 59 428 59 326 166 c 0,19,20
 215 283 215 283 215 443 c 0,21,22
 215 504 215 504 231 569 c 0,23,24
 278 767 278 767 450 914 c 24,25,26
 627 1065 627 1065 850 1130 c 9,27,-1
 860 1130 l 17,28,29
 1062 1071 1062 1071 1163 964 c 16,30,31
 1274 847 1274 847 1274 687 c 0,32,33
 1274 628 1274 628 1259 562 c 0,34,35
 1210 359 1210 359 1039 216 c 0,36,37
 856 63 856 63 639 0 c 9,16,-1
EndSplineSet
Validated: 1
EndChar

StartChar: p
Encoding: 112 112 65
Width: 1330
GlyphClass: 2
Flags: W
HStem: -380 21G<64 179> 0 21G<667 853.5> 1110 20G<699.5 814 912 1064>
VStem: 1062 313<469.963 697.077>
LayerCount: 2
Fore
SplineSet
741 0 m 1,0,-1
 731 0 l 1,1,2
 603 48 603 48 554 146 c 1,3,4
 522 -35 522 -35 486 -288 c 1,5,6
 286 -305 286 -305 72 -380 c 1,7,-1
 64 -374 l 1,8,9
 185 -33 185 -33 275 348 c 0,10,11
 356 690 356 690 393 1038 c 1,12,13
 593 1055 593 1055 806 1130 c 1,14,-1
 814 1124 l 1,15,-1
 796 1071 l 1,16,17
 872 1107 872 1107 952 1130 c 1,18,-1
 962 1130 l 1,19,20
 1166 1070 1166 1070 1265 964 c 0,21,22
 1375 846 1375 846 1375 686 c 0,23,24
 1375 626 1375 626 1360 561 c 0,25,26
 1315 366 1315 366 1141 216 c 0,27,28
 966 65 966 65 741 0 c 1,0,-1
721 839 m 1,29,30
 672 680 672 680 632 518 c 1,31,32
 649 440 649 440 718 377 c 0,33,34
 798 304 798 304 966 291 c 1,35,36
 1033 399 1033 399 1053 484 c 0,37,38
 1062 522 1062 522 1062 557 c 0,39,40
 1062 670 1062 670 969 753 c 0,41,42
 885 828 885 828 721 839 c 1,29,30
EndSplineSet
Validated: 1
EndChar

StartChar: q
Encoding: 113 113 66
Width: 1320
GlyphClass: 2
Flags: W
HStem: -380 21G<682 797> 0 21G<529 688.5> 1110 20G<742 963>
VStem: 216 309<433.859 659.39> 938 336<435.178 725.591>
LayerCount: 2
Fore
SplineSet
640 0 m 1,0,-1
 630 0 l 1,1,2
 428 59 428 59 327 166 c 0,3,4
 216 283 216 283 216 443 c 0,5,6
 216 503 216 503 231 568 c 0,7,8
 280 770 280 770 451 914 c 0,9,10
 633 1067 633 1067 851 1130 c 1,11,-1
 861 1130 l 1,12,13
 1065 1070 1065 1070 1164 964 c 0,14,15
 1274 846 1274 846 1274 685 c 0,16,17
 1274 626 1274 626 1259 561 c 9,18,-1
 1221 400 l 17,19,20
 1144 67 1144 67 1104 -288 c 1,21,22
 904 -305 904 -305 690 -380 c 1,23,-1
 682 -374 l 1,24,25
 766 -142 766 -142 826 73 c 1,26,27
 737 28 737 28 640 0 c 1,0,-1
620 839 m 1,28,29
 552 730 552 730 533 646 c 0,30,31
 525 610 525 610 525 576 c 0,32,33
 525 466 525 466 617 377 c 0,34,35
 688 310 688 310 881 287 c 1,36,37
 900 378 900 378 925 484 c 0,38,39
 938 538 938 538 938 584 c 0,40,41
 938 693 938 693 868 753 c 0,42,43
 783 828 783 828 620 839 c 1,28,29
EndSplineSet
Validated: 1
EndChar

StartChar: r
Encoding: 114 114 67
Width: 1208
GlyphClass: 2
Flags: W
HStem: 0 21G<151 266.5> 1110 20G<696.5 811 897 1043>
DStem2: 151 6 708 839 0.256154 0.966636<277.848 954.827>
LayerCount: 2
Fore
SplineSet
160 0 m 1,0,-1
 151 6 l 1,1,2
 264 334 264 334 318 565 c 0,3,4
 372 797 372 797 390 1038 c 1,5,6
 590 1055 590 1055 803 1130 c 1,7,-1
 811 1124 l 1,8,-1
 794 1080 l 1,9,10
 861 1109 861 1109 933 1130 c 1,11,-1
 943 1130 l 1,12,13
 1143 1071 1143 1071 1246 964 c 0,14,15
 1344 862 1344 862 1355 723 c 9,16,-1
 1021 614 l 17,17,18
 1014 703 1014 703 956 753 c 0,19,20
 869 828 869 828 708 839 c 1,21,22
 672 728 672 728 649 627 c 0,23,24
 585 346 585 346 573 92 c 1,25,26
 373 75 373 75 160 0 c 1,0,-1
EndSplineSet
Validated: 1
EndChar

StartChar: s
Encoding: 115 115 68
Width: 1144
GlyphClass: 2
Flags: W
HStem: 0 21G<478.5 706.5> 1110 20G<676 920.5>
VStem: 288 354<647 859.701> 806 342<326.203 552.5>
LayerCount: 2
Fore
SplineSet
589 0 m 1,0,-1
 579 0 l 1,1,2
 378 57 378 57 276 166 c 0,3,4
 204 243 204 243 179 341 c 1,5,-1
 485 447 l 1,6,7
 510 379 510 379 563 337 c 0,8,9
 656 263 656 263 771 251 c 1,10,11
 787 274 787 274 800 328 c 0,12,13
 806 353 806 353 806 374 c 0,14,15
 806 446 806 446 738 463 c 2,16,-1
 506 520 l 2,17,18
 288 574 288 574 288 720 c 0,19,20
 288 743 288 743 294 769 c 0,21,22
 314 856 314 856 380 914 c 0,23,24
 552 1065 552 1065 800 1130 c 1,25,-1
 810 1130 l 1,26,27
 1031 1073 1031 1073 1133 964 c 0,28,29
 1161 934 1161 934 1180 905 c 1,30,-1
 891 763 l 1,31,32
 883 779 883 779 866 797 c 0,33,34
 782 886 782 886 655 922 c 1,35,36
 642 867 642 867 642 828 c 0,37,38
 642 746 642 746 698 733 c 2,39,-1
 927 680 l 2,40,41
 1148 629 1148 629 1148 476 c 0,42,43
 1148 449 1148 449 1141 419 c 0,44,45
 1115 306 1115 306 1009 216 c 0,46,47
 824 59 824 59 589 0 c 1,0,-1
EndSplineSet
Validated: 1
EndChar

StartChar: t
Encoding: 116 116 69
Width: 929
GlyphClass: 2
Flags: W
HStem: 0 21G<263 378.5> 803 327<320.711 494.436 887.593 1054.3> 1490 20G<899 1014>
DStem2: 306.466 0 622.461 0 0.224951 0.97437<227.524 862.756>
LayerCount: 2
Fore
SplineSet
272 0 m 1,0,-1
 263 6 l 1,1,2
 403 402 403 402 475 730 c 0,3,4
 487 785 487 785 499 841 c 1,5,6
 353 831 353 831 201 803 c 1,7,-1
 198 813 l 1,8,9
 266 940 266 940 336 1130 c 1,10,11
 439 1106 439 1106 547 1095 c 1,12,13
 574 1254 574 1254 592 1418 c 1,14,15
 792 1435 792 1435 1006 1510 c 1,16,-1
 1014 1504 l 1,17,18
 943 1302 943 1302 883 1092 c 1,19,20
 1030 1102 1030 1102 1174 1130 c 1,21,-1
 1178 1120 l 1,22,23
 1109 993 1109 993 1039 803 c 1,24,25
 929 828 929 828 815 838 c 1,26,27
 803 782 803 782 803 782 c 0,28,29
 721 429 721 429 685 92 c 1,30,31
 485 75 485 75 272 0 c 1,0,-1
EndSplineSet
Validated: 1
EndChar

StartChar: u
Encoding: 117 117 70
Width: 1360
GlyphClass: 2
Flags: W
HStem: 0 21G<577 724 809 924.5> 1110 20G<646.5 761 1354.5 1470>
VStem: 264 335<399.134 714.35>
LayerCount: 2
Fore
SplineSet
688 0 m 1,0,-1
 678 0 l 1,1,2
 476 59 476 59 375 166 c 0,3,4
 264 283 264 283 264 443 c 0,5,6
 264 502 264 502 279 568 c 0,7,8
 328 768 328 768 340 1038 c 1,9,10
 540 1055 540 1055 753 1130 c 1,11,-1
 761 1124 l 1,12,13
 649 798 649 798 613 646 c 0,14,15
 599 587 599 587 599 538 c 0,16,17
 599 432 599 432 665 377 c 0,18,19
 754 302 754 302 913 291 c 1,20,21
 949 403 949 403 972 503 c 0,22,23
 1036 786 1036 786 1048 1038 c 1,24,25
 1248 1055 1248 1055 1461 1130 c 1,26,-1
 1470 1124 l 1,27,28
 1351 779 1351 779 1302 565 c 0,29,30
 1249 333 1249 333 1231 92 c 1,31,32
 1031 75 1031 75 818 0 c 1,33,-1
 809 6 l 1,34,-1
 827 50 l 1,35,36
 760 21 760 21 688 0 c 1,0,-1
EndSplineSet
Validated: 1
EndChar

StartChar: v
Encoding: 118 118 71
Width: 1183
GlyphClass: 2
Flags: W
HStem: 0 21G<394 509.5> 1110 20G<551.5 666 1335.5 1438>
VStem: 397 240<498.259 629.074>
LayerCount: 2
Fore
SplineSet
403 0 m 1,0,-1
 394 6 l 1,1,2
 397 73 397 73 397 138 c 0,3,4
 397 614 397 614 245 1038 c 1,5,6
 445 1055 445 1055 658 1130 c 1,7,-1
 666 1124 l 1,8,9
 637 954 637 954 637 810 c 0,10,11
 637 580 637 580 712 419 c 1,12,13
 947 702 947 702 1057 1042 c 1,14,15
 1242 1064 1242 1064 1429 1130 c 1,16,-1
 1438 1124 l 1,17,18
 1023 632 1023 632 816 92 c 1,19,20
 616 75 616 75 403 0 c 1,0,-1
EndSplineSet
Validated: 1
EndChar

StartChar: w
Encoding: 119 119 72
Width: 2068
GlyphClass: 2
Flags: W
HStem: 0 320<682.312 813.273> 1110 20G<646.5 761 1354.5 1470 2062.5 2178>
VStem: 264 335<399.286 713.379> 972 335<398.873 715.478>
LayerCount: 2
Fore
SplineSet
688 0 m 1,0,-1
 678 0 l 1,1,2
 476 59 476 59 375 166 c 0,3,4
 264 283 264 283 264 443 c 0,5,6
 264 502 264 502 279 568 c 0,7,8
 328 768 328 768 340 1038 c 1,9,10
 540 1055 540 1055 753 1130 c 1,11,-1
 761 1124 l 1,12,13
 648 792 648 792 613 646 c 0,14,15
 599 587 599 587 599 538 c 0,16,17
 599 433 599 433 665 377 c 0,18,19
 732 320 732 320 835 320 c 0,20,21
 910 320 910 320 984 340 c 1,22,23
 972 389 972 389 972 443 c 0,24,25
 972 501 972 501 987 568 c 0,26,27
 1036 773 1036 773 1048 1038 c 1,28,29
 1248 1055 1248 1055 1461 1130 c 1,30,-1
 1470 1124 l 1,31,32
 1357 798 1357 798 1321 646 c 0,33,34
 1307 587 1307 587 1307 538 c 0,35,36
 1307 432 1307 432 1373 377 c 0,37,38
 1462 302 1462 302 1621 291 c 1,39,40
 1657 403 1657 403 1680 503 c 0,41,42
 1744 786 1744 786 1756 1038 c 1,43,44
 1956 1055 1956 1055 2169 1130 c 1,45,-1
 2178 1124 l 1,46,47
 2059 779 2059 779 2010 565 c 0,48,49
 1957 333 1957 333 1939 92 c 1,50,51
 1739 75 1739 75 1526 0 c 1,52,-1
 1517 6 l 1,53,-1
 1535 50 l 1,54,55
 1468 21 1468 21 1396 0 c 1,56,-1
 1386 0 l 1,57,58
 1181 60 1181 60 1083 166 c 0,59,60
 1071 179 1071 179 1060 193 c 1,61,62
 895 60 895 60 688 0 c 1,0,-1
EndSplineSet
Validated: 1
EndChar

StartChar: x
Encoding: 120 120 73
Width: 1178
GlyphClass: 2
Flags: W
HStem: 0 21G<283.5 373 767 882.5> 1110 20G<556.5 671 1066 1155.5>
LayerCount: 2
Fore
SplineSet
362 0 m 1,0,1
 205 68 205 68 30 88 c 1,2,3
 331 315 331 315 546 534 c 1,4,5
 428 794 428 794 250 1038 c 1,6,7
 450 1055 450 1055 663 1130 c 1,8,-1
 671 1124 l 1,9,10
 713 928 713 928 791 766 c 1,11,12
 947 924 947 924 1066 1124 c 1,13,-1
 1077 1130 l 1,14,15
 1234 1064 1234 1064 1409 1042 c 1,16,17
 1091 804 1091 804 885 605 c 1,18,19
 1012 339 1012 339 1189 92 c 1,20,21
 989 75 989 75 776 0 c 1,22,-1
 767 6 l 1,23,24
 708 238 708 238 637 378 c 1,25,26
 496 222 496 222 373 6 c 1,27,-1
 362 0 l 1,0,1
EndSplineSet
Validated: 1
EndChar

StartChar: y
Encoding: 121 121 74
Width: 1360
GlyphClass: 2
Flags: W
HStem: -380 21G<719 834> 0 21G<577 732.5> 1110 20G<646.5 761 1354.5 1470>
VStem: 264 335<399.134 713.379>
LayerCount: 2
Fore
SplineSet
688 0 m 1,0,-1
 678 0 l 1,1,2
 476 59 476 59 375 166 c 0,3,4
 264 283 264 283 264 443 c 0,5,6
 264 502 264 502 279 568 c 0,7,8
 328 768 328 768 340 1038 c 1,9,10
 540 1055 540 1055 753 1130 c 1,11,-1
 761 1124 l 1,12,13
 648 792 648 792 613 646 c 0,14,15
 599 587 599 587 599 538 c 0,16,17
 599 432 599 432 665 377 c 0,18,19
 754 302 754 302 913 291 c 1,20,-1
 917 290 l 1,21,22
 920 301 920 301 930 348 c 0,23,24
 1016 739 1016 739 1048 1038 c 1,25,26
 1248 1055 1248 1055 1461 1130 c 1,27,-1
 1470 1124 l 1,28,29
 1340 756 1340 756 1258 400 c 0,30,31
 1182 68 1182 68 1141 -288 c 1,32,33
 941 -305 941 -305 727 -380 c 1,34,-1
 719 -374 l 1,35,36
 795 -159 795 -159 858 65 c 1,37,38
 777 26 777 26 688 0 c 1,0,-1
EndSplineSet
Validated: 1
EndChar

StartChar: z
Encoding: 122 122 75
Width: 1160
GlyphClass: 2
Flags: W
HStem: 0 21G<51 211.5 899.5 1066> 44 242<723 984.231> 844 241<491.95 795> 1110 20G<424 569 1231 1368>
LayerCount: 2
Fore
SplineSet
60 0 m 1,0,-1
 51 6 l 1,1,2
 545 478 545 478 795 844 c 1,3,4
 550 844 550 844 293 728 c 1,5,-1
 289 738 l 1,6,7
 376 870 376 870 472 1130 c 1,8,9
 666 1085 666 1085 912 1085 c 0,10,11
 1103 1085 1103 1085 1359 1130 c 1,12,-1
 1368 1124 l 1,13,14
 855 534 855 534 723 286 c 1,15,16
 902 286 902 286 1197 402 c 1,17,-1
 1200 392 l 1,18,19
 1114 260 1114 260 1018 0 c 1,20,21
 781 44 781 44 583 44 c 0,22,23
 363 44 363 44 60 0 c 1,0,-1
EndSplineSet
Validated: 1
EndChar

StartChar: braceleft
Encoding: 123 123 76
Width: 1212
GlyphClass: 2
Flags: W
VStem: 467 279<278.547 642.962>
LayerCount: 2
Fore
SplineSet
737 -345 m 1,0,-1
 730 -345 l 1,1,2
 551 -192 551 -192 496 34 c 0,3,4
 467 154 467 154 467 299 c 0,5,6
 467 463 467 463 502 648 c 1,7,8
 354 635 354 635 196 606 c 1,9,-1
 192 616 l 1,10,11
 285 767 285 767 351 948 c 1,12,13
 456 924 456 924 562 910 c 1,14,15
 667 1280 667 1280 855 1555 c 0,16,17
 1032 1813 1032 1813 1220 1927 c 1,18,-1
 1227 1927 l 1,19,20
 1427 1806 1427 1806 1478 1599 c 1,21,-1
 1201 1304 l 1,22,23
 1156 1476 1156 1476 1041 1572 c 1,24,25
 884 1359 884 1359 789 946 c 0,26,27
 746 758 746 758 746 591 c 0,28,29
 746 457 746 457 775 332 c 0,30,31
 817 159 817 159 917 95 c 1,32,33
 931 156 931 156 931 203 c 0,34,35
 931 216 931 216 930 228 c 0,36,37
 924 296 924 296 902 366 c 1,38,-1
 1202 172 l 1,39,40
 1140 73 1140 73 1103 25 c 0,41,42
 884 -257 884 -257 737 -345 c 1,0,-1
EndSplineSet
Validated: 1
EndChar

StartChar: bar
Encoding: 124 124 77
Width: 768
GlyphClass: 2
Flags: W
LayerCount: 2
Fore
SplineSet
175 -150 m 1,0,-1
 167 -144 l 1,1,2
 310 275 310 275 415 730 c 0,3,4
 518 1178 518 1178 569 1572 c 1,5,6
 754 1594 754 1594 941 1660 c 1,7,-1
 950 1654 l 1,8,9
 806 1234 806 1234 702 780 c 0,10,11
 600 336 600 336 548 -62 c 1,12,13
 363 -84 363 -84 175 -150 c 1,0,-1
EndSplineSet
Validated: 1
EndChar

StartChar: braceright
Encoding: 125 125 78
Width: 1212
GlyphClass: 2
Flags: W
VStem: 832 278<937.861 1304.81>
LayerCount: 2
Fore
SplineSet
357 -345 m 1,0,-1
 350 -345 l 1,1,2
 150 -224 150 -224 99 -17 c 1,3,-1
 376 278 l 1,4,5
 421 106 421 106 536 10 c 1,6,7
 692 221 692 221 788 636 c 0,8,9
 832 827 832 827 832 994 c 0,10,11
 832 1131 832 1131 803 1250 c 0,12,13
 763 1422 763 1422 660 1487 c 1,14,15
 647 1429 647 1429 647 1379 c 0,16,17
 647 1365 647 1365 648 1354 c 0,18,19
 655 1277 655 1277 675 1216 c 1,20,-1
 376 1410 l 1,21,22
 438 1511 438 1511 474 1557 c 0,23,24
 698 1842 698 1842 840 1927 c 1,25,-1
 847 1927 l 1,26,27
 1027 1774 1027 1774 1081 1548 c 0,28,29
 1110 1427 1110 1427 1110 1281 c 0,30,31
 1110 1121 1110 1121 1076 934 c 1,32,33
 1224 947 1224 947 1381 976 c 1,34,-1
 1385 966 l 1,35,36
 1292 815 1292 815 1226 634 c 1,37,38
 1121 658 1121 658 1015 672 c 1,39,40
 911 302 911 302 722 27 c 0,41,42
 546 -230 546 -230 357 -345 c 1,0,-1
EndSplineSet
Validated: 1
EndChar

StartChar: asciitilde
Encoding: 126 126 79
Width: 1383
GlyphClass: 2
Flags: W
HStem: 538 316<913.733 1222.17> 703 316<519.831 829.162>
LayerCount: 2
Fore
SplineSet
280 538 m 1,0,-1
 277 548 l 1,1,2
 363 680 363 680 459 940 c 1,3,4
 580 1019 580 1019 696 1019 c 0,5,6
 826 1019 826 1019 916 893 c 0,7,8
 944 854 944 854 1007 854 c 0,9,10
 1237 854 1237 854 1462 1019 c 1,11,-1
 1466 1009 l 1,12,13
 1379 877 1379 877 1283 617 c 1,14,15
 1162 538 1162 538 1046 538 c 0,16,17
 913 538 913 538 826 664 c 0,18,19
 799 703 799 703 735 703 c 0,20,21
 505 703 505 703 280 538 c 1,0,-1
EndSplineSet
Validated: 1
EndChar

StartChar: exclamdown
Encoding: 161 161 81
Width: 742
GlyphClass: 2
Flags: W
HStem: 0 21G<171 286.5> 1490 20G<804 919>
LayerCount: 2
Fore
SplineSet
911 1510 m 1,0,-1
 919 1504 l 1,1,2
 876 1400 876 1400 858 1318 c 0,3,4
 839 1233 839 1233 834 1134 c 1,5,6
 634 1117 634 1117 421 1042 c 1,7,-1
 412 1048 l 1,8,9
 453 1161 453 1161 474 1246 c 0,10,11
 492 1320 492 1320 497 1418 c 1,12,13
 697 1435 697 1435 911 1510 c 1,0,-1
180 0 m 1,14,-1
 171 6 l 1,15,16
 332 388 332 388 391 642 c 0,17,18
 432 818 432 818 437 938 c 1,19,20
 576 959 576 959 747 1018 c 1,21,-1
 756 1012 l 1,22,23
 701 873 701 873 659 693 c 0,24,25
 599 436 599 436 593 92 c 1,26,27
 393 75 393 75 180 0 c 1,14,-1
EndSplineSet
Validated: 1
EndChar

StartChar: sterling
Encoding: 163 163 82
Width: 1333
GlyphClass: 2
Flags: W
HStem: 0 21G<215 332.5 1068.5 1189> 45 241<671.688 1125.91> 509 327<771.404 1047.09> 551 243<765 1026.97> 1490 20G<1023 1257.5>
LayerCount: 2
Fore
SplineSet
224 0 m 1,0,-1
 215 6 l 1,1,2
 329 292 329 292 378 503 c 2,3,-1
 386 535 l 1,4,5
 307 525 307 525 224 509 c 1,6,-1
 220 519 l 1,7,8
 288 646 288 646 358 836 c 1,9,10
 398 827 398 827 438 819 c 1,11,12
 444 869 444 869 446 909 c 1,13,14
 505 1101 505 1101 733 1294 c 0,15,16
 913 1446 913 1446 1133 1510 c 1,17,-1
 1143 1510 l 1,18,19
 1372 1444 1372 1444 1477 1307 c 1,20,-1
 1189 1097 l 1,21,22
 1120 1195 1120 1195 934 1217 c 1,23,24
 871 1106 871 1106 830 998 c 0,25,26
 798 914 798 914 765 794 c 1,27,28
 970 798 970 798 1166 836 c 1,29,-1
 1170 826 l 1,30,31
 1101 699 1101 699 1032 509 c 1,32,33
 871 545 871 545 705 551 c 1,34,35
 678 412 678 412 663 296 c 1,36,37
 732 286 732 286 853 286 c 0,38,39
 1062 286 1062 286 1320 402 c 1,40,-1
 1324 392 l 1,41,42
 1237 260 1237 260 1141 0 c 1,43,44
 996 45 996 45 802 45 c 0,45,46
 441 45 441 45 224 0 c 1,0,-1
EndSplineSet
Validated: 1
EndChar

StartChar: currency
Encoding: 164 164 83
Width: 1548
GlyphClass: 2
Flags: W
HStem: 302 320<856.924 1017.84> 918 322<898.948 1057.4>
VStem: 434 305<643.5 869.245> 1180 302<676.219 857>
LayerCount: 2
Fore
SplineSet
808 918 m 1,0,1
 754 861 754 861 742 814 c 0,2,3
 739 802 739 802 739 790 c 0,4,5
 739 717 739 717 854 668 c 0,6,7
 947 628 947 628 1112 622 c 1,8,9
 1170 683 1170 683 1178 726 c 0,10,11
 1180 737 1180 737 1180 747 c 0,12,13
 1180 816 1180 816 1065 871 c 0,14,15
 979 911 979 911 808 918 c 1,0,1
237 363 m 1,16,-1
 237 375 l 1,17,18
 359 445 359 445 478 527 c 1,19,20
 434 600 434 600 434 687 c 0,21,22
 434 729 434 729 444 774 c 0,23,24
 472 899 472 899 581 1003 c 1,25,26
 503 1078 503 1078 415 1149 c 1,27,-1
 421 1160 l 1,28,29
 584 1226 584 1226 755 1337 c 1,30,31
 790 1249 790 1249 834 1169 c 1,32,33
 931 1213 931 1213 1040 1240 c 1,34,-1
 1050 1240 l 1,35,36
 1169 1211 1169 1211 1254 1169 c 1,37,38
 1334 1249 1334 1249 1411 1337 c 1,39,40
 1530 1226 1530 1226 1663 1160 c 1,41,-1
 1663 1149 l 1,42,43
 1548 1081 1548 1081 1440 1009 c 1,44,45
 1482 940 1482 940 1482 857 c 0,46,47
 1482 814 1482 814 1471 768 c 0,48,49
 1438 629 1438 629 1318 522 c 1,50,51
 1397 443 1397 443 1485 375 c 1,52,-1
 1479 363 l 1,53,54
 1316 298 1316 298 1145 187 c 1,55,56
 1109 277 1109 277 1060 364 c 1,57,58
 971 325 971 325 874 302 c 1,59,-1
 864 302 l 1,60,61
 746 330 746 330 662 371 c 1,62,63
 570 281 570 281 489 187 c 1,64,65
 370 298 370 298 237 363 c 1,16,-1
EndSplineSet
Validated: 1
EndChar

StartChar: yen
Encoding: 165 165 84
Width: 1453
GlyphClass: 2
Flags: W
HStem: 0 21G<543 658.5> 249 342<373.312 572.526 1078.58 1272.92> 1490 20G<684 799 1648 1750>
LayerCount: 2
Fore
SplineSet
552 0 m 1,0,-1
 543 6 l 1,1,2
 598 162 598 162 640 298 c 1,3,4
 445 288 445 288 235 249 c 1,5,-1
 232 259 l 1,6,7
 325 410 325 410 390 591 c 1,8,9
 518 562 518 562 645 549 c 1,10,-1
 608 705 l 1,11,12
 474 691 474 691 332 665 c 1,13,-1
 328 675 l 1,14,15
 421 826 421 826 486 1007 c 1,16,-1
 525 998 l 1,17,18
 461 1207 461 1207 377 1418 c 1,19,20
 577 1435 577 1435 791 1510 c 1,21,-1
 799 1504 l 1,22,23
 825 1190 825 1190 875 955 c 1,24,25
 912 954 912 954 948 954 c 0,26,27
 1029 954 1029 954 1110 958 c 1,28,29
 1250 1173 1250 1173 1369 1422 c 1,30,31
 1554 1444 1554 1444 1742 1510 c 1,32,-1
 1750 1504 l 1,33,34
 1512 1214 1512 1214 1343 980 c 1,35,36
 1426 991 1426 991 1507 1007 c 1,37,-1
 1511 997 l 1,38,39
 1418 846 1418 846 1353 665 c 1,40,41
 1257 688 1257 688 1154 701 c 1,42,43
 1102 618 1102 618 1062 545 c 1,44,45
 1239 558 1239 558 1411 591 c 1,46,-1
 1415 581 l 1,47,48
 1322 430 1322 430 1256 249 c 1,49,50
 1129 279 1129 279 990 292 c 1,51,52
 975 192 975 192 965 92 c 1,53,54
 765 75 765 75 552 0 c 1,0,-1
EndSplineSet
Validated: 1
EndChar

StartChar: brokenbar
Encoding: 166 166 85
Width: 768
GlyphClass: 2
Flags: W
LayerCount: 2
Fore
SplineSet
175 -150 m 1,0,-1
 167 -144 l 1,1,2
 263 71 263 71 305 255 c 0,3,4
 344 427 344 427 350 622 c 1,5,6
 535 644 535 644 722 710 c 1,7,-1
 731 704 l 1,8,9
 633 484 633 484 592 305 c 0,10,11
 552 131 552 131 548 -62 c 1,12,13
 363 -84 363 -84 175 -150 c 1,0,-1
941 1660 m 1,14,-1
 950 1654 l 1,15,16
 853 1435 853 1435 812 1255 c 0,17,18
 772 1082 772 1082 767 888 c 1,19,20
 582 866 582 866 395 800 c 1,21,-1
 386 806 l 1,22,23
 479 1015 479 1015 524 1205 c 0,24,25
 564 1376 564 1376 569 1572 c 1,26,27
 754 1594 754 1594 941 1660 c 1,14,-1
EndSplineSet
Validated: 1
EndChar

StartChar: section
Encoding: 167 167 86
Width: 1220
GlyphClass: 2
Flags: W
HStem: 0 21G<521 746.5> 1490 20G<822 1045>
VStem: 307 286<574.5 794.844> 440 299<1017 1251> 830 298<259 492.5> 975 286<714.564 935.5>
LayerCount: 2
Fore
SplineSet
635 0 m 1,0,-1
 625 0 l 1,1,2
 417 61 417 61 322 166 c 0,3,4
 294 197 294 197 275 225 c 9,5,-1
 568 387 l 17,6,7
 580 367 580 367 593 353 c 0,8,9
 681 263 681 263 825 228 c 1,10,11
 830 250 830 250 830 268 c 0,12,13
 830 343 830 343 750 367 c 2,14,-1
 508 439 l 2,15,16
 307 499 307 499 307 650 c 0,17,18
 307 679 307 679 314 711 c 0,19,20
 339 827 339 827 446 914 c 9,21,-1
 615 839 l 17,22,23
 597 811 597 811 595 802 c 0,24,25
 593 792 593 792 593 782 c 0,26,27
 593 724 593 724 684 697 c 2,28,-1
 928 625 l 2,29,30
 1128 566 1128 566 1128 419 c 0,31,32
 1128 391 1128 391 1121 361 c 0,33,34
 1100 271 1100 271 1035 216 c 0,35,36
 858 66 858 66 635 0 c 1,0,-1
934 1510 m 1,37,-1
 944 1510 l 1,38,39
 1146 1450 1146 1450 1246 1344 c 0,40,41
 1275 1313 1275 1313 1294 1285 c 9,42,-1
 1000 1123 l 17,43,44
 990 1142 990 1142 975 1157 c 0,45,46
 885 1248 885 1248 744 1282 c 1,47,48
 739 1260 739 1260 739 1242 c 0,49,50
 739 1167 739 1167 819 1143 c 2,51,-1
 1060 1071 l 2,52,53
 1261 1011 1261 1011 1261 860 c 0,54,55
 1261 831 1261 831 1254 799 c 0,56,57
 1229 683 1229 683 1123 596 c 9,58,-1
 954 671 l 17,59,60
 971 696 971 696 973 708 c 0,61,62
 975 718 975 718 975 727 c 0,63,64
 975 787 975 787 885 813 c 2,65,-1
 640 885 l 2,66,67
 440 944 440 944 440 1090 c 0,68,69
 440 1117 440 1117 447 1149 c 0,70,71
 470 1239 470 1239 534 1294 c 0,72,73
 710 1444 710 1444 934 1510 c 1,37,-1
EndSplineSet
Validated: 1
EndChar

StartChar: dieresis
Encoding: 168 168 87
Width: 962
GlyphClass: 2
Flags: W
HStem: 1138 372
LayerCount: 2
Fore
SplineSet
773 1138 m 1,0,1
 809 1210 809 1210 823 1276 c 128,-1,2
 837 1342 837 1342 837 1418 c 1,3,4
 977 1444 977 1444 1151 1510 c 1,5,-1
 1159 1504 l 1,6,7
 1120 1416 1120 1416 1108 1356 c 0,8,9
 1095 1291 1095 1291 1095 1224 c 1,10,11
 944 1196 944 1196 781 1132 c 1,12,-1
 773 1138 l 1,0,1
413 1138 m 1,13,14
 452 1215 452 1215 463 1276 c 0,15,16
 477 1354 477 1354 477 1418 c 1,17,18
 617 1444 617 1444 791 1510 c 1,19,-1
 799 1504 l 1,20,21
 760 1416 760 1416 748 1356 c 0,22,23
 735 1291 735 1291 735 1224 c 1,24,25
 584 1196 584 1196 421 1132 c 1,26,-1
 413 1138 l 1,13,14
EndSplineSet
Validated: 1
EndChar

StartChar: copyright
Encoding: 169 169 88
Width: 1401
GlyphClass: 2
Flags: W
HStem: 187 73<585.016 944.774> 1254 77<797.042 1165.73>
VStem: 307 78<469.61 827.076> 507 241<669.319 851.2> 1367 75<684.422 1054.62>
LayerCount: 2
Fore
SplineSet
805 350 m 1,0,-1
 795 350 l 1,1,2
 673 383 673 383 594 465 c 0,3,4
 507 555 507 555 507 673 c 0,5,6
 507 713 507 713 517 757 c 0,7,8
 551 905 551 905 703 1030 c 0,9,10
 797 1107 797 1107 954 1163 c 1,11,-1
 964 1163 l 1,12,13
 1082 1130 1082 1130 1164 1048 c 0,14,15
 1181 1031 1181 1031 1195 1013 c 1,16,-1
 968 861 l 1,17,18
 955 876 955 876 940 886 c 0,19,20
 887 924 887 924 822 936 c 1,21,22
 770 875 770 875 752 803 c 0,23,24
 748 787 748 787 748 772 c 0,25,26
 748 698 748 698 830 633 c 0,27,28
 880 592 880 592 954 579 c 1,29,30
 972 604 972 604 978 629 c 0,31,32
 981 642 981 642 981 656 c 0,33,34
 981 679 981 679 971 708 c 9,35,-1
 1175 608 l 17,36,37
 1128 540 1128 540 1056 483 c 8,38,39
 955 404 955 404 805 350 c 1,0,-1
1008 1331 m 0,40,41
 1249 1331 1249 1331 1366 1158 c 24,42,43
 1442 1046 1442 1046 1442 898 c 0,44,45
 1442 831 1442 831 1425 754 c 0,46,47
 1365 500 1365 500 1171 350 c 0,48,49
 962 187 962 187 742 187 c 0,50,51
 518 187 518 187 392 350 c 0,52,53
 307 460 307 460 307 610 c 0,54,55
 307 677 307 677 324 754 c 0,56,57
 379 997 379 997 576 1163 c 0,58,59
 775 1331 775 1331 1008 1331 c 0,40,41
989 1254 m 0,60,61
 799 1254 799 1254 624 1113 c 0,62,63
 447 970 447 970 398 754 c 0,64,65
 385 697 385 697 385 643 c 0,66,67
 385 516 385 516 458 406 c 0,68,69
 555 260 555 260 761 260 c 0,70,71
 953 260 953 260 1131 406 c 0,72,73
 1301 545 1301 545 1350 754 c 0,74,75
 1367 826 1367 826 1367 889 c 0,76,77
 1367 1020 1367 1020 1295 1110 c 0,78,79
 1181 1254 1181 1254 989 1254 c 0,60,61
EndSplineSet
Validated: 1
EndChar

StartChar: ordfeminine
Encoding: 170 170 89
Width: 1221
GlyphClass: 2
Flags: W
HStem: 385 342<383.078 517.257 940.994 1094.92> 438 236<433.644 1048.41> 697 223<740.433 887.808> 1490 20G<869.5 1011>
VStem: 478 242<930 1046.69> 1009 232<961.018 1199>
LayerCount: 2
Fore
SplineSet
942 1510 m 1,0,-1
 952 1510 l 1,1,2
 1070 1477 1070 1477 1152 1395 c 0,3,4
 1241 1306 1241 1306 1241 1188 c 0,5,6
 1241 1146 1241 1146 1230 1103 c 0,7,8
 1199 970 1199 970 1194 781 c 1,9,10
 1039 759 1039 759 879 692 c 1,11,-1
 870 698 l 1,12,13
 880 720 880 720 889 742 c 1,14,15
 851 720 851 720 793 697 c 1,16,-1
 783 697 l 1,17,18
 677 713 677 713 583 775 c 0,19,20
 478 844 478 844 478 930 c 0,21,22
 478 947 478 947 482 964 c 0,23,24
 526 1153 526 1153 834 1153 c 1,25,26
 735 1097 735 1097 722 1031 c 0,27,28
 720 1021 720 1021 720 1012 c 0,29,30
 720 960 720 960 793 932 c 0,31,32
 825 920 825 920 870 920 c 0,33,34
 904 920 904 920 942 926 c 1,35,36
 986 979 986 979 1004 1054 c 0,37,38
 1009 1075 1009 1075 1009 1095 c 0,39,40
 1009 1175 1009 1175 928 1233 c 0,41,42
 829 1304 829 1304 639 1317 c 1,43,44
 797 1461 797 1461 942 1510 c 1,0,-1
245 385 m 1,45,-1
 241 395 l 1,46,47
 334 546 334 546 400 727 c 1,48,49
 578 674 578 674 768 674 c 0,50,51
 980 674 980 674 1233 727 c 1,52,-1
 1237 717 l 1,53,54
 1144 566 1144 566 1078 385 c 1,55,56
 889 438 889 438 691 438 c 0,57,58
 469 438 469 438 245 385 c 1,45,-1
EndSplineSet
Validated: 1
EndChar

StartChar: guillemotleft
Encoding: 171 171 90
Width: 1830
GlyphClass: 2
Flags: W
LayerCount: 2
Fore
SplineSet
1036 587 m 1,0,1
 1156 783 1156 783 1218 979 c 1,2,3
 1542 1084 1542 1084 1938 1362 c 1,4,-1
 1942 1352 l 1,5,6
 1836 1180 1836 1180 1773 1000 c 1,7,8
 1575 940 1575 940 1436 797 c 1,9,10
 1476 651 1476 651 1760 591 c 1,11,-1
 1764 581 l 1,12,13
 1644 385 1644 385 1582 189 c 1,14,15
 1422 444 1422 444 1039 577 c 1,16,-1
 1036 587 l 1,0,1
286 587 m 1,17,18
 406 783 406 783 468 979 c 1,19,20
 792 1084 792 1084 1188 1362 c 1,21,-1
 1192 1352 l 1,22,23
 1086 1180 1086 1180 1023 1000 c 1,24,25
 825 940 825 940 686 797 c 1,26,27
 735 624 735 624 1010 591 c 1,28,-1
 1014 581 l 1,29,30
 894 385 894 385 832 189 c 1,31,32
 654 459 654 459 289 577 c 1,33,-1
 286 587 l 1,17,18
EndSplineSet
Validated: 1
EndChar

StartChar: logicalnot
Encoding: 172 172 91
Width: 1409
GlyphClass: 2
Flags: W
HStem: 659 236<486.95 1063.24>
LayerCount: 2
Fore
SplineSet
296 606 m 1,0,-1
 292 616 l 1,1,2
 385 767 385 767 451 948 c 1,3,4
 681 895 681 895 913 895 c 0,5,6
 1197 895 1197 895 1472 948 c 1,7,-1
 1476 938 l 1,8,9
 1257 603 1257 603 1185 290 c 1,10,11
 1000 268 1000 268 813 202 c 1,12,-1
 804 208 l 1,13,14
 984 441 984 441 1070 648 c 1,15,16
 957 659 957 659 836 659 c 0,17,18
 580 659 580 659 296 606 c 1,0,-1
EndSplineSet
Validated: 1
EndChar

StartChar: uni00AD
Encoding: 173 173 92
Width: 1409
GlyphClass: 2
Flags: W
HStem: 606 342<434.078 630.993 1138.39 1333.92> 659 236<486.95 1282.23>
LayerCount: 2
Fore
SplineSet
296 606 m 1,0,-1
 292 616 l 1,1,2
 385 767 385 767 451 948 c 1,3,4
 681 895 681 895 913 895 c 0,5,6
 1197 895 1197 895 1472 948 c 1,7,-1
 1476 938 l 1,8,9
 1383 787 1383 787 1317 606 c 1,10,11
 1096 659 1096 659 836 659 c 0,12,13
 580 659 580 659 296 606 c 1,0,-1
EndSplineSet
Validated: 1
EndChar

StartChar: registered
Encoding: 174 174 93
Width: 1401
GlyphClass: 2
Flags: W
HStem: 187 73<600.052 919.86> 514 131<789.75 829> 921 238<707.793 982.568> 1254 77<797.79 1165.5>
VStem: 306 80<469.926 827.756> 998 254<744.925 957> 1367 75<685.051 1055.64>
LayerCount: 2
Fore
SplineSet
1167 438 m 1,0,1
 1305 564 1305 564 1350 754 c 0,2,3
 1367 826 1367 826 1367 889 c 0,4,5
 1367 1020 1367 1020 1295 1110 c 0,6,7
 1181 1254 1181 1254 989 1254 c 0,8,9
 800 1254 800 1254 624 1113 c 128,-1,10
 448 972 448 972 398 754 c 0,11,12
 386 702 386 702 386 651 c 0,13,14
 386 526 386 526 458 406 c 0,15,16
 478 373 478 373 493 359 c 1,17,18
 540 505 540 505 561 595 c 0,19,20
 594 735 594 735 600 831 c 1,21,22
 771 840 771 840 860 883 c 1,23,24
 807 737 807 737 789 659 c 1,25,26
 805 645 805 645 823 645 c 0,27,28
 887 645 887 645 951 713 c 0,29,30
 985 749 985 749 995 798 c 0,31,32
 998 813 998 813 998 827 c 0,33,34
 998 856 998 856 982 882 c 8,35,36
 956 921 956 921 868 921 c 0,37,38
 739 921 739 921 545 806 c 1,39,-1
 665 1097 l 1,40,41
 804 1159 804 1159 930 1159 c 0,42,43
 1093 1159 1093 1159 1186 1067 c 0,44,45
 1252 1002 1252 1002 1252 912 c 0,46,47
 1252 883 1252 883 1245 850 c 0,48,49
 1227 763 1227 763 1168 680 c 0,50,51
 1130 626 1130 626 1044 577 c 1,52,53
 1096 492 1096 492 1167 438 c 1,0,1
1008 1331 m 0,54,55
 1248 1331 1248 1331 1366 1158 c 1,56,57
 1442 1042 1442 1042 1442 898 c 0,58,59
 1442 830 1442 830 1425 754 c 0,60,61
 1365 502 1365 502 1171 350 c 0,62,63
 962 187 962 187 742 187 c 0,64,65
 519 187 519 187 392 350 c 0,66,67
 306 460 306 460 306 609 c 0,68,69
 306 678 306 678 324 754 c 0,70,71
 382 1000 382 1000 576 1163 c 0,72,73
 777 1331 777 1331 1008 1331 c 0,54,55
1084 370 m 1,74,75
 994 356 994 356 915 321 c 1,76,77
 883 443 883 443 829 516 c 1,78,-1
 813 514 l 0,79,80
 779 514 779 514 761 522 c 1,81,82
 749 442 749 442 749 373 c 1,83,84
 623 359 623 359 525 333 c 1,85,86
 655 260 655 260 761 260 c 0,87,88
 878 260 878 260 1084 370 c 1,74,75
EndSplineSet
Validated: 1
EndChar

StartChar: macron
Encoding: 175 175 94
Width: 1409
GlyphClass: 2
Flags: W
HStem: 1168 342<564.078 760.364 1262.65 1463.69> 1221 236<616.8 1412.23>
LayerCount: 2
Fore
SplineSet
426 1168 m 1,0,-1
 422 1178 l 1,1,2
 515 1329 515 1329 581 1510 c 1,3,4
 810 1457 810 1457 1042 1457 c 0,5,6
 1326 1457 1326 1457 1602 1510 c 1,7,-1
 1605 1500 l 1,8,9
 1512 1349 1512 1349 1447 1168 c 1,10,11
 1226 1221 1226 1221 966 1221 c 0,12,13
 710 1221 710 1221 426 1168 c 1,0,-1
EndSplineSet
Validated: 1
EndChar

StartChar: degree
Encoding: 176 176 95
Width: 1026
GlyphClass: 2
Flags: W
HStem: 1490 20G<764.5 911>
VStem: 395 242<1016.41 1198.49> 909 232<1010.58 1199.36>
LayerCount: 2
Fore
SplineSet
710 1283 m 1,0,1
 654 1218 654 1218 640 1150 c 0,2,3
 637 1135 637 1135 637 1120 c 0,4,5
 637 1048 637 1048 718 980 c 0,6,7
 768 939 768 939 842 926 c 1,8,9
 885 978 885 978 904 1054 c 0,10,11
 909 1074 909 1074 909 1093 c 0,12,13
 909 1173 909 1173 828 1233 c 0,14,15
 779 1271 779 1271 710 1283 c 1,0,1
852 1510 m 1,16,17
 970 1477 970 1477 1052 1395 c 0,18,19
 1141 1306 1141 1306 1141 1188 c 0,20,21
 1141 1146 1141 1146 1130 1103 c 0,22,23
 1094 949 1094 949 944 830 c 24,24,25
 844 751 844 751 693 697 c 1,26,-1
 683 697 l 1,27,28
 562 730 562 730 482 812 c 0,29,30
 395 901 395 901 395 1020 c 0,31,32
 395 1060 395 1060 405 1104 c 0,33,34
 439 1254 439 1254 591 1377 c 0,35,36
 687 1454 687 1454 842 1510 c 1,37,-1
 852 1510 l 1,16,17
EndSplineSet
Validated: 1
EndChar

StartChar: plusminus
Encoding: 177 177 96
Width: 1409
GlyphClass: 2
Flags: W
HStem: 78 342<312.078 508.993 1016.39 1211.92> 131 236<364.95 1160.23> 784 342<475.078 670.938 1177.51 1374.92> 1490 20G<1132 1223>
LayerCount: 2
Fore
SplineSet
174 78 m 1,0,-1
 170 88 l 1,1,2
 263 239 263 239 329 420 c 1,3,4
 559 367 559 367 791 367 c 0,5,6
 1075 367 1075 367 1350 420 c 1,7,-1
 1354 410 l 1,8,9
 1261 259 1261 259 1195 78 c 1,10,11
 974 131 974 131 714 131 c 0,12,13
 458 131 458 131 174 78 c 1,0,-1
337 784 m 1,14,-1
 333 794 l 1,15,16
 426 945 426 945 492 1126 c 1,17,18
 661 1087 661 1087 831 1077 c 1,19,20
 863 1259 863 1259 864 1428 c 1,21,22
 1049 1452 1049 1452 1215 1510 c 1,23,-1
 1223 1504 l 1,24,25
 1133 1296 1133 1296 1073 1075 c 1,26,27
 1295 1084 1295 1084 1513 1126 c 1,28,-1
 1517 1116 l 1,29,30
 1424 965 1424 965 1358 784 c 1,31,32
 1199 822 1199 822 1018 833 c 1,33,34
 989 660 989 660 987 482 c 1,35,36
 800 458 800 458 636 400 c 1,37,-1
 628 406 l 1,38,39
 721 626 721 626 778 835 c 1,40,41
 566 827 566 827 337 784 c 1,14,-1
EndSplineSet
Validated: 1
EndChar

StartChar: uni00B2
Encoding: 178 178 97
Width: 991
GlyphClass: 2
Flags: W
HStem: 726 201<659.063 941.958> 1490 20G<759.5 861.5>
VStem: 440 211<1161.62 1291.25>
LayerCount: 2
Fore
SplineSet
795 1510 m 1,0,-1
 807 1510 l 1,1,2
 916 1476 916 1476 993 1418 c 0,3,4
 1089 1346 1089 1346 1089 1263 c 0,5,6
 1089 1246 1089 1246 1085 1228 c 0,7,8
 1053 1084 1053 1084 846 1006 c 0,9,-1
 658 939 l 1,10,11
 692 927 692 927 729 927 c 0,12,13
 932 927 932 927 1062 984 c 1,14,-1
 1067 977 l 1,15,16
 996 862 996 862 946 702 c 1,17,18
 817 726 817 726 644 726 c 0,19,20
 492 726 492 726 321 702 c 1,21,-1
 313 708 l 1,22,23
 360 906 360 906 468 995 c 0,24,25
 539 1053 539 1053 726 1131 c 0,26,27
 802 1163 802 1163 810 1205 c 0,28,29
 811 1210 811 1210 811 1215 c 0,30,31
 811 1251 811 1251 743 1278 c 0,32,-1
 700 1296 l 1,33,34
 659 1259 659 1259 652 1225 c 0,35,36
 651 1220 651 1220 651 1216 c 0,37,38
 651 1184 651 1184 706 1168 c 1,39,-1
 499 1099 l 1,40,41
 440 1127 440 1127 440 1188 c 0,42,43
 440 1201 440 1201 445 1225 c 0,44,45
 467 1330 467 1330 594 1409 c 0,46,47
 724 1489 724 1489 795 1510 c 1,0,-1
EndSplineSet
Validated: 1
EndChar

StartChar: uni00B3
Encoding: 179 179 98
Width: 1003
GlyphClass: 2
Flags: W
HStem: 1490 20G<754 849>
VStem: 469 189<1215 1322.19> 802 282<909.088 1046.5>
LayerCount: 2
Fore
SplineSet
795 1510 m 1,0,-1
 808 1510 l 1,1,2
 890 1497 890 1497 946 1465 c 0,3,4
 1058 1402 1058 1402 1058 1323 c 0,5,6
 1058 1310 1058 1310 1055 1297 c 0,7,8
 1035 1212 1035 1212 939 1161 c 1,9,10
 1003 1150 1003 1150 1048 1107 c 0,11,12
 1084 1073 1084 1073 1084 1020 c 0,13,14
 1084 998 1084 998 1078 973 c 0,15,16
 1048 848 1048 848 891 776 c 0,17,18
 766 719 766 719 646 704 c 1,19,-1
 632 704 l 1,20,21
 518 721 518 721 450 779 c 0,22,23
 388 832 388 832 361 914 c 1,24,-1
 583 1028 l 1,25,26
 596 989 596 989 647 955 c 0,27,28
 704 917 704 917 777 907 c 1,29,30
 797 934 797 934 801 955 c 0,31,32
 802 961 802 961 802 966 c 0,33,34
 802 1002 802 1002 752 1017 c 1,35,-1
 583 1068 l 1,36,37
 764 1135 764 1135 788 1231 c 0,38,39
 791 1243 791 1243 791 1253 c 0,40,41
 791 1299 791 1299 736 1311 c 2,42,-1
 674 1325 l 1,43,44
 661 1287 661 1287 659 1276 c 0,45,46
 658 1270 658 1270 658 1265 c 0,47,48
 658 1227 658 1227 736 1218 c 1,49,-1
 523 1139 l 1,50,51
 469 1157 469 1157 469 1215 c 0,52,53
 469 1232 469 1232 474 1254 c 0,54,55
 498 1358 498 1358 619 1434 c 0,56,57
 713 1493 713 1493 795 1510 c 1,0,-1
EndSplineSet
Validated: 1
EndChar

StartChar: acute
Encoding: 180 180 99
Width: 1024
GlyphClass: 2
Flags: W
HStem: 958 552
LayerCount: 2
Fore
SplineSet
827 1510 m 1,0,1
 1005 1435 1005 1435 1197 1418 c 1,2,-1
 1199 1408 l 1,3,4
 871 1208 871 1208 679 958 c 1,5,-1
 668 952 l 1,6,7
 524 1011 524 1011 394 1032 c 1,8,-1
 391 1042 l 1,9,10
 660 1248 660 1248 815 1504 c 1,11,-1
 827 1510 l 1,0,1
EndSplineSet
Validated: 1
EndChar

StartChar: periodcentered
Encoding: 183 183 100
Width: 702
GlyphClass: 2
Flags: W
HStem: 520 518
VStem: 271 519
LayerCount: 2
Fore
SplineSet
782 1038 m 1,0,-1
 790 1032 l 1,1,2
 745 909 745 909 722 809.5 c 128,-1,3
 699 710 699 710 693 612 c 1,4,5
 493 595 493 595 280 520 c 1,6,-1
 271 526 l 1,7,8
 311 622 311 622 338 736 c 0,9,10
 364 847 364 847 368 946 c 1,11,12
 568 963 568 963 782 1038 c 1,0,-1
EndSplineSet
Validated: 1
EndChar

StartChar: cedilla
Encoding: 184 184 101
Width: 795
GlyphClass: 2
Flags: W
HStem: -380 623
VStem: 286 332<-147.448 84.5181>
LayerCount: 2
Fore
SplineSet
46 -380 m 1,0,-1
 38 -374 l 1,1,2
 233 -231 233 -231 275 -56 c 0,3,4
 286 -10 286 -10 286 32 c 0,5,6
 286 148 286 148 206 233 c 1,7,-1
 208 243 l 1,8,9
 618 175 618 175 618 -42 c 0,10,11
 618 -71 618 -71 611 -103 c 0,12,13
 586 -219 586 -219 460 -288 c 1,14,15
 260 -305 260 -305 46 -380 c 1,0,-1
EndSplineSet
Validated: 1
EndChar

StartChar: uni00B9
Encoding: 185 185 102
Width: 833
GlyphClass: 2
Flags: W
HStem: 1490 20G<874 980>
VStem: 599 214<784 1217>
LayerCount: 2
Fore
SplineSet
972 1510 m 1,0,-1
 980 1504 l 1,1,2
 904 1335 904 1335 860.5 1145.5 c 128,-1,3
 817 956 817 956 813 784 c 1,4,5
 637 763 637 763 467 703 c 1,6,-1
 459 709 l 1,7,8
 534 870 534 870 581 1086 c 0,9,10
 597 1159 597 1159 599 1217 c 1,11,12
 529 1154 529 1154 477 1070 c 1,13,14
 438 1165 438 1165 383 1226 c 1,15,16
 504 1305 504 1305 626 1432 c 1,17,18
 776 1443 776 1443 972 1510 c 1,0,-1
EndSplineSet
Validated: 1
EndChar

StartChar: ordmasculine
Encoding: 186 186 103
Width: 1221
GlyphClass: 2
Flags: W
HStem: 385 342<383.078 517.257 940.994 1094.92> 438 236<433.644 1048.41> 1490 20G<863.5 1011>
VStem: 495 242<1016.8 1197.57> 1009 232<1010.58 1199.16>
LayerCount: 2
Fore
SplineSet
245 385 m 1,0,-1
 241 395 l 1,1,2
 334 546 334 546 400 727 c 1,3,4
 578 674 578 674 768 674 c 0,5,6
 980 674 980 674 1233 727 c 1,7,-1
 1237 717 l 1,8,9
 1144 566 1144 566 1078 385 c 1,10,11
 889 438 889 438 691 438 c 0,12,13
 469 438 469 438 245 385 c 1,0,-1
942 926 m 1,14,15
 985 978 985 978 1004 1054 c 0,16,17
 1009 1074 1009 1074 1009 1093 c 0,18,19
 1009 1172 1009 1172 928 1233 c 0,20,21
 879 1271 879 1271 810 1283 c 1,22,23
 753 1216 753 1216 740 1150 c 0,24,25
 737 1135 737 1135 737 1120 c 0,26,27
 737 1049 737 1049 818 980 c 0,28,29
 867 939 867 939 942 926 c 1,14,15
942 1510 m 1,30,-1
 952 1510 l 1,31,32
 1070 1477 1070 1477 1152 1395 c 0,33,34
 1241 1306 1241 1306 1241 1188 c 0,35,36
 1241 1146 1241 1146 1230 1103 c 0,37,38
 1194 949 1194 949 1044 830 c 24,39,40
 944 751 944 751 793 697 c 1,41,-1
 783 697 l 1,42,43
 662 730 662 730 582 812 c 0,44,45
 495 901 495 901 495 1020 c 0,46,47
 495 1060 495 1060 505 1104 c 0,48,49
 539 1252 539 1252 691 1377 c 0,50,51
 785 1454 785 1454 942 1510 c 1,30,-1
EndSplineSet
Validated: 1
EndChar

StartChar: guillemotright
Encoding: 187 187 104
Width: 1830
GlyphClass: 2
Flags: W
LayerCount: 2
Fore
SplineSet
1153 964 m 1,0,1
 1032 768 1032 768 970 572 c 1,2,3
 646 467 646 467 250 189 c 1,4,-1
 246 199 l 1,5,6
 352 371 352 371 415 551 c 1,7,8
 613 611 613 611 752 754 c 1,9,10
 726 900 726 900 428 960 c 1,11,-1
 424 970 l 1,12,13
 544 1166 544 1166 606 1362 c 1,14,15
 804 1080 804 1080 1149 974 c 1,16,-1
 1153 964 l 1,0,1
1903 964 m 1,17,18
 1782 768 1782 768 1720 572 c 1,19,20
 1396 467 1396 467 1000 189 c 1,21,-1
 996 199 l 1,22,23
 1102 371 1102 371 1165 551 c 1,24,25
 1363 611 1363 611 1502 754 c 1,26,27
 1470 894 1470 894 1178 960 c 1,28,-1
 1174 970 l 1,29,30
 1294 1166 1294 1166 1356 1362 c 1,31,32
 1542 1083 1542 1083 1899 974 c 1,33,-1
 1903 964 l 1,17,18
EndSplineSet
Validated: 1
EndChar

StartChar: onequarter
Encoding: 188 188 105
Width: 1674
GlyphClass: 2
Flags: W
HStem: 0 21G<422.5 512 1137 1231> 1490 20G<874 980 1376 1466>
VStem: 599 214<784 1217> 1278 214<81 514>
LayerCount: 2
Fore
SplineSet
972 1510 m 1,0,-1
 980 1504 l 1,1,2
 904 1335 904 1335 860.5 1145.5 c 128,-1,3
 817 956 817 956 813 784 c 1,4,5
 637 763 637 763 467 703 c 1,6,-1
 459 709 l 1,7,8
 534 870 534 870 581 1086 c 0,9,10
 597 1159 597 1159 599 1217 c 1,11,12
 529 1154 529 1154 477 1070 c 1,13,14
 438 1165 438 1165 383 1226 c 1,15,16
 504 1305 504 1305 626 1432 c 1,17,18
 776 1443 776 1443 972 1510 c 1,0,-1
501 0 m 1,19,20
 344 66 344 66 169 88 c 1,21,22
 573 452 573 452 866 804 c 0,23,24
 1112 1099 1112 1099 1376 1504 c 1,25,-1
 1388 1510 l 1,26,27
 1544 1444 1544 1444 1719 1422 c 1,28,29
 1380 1081 1380 1081 1093 749 c 0,30,31
 781 388 781 388 512 6 c 1,32,-1
 501 0 l 1,19,20
1146 0 m 1,33,-1
 1137 6 l 1,34,35
 1169 74 1169 74 1196 157 c 1,36,37
 1049 157 1049 157 931 142 c 1,38,39
 892 237 892 237 837 298 c 1,40,41
 1082 478 1082 478 1304 729 c 1,42,43
 1455 740 1455 740 1650 807 c 1,44,-1
 1659 801 l 1,45,46
 1583 633 1583 633 1539 442 c 0,47,48
 1495 253 1495 253 1492 81 c 1,49,50
 1316 60 1316 60 1146 0 c 1,33,-1
1072 300 m 1,51,52
 1159 305 1159 305 1243 317 c 1,53,54
 1250 341 1250 341 1259 383 c 0,55,56
 1276 460 1276 460 1278 514 c 1,57,58
 1194 432 1194 432 1072 300 c 1,51,52
EndSplineSet
Validated: 1
EndChar

StartChar: onehalf
Encoding: 189 189 106
Width: 1726
GlyphClass: 2
Flags: W
HStem: 0 21G<422.5 512 886 979.5 1454.5 1544> 24 201<1232.06 1514.96> 1490 20G<874 980 1376 1466>
VStem: 599 214<784 1217> 1013 211<459.625 589.247>
LayerCount: 2
Fore
SplineSet
894 0 m 1,0,-1
 886 6 l 1,1,2
 933 204 933 204 1041 293 c 0,3,4
 1112 351 1112 351 1299 429 c 0,5,6
 1375 461 1375 461 1383 503 c 0,7,8
 1384 508 1384 508 1384 513 c 0,9,10
 1384 549 1384 549 1316 576 c 0,11,-1
 1273 594 l 1,12,13
 1232 557 1232 557 1225 523 c 0,14,15
 1224 518 1224 518 1224 514 c 0,16,17
 1224 482 1224 482 1279 466 c 1,18,-1
 1072 397 l 1,19,20
 1013 425 1013 425 1013 486 c 0,21,22
 1013 499 1013 499 1018 523 c 0,23,24
 1040 628 1040 628 1167 707 c 0,25,26
 1297 787 1297 787 1368 808 c 1,27,-1
 1380 808 l 1,28,29
 1489 774 1489 774 1566 716 c 0,30,31
 1662 644 1662 644 1662 561 c 0,32,33
 1662 544 1662 544 1658 526 c 0,34,35
 1626 382 1626 382 1419 304 c 0,36,-1
 1231 237 l 1,37,38
 1265 225 1265 225 1302 225 c 0,39,40
 1505 225 1505 225 1635 282 c 1,41,-1
 1640 275 l 1,42,43
 1569 160 1569 160 1519 0 c 1,44,45
 1390 24 1390 24 1217 24 c 0,46,47
 1065 24 1065 24 894 0 c 1,0,-1
972 1510 m 1,48,-1
 980 1504 l 1,49,50
 904 1335 904 1335 860.5 1145.5 c 128,-1,51
 817 956 817 956 813 784 c 1,52,53
 637 763 637 763 467 703 c 1,54,-1
 459 709 l 1,55,56
 534 870 534 870 581 1086 c 0,57,58
 597 1159 597 1159 599 1217 c 1,59,60
 529 1154 529 1154 477 1070 c 1,61,62
 438 1165 438 1165 383 1226 c 1,63,64
 504 1305 504 1305 626 1432 c 1,65,66
 776 1443 776 1443 972 1510 c 1,48,-1
501 0 m 1,67,68
 344 66 344 66 169 88 c 1,69,70
 573 452 573 452 866 804 c 0,71,72
 1112 1099 1112 1099 1376 1504 c 1,73,-1
 1388 1510 l 1,74,75
 1544 1444 1544 1444 1719 1422 c 1,76,77
 1380 1081 1380 1081 1093 749 c 0,78,79
 781 388 781 388 512 6 c 1,80,-1
 501 0 l 1,67,68
EndSplineSet
Validated: 1
EndChar

StartChar: threequarters
Encoding: 190 190 107
Width: 1914
GlyphClass: 2
Flags: W
HStem: 0 21G<662.5 752 1377 1471> 1490 20G<754 849 1616 1706>
VStem: 469 189<1215 1322.19> 802 282<909.088 1046.5> 1518 214<81 514>
LayerCount: 2
Fore
SplineSet
795 1510 m 1,0,-1
 808 1510 l 1,1,2
 890 1497 890 1497 946 1465 c 0,3,4
 1058 1402 1058 1402 1058 1323 c 0,5,6
 1058 1310 1058 1310 1055 1297 c 0,7,8
 1035 1212 1035 1212 939 1161 c 1,9,10
 1003 1150 1003 1150 1048 1107 c 0,11,12
 1084 1073 1084 1073 1084 1020 c 0,13,14
 1084 998 1084 998 1078 973 c 0,15,16
 1048 848 1048 848 891 776 c 0,17,18
 766 719 766 719 646 704 c 1,19,-1
 632 704 l 1,20,21
 518 721 518 721 450 779 c 0,22,23
 388 832 388 832 361 914 c 1,24,-1
 583 1028 l 1,25,26
 596 989 596 989 647 955 c 0,27,28
 704 917 704 917 777 907 c 1,29,30
 797 934 797 934 801 955 c 0,31,32
 802 961 802 961 802 966 c 0,33,34
 802 1002 802 1002 752 1017 c 1,35,-1
 583 1068 l 1,36,37
 764 1135 764 1135 788 1231 c 0,38,39
 791 1243 791 1243 791 1253 c 0,40,41
 791 1299 791 1299 736 1311 c 2,42,-1
 674 1325 l 1,43,44
 661 1287 661 1287 659 1276 c 0,45,46
 658 1270 658 1270 658 1265 c 0,47,48
 658 1227 658 1227 736 1218 c 1,49,-1
 523 1139 l 1,50,51
 469 1157 469 1157 469 1215 c 0,52,53
 469 1232 469 1232 474 1254 c 0,54,55
 498 1358 498 1358 619 1434 c 0,56,57
 713 1493 713 1493 795 1510 c 1,0,-1
741 0 m 1,58,59
 584 66 584 66 409 88 c 1,60,61
 813 452 813 452 1106 804 c 0,62,63
 1352 1099 1352 1099 1616 1504 c 1,64,-1
 1628 1510 l 1,65,66
 1784 1444 1784 1444 1959 1422 c 1,67,68
 1620 1081 1620 1081 1333 749 c 0,69,70
 1021 388 1021 388 752 6 c 1,71,-1
 741 0 l 1,58,59
1386 0 m 1,72,-1
 1377 6 l 1,73,74
 1409 74 1409 74 1436 157 c 1,75,76
 1289 157 1289 157 1171 142 c 1,77,78
 1132 237 1132 237 1077 298 c 1,79,80
 1322 478 1322 478 1544 729 c 1,81,82
 1695 740 1695 740 1890 807 c 1,83,-1
 1899 801 l 1,84,85
 1823 633 1823 633 1779 442 c 0,86,87
 1735 253 1735 253 1732 81 c 1,88,89
 1556 60 1556 60 1386 0 c 1,72,-1
1312 300 m 1,90,91
 1399 305 1399 305 1483 317 c 1,92,93
 1490 341 1490 341 1499 383 c 0,94,95
 1516 460 1516 460 1518 514 c 1,96,97
 1434 432 1434 432 1312 300 c 1,90,91
EndSplineSet
Validated: 1
EndChar

StartChar: questiondown
Encoding: 191 191 108
Width: 1381
VWidth: 0
GlyphClass: 2
Flags: W
HStem: 0 21G<566.5 852.5> 1490 20G<1124 1239>
VStem: 1078 277<411.718 628.342>
LayerCount: 2
Fore
SplineSet
724 0 m 1,0,-1
 714 0 l 1,1,2
 419 111 419 111 319 256 c 0,3,4
 260 342 260 342 260 439 c 0,5,6
 260 477 260 477 269 516 c 0,7,8
 332 790 332 790 663 910 c 0,9,10
 801 960 801 960 811 976 c 1,11,-1
 1060 1031 l 1,12,13
 1006 794 1006 794 725 662 c 24,14,15
 638 621 638 621 626 554 c 0,16,17
 624 543 624 543 624 533 c 0,18,19
 624 495 624 495 660 453 c 0,20,21
 751 352 751 352 1030 336 c 1,22,23
 1063 375 1063 375 1075 422 c 0,24,25
 1078 434 1078 434 1078 444 c 0,26,27
 1078 536 1078 536 882 573 c 1,28,-1
 1249 757 l 1,29,30
 1355 669 1355 669 1355 565 c 0,31,32
 1355 540 1355 540 1349 513 c 0,33,34
 1317 370 1317 370 1176 249 c 0,35,36
 981 81 981 81 724 0 c 1,0,-1
1231 1510 m 1,37,-1
 1239 1504 l 1,38,39
 1196 1400 1196 1400 1178 1318 c 0,40,41
 1159 1233 1159 1233 1154 1134 c 1,42,43
 954 1117 954 1117 741 1042 c 1,44,-1
 732 1048 l 1,45,46
 773 1161 773 1161 794 1246 c 0,47,48
 812 1320 812 1320 817 1418 c 1,49,50
 1017 1435 1017 1435 1231 1510 c 1,37,-1
EndSplineSet
Validated: 1
EndChar

StartChar: multiply
Encoding: 215 215 109
Width: 1318
GlyphClass: 2
Flags: W
LayerCount: 2
Fore
SplineSet
391 1044 m 1,0,-1
 397 1055 l 1,1,2
 560 1121 560 1121 730 1232 c 1,3,4
 793 1079 793 1079 877 950 c 1,5,6
 1031 1086 1031 1086 1157 1232 c 1,7,8
 1276 1122 1276 1122 1409 1055 c 1,9,-1
 1409 1044 l 1,10,11
 1205 927 1205 927 1008 777 c 1,12,13
 1136 627 1136 627 1286 510 c 1,14,-1
 1280 499 l 1,15,16
 1117 433 1117 433 946 322 c 1,17,18
 888 468 888 468 798 605 c 1,19,20
 654 475 654 475 520 321 c 1,21,22
 400 433 400 433 268 498 c 1,23,-1
 268 509 l 1,24,25
 482 635 482 635 668 777 c 1,26,27
 547 919 547 919 391 1044 c 1,0,-1
EndSplineSet
Validated: 1
EndChar

StartChar: divide
Encoding: 247 247 110
Width: 1409
GlyphClass: 2
Flags: W
HStem: 606 342<434.078 630.993 1138.39 1333.92> 659 236<486.95 1282.23>
LayerCount: 2
Fore
SplineSet
296 606 m 1,0,-1
 292 616 l 1,1,2
 385 767 385 767 451 948 c 1,3,4
 681 895 681 895 913 895 c 0,5,6
 1197 895 1197 895 1472 948 c 1,7,-1
 1476 938 l 1,8,9
 1383 787 1383 787 1317 606 c 1,10,11
 1096 659 1096 659 836 659 c 0,12,13
 580 659 580 659 296 606 c 1,0,-1
542 127 m 1,14,-1
 534 133 l 1,15,16
 578 239 578 239 595 318 c 0,17,18
 614 404 614 404 619 503 c 1,19,20
 819 520 819 520 1032 595 c 1,21,-1
 1041 589 l 1,22,23
 998 472 998 472 979 392 c 0,24,25
 961 317 961 317 956 219 c 1,26,27
 756 202 756 202 542 127 c 1,14,-1
734 958 m 1,28,-1
 726 964 l 1,29,30
 769 1068 769 1068 787 1150 c 0,31,32
 806 1235 806 1235 811 1334 c 1,33,34
 1011 1351 1011 1351 1224 1426 c 1,35,-1
 1233 1420 l 1,36,37
 1188 1299 1188 1299 1170 1222 c 0,38,39
 1153 1148 1153 1148 1147 1050 c 1,40,41
 947 1033 947 1033 734 958 c 1,28,-1
EndSplineSet
Validated: 1
EndChar

StartChar: Delta
Encoding: 916 916 111
Width: 1483
GlyphClass: 2
Flags: W
HStem: 0 21G<6 208 1265.5 1479> 47 194<470.92 1071.4> 1490 20G<1172 1287>
LayerCount: 2
Fore
SplineSet
467 263 m 1,0,1
 592 241 592 241 772 241 c 0,2,3
 929 241 929 241 1076 270 c 1,4,5
 1064 723 1064 723 970 1091 c 1,6,7
 678 708 678 708 467 263 c 1,0,1
11 0 m 1,8,-1
 6 6 l 1,9,10
 526 689 526 689 865 1418 c 1,11,12
 1065 1435 1065 1435 1279 1510 c 1,13,-1
 1287 1504 l 1,14,15
 1339 730 1339 730 1479 6 c 1,16,-1
 1472 0 l 1,17,18
 1059 47 1059 47 710 47 c 0,19,20
 405 47 405 47 11 0 c 1,8,-1
EndSplineSet
Validated: 1
EndChar

StartChar: Pi
Encoding: 928 928 112
Width: 1524
GlyphClass: 2
Flags: W
HStem: 0 21G<181 296.5 940 1055.5> 1219 241<838.001 1239.93> 1490 20G<1527.5 1691>
DStem2: 181 6 835 1210 0.248934 0.96852<258.712 1335.73>
LayerCount: 2
Fore
SplineSet
190 0 m 1,0,-1
 181 6 l 1,1,2
 307 361 307 361 393 733 c 0,3,4
 490 1152 490 1152 531 1507 c 1,5,-1
 542 1513 l 1,6,7
 832 1460 832 1460 1091 1460 c 0,8,9
 1372 1460 1372 1460 1683 1510 c 1,10,-1
 1691 1504 l 1,11,12
 1565 1149 1565 1149 1480 782 c 0,13,14
 1398 432 1398 432 1362 92 c 1,15,16
 1162 75 1162 75 949 0 c 1,17,-1
 940 6 l 1,18,19
 1067 364 1067 364 1152 730 c 0,20,21
 1207 968 1207 968 1243 1211 c 1,22,23
 1145 1219 1145 1219 1030 1219 c 0,24,25
 931 1219 931 1219 835 1210 c 1,26,27
 779 1034 779 1034 721 782 c 0,28,29
 640 433 640 433 603 92 c 1,30,31
 403 75 403 75 190 0 c 1,0,-1
EndSplineSet
Validated: 1
EndChar

StartChar: Sigma
Encoding: 931 931 113
Width: 1420
GlyphClass: 2
Flags: W
HStem: 0 21G<51 225 1090.5 1276> 44 242<752.169 1212.91> 1490 20G<803 918 1518 1610>
LayerCount: 2
Fore
SplineSet
60 0 m 1,0,-1
 51 6 l 1,1,2
 594 480 594 480 779 758 c 1,3,4
 707 1034 707 1034 496 1418 c 1,5,6
 696 1435 696 1435 910 1510 c 1,7,-1
 918 1504 l 1,8,9
 1031 1452 1031 1452 1239 1452 c 0,10,11
 1429 1452 1429 1452 1607 1510 c 1,12,-1
 1610 1500 l 1,13,14
 1524 1368 1524 1368 1428 1108 c 1,15,16
 1218 1121 1218 1121 1113 1184 c 0,17,18
 969 1270 969 1270 892 1428 c 1,19,20
 933 1092 933 1092 1160 762 c 1,21,22
 917 528 917 528 750 296 c 1,23,24
 819 286 819 286 940 286 c 0,25,26
 1149 286 1149 286 1407 402 c 1,27,-1
 1410 392 l 1,28,29
 1324 260 1324 260 1228 0 c 1,30,31
 953 44 953 44 690 44 c 0,32,33
 390 44 390 44 60 0 c 1,0,-1
EndSplineSet
Validated: 1
EndChar

StartChar: Omega
Encoding: 937 937 114
Width: 1594
VWidth: 0
GlyphClass: 2
Flags: W
HStem: 0 21G<57 152 661.5 751.596 903.603 971 1382 1495> 1490 20G<992.5 1263.5>
VStem: 321 339<534.289 844.973> 1283 343<680.074 974.056>
LayerCount: 2
Fore
SplineSet
61 0 m 1,0,1
 57 10 l 1,2,3
 144 142 144 142 240 402 c 1,4,5
 322 298 322 298 467 260 c 1,6,7
 321 408 321 408 321 608 c 0,8,9
 321 676 321 676 339 753 c 0,10,11
 405 1046 405 1046 663 1261 c 24,12,13
 869 1433 869 1433 1116 1510 c 1,14,-1
 1126 1510 l 1,15,16
 1401 1409 1401 1409 1521 1254 c 16,17,18
 1626 1119 1626 1119 1626 935 c 0,19,20
 1626 851 1626 851 1604 759 c 0,21,22
 1545 506 1545 506 1347 310 c 1,23,24
 1489 336 1489 336 1626 402 c 1,25,-1
 1630 392 l 1,26,27
 1543 260 1543 260 1447 0 c 1,28,29
 1317 23 1317 23 1182 23 c 0,30,31
 1043 23 1043 23 899 0 c 1,32,-1
 954 239 l 1,33,34
 1204 388 1204 388 1265 646 c 0,35,36
 1283 722 1283 722 1283 789 c 0,37,38
 1283 942 1283 942 1180 1057 c 0,39,40
 1085 1161 1085 1161 810 1174 c 1,41,42
 713 1028 713 1028 677 864 c 0,43,44
 660 787 660 787 660 721 c 0,45,46
 660 509 660 509 838 396 c 1,47,-1
 747 0 l 1,48,49
 576 26 576 26 409.5 26 c 128,-1,50
 243 26 243 26 61 0 c 1,0,1
EndSplineSet
Validated: 1
EndChar

StartChar: mu
Encoding: 956 956 115
Width: 1413
GlyphClass: 2
Flags: W
HStem: -380 21G<64 179> 0 21G<675 777 862 977.5> 1110 20G<699.5 814 1407.5 1522>
LayerCount: 2
Fore
SplineSet
871 0 m 1,0,-1
 862 6 l 1,1,-1
 880 50 l 1,2,3
 813 21 813 21 741 0 c 1,4,-1
 731 0 l 1,5,6
 619 33 619 33 538 81 c 1,7,8
 505 -106 505 -106 486 -288 c 1,9,10
 286 -305 286 -305 72 -380 c 1,11,-1
 64 -374 l 1,12,13
 193 -8 193 -8 275 350 c 0,14,15
 351 681 351 681 393 1038 c 1,16,17
 593 1055 593 1055 806 1130 c 1,18,-1
 814 1124 l 1,19,20
 702 798 702 798 666 646 c 0,21,22
 652 587 652 587 652 538 c 0,23,24
 652 432 652 432 718 377 c 0,25,26
 807 302 807 302 966 291 c 1,27,28
 1002 405 1002 405 1025 503 c 0,29,30
 1088 771 1088 771 1101 1038 c 1,31,32
 1301 1055 1301 1055 1514 1130 c 1,33,-1
 1522 1124 l 1,34,35
 1409 795 1409 795 1355 565 c 0,36,37
 1301 331 1301 331 1284 92 c 1,38,39
 1084 75 1084 75 871 0 c 1,0,-1
EndSplineSet
Validated: 1
EndChar

StartChar: pi
Encoding: 960 960 116
Width: 1421
GlyphClass: 2
Flags: W
HStem: 0 21G<151 266.5 870 985.5> 838 232<707.062 1080.09> 1110 20G<409 553 1365.5 1530>
DStem2: 151 6 704 818 0.256154 0.966636<269.368 939.276>
LayerCount: 2
Fore
SplineSet
160 0 m 1,0,-1
 151 6 l 1,1,2
 264 334 264 334 318 565 c 0,3,4
 392 883 392 883 409 1124 c 1,5,-1
 421 1130 l 1,6,7
 685 1070 685 1070 947 1070 c 128,-1,8
 1209 1070 1209 1070 1522 1130 c 1,9,-1
 1530 1124 l 1,10,11
 1417 838 1417 838 1368 627 c 0,12,13
 1304 354 1304 354 1292 92 c 1,14,15
 1092 75 1092 75 879 0 c 1,16,-1
 870 6 l 1,17,18
 984 335 984 335 1037 565 c 0,19,20
 1063 677 1063 677 1083 822 c 1,21,22
 990 838 990 838 899 838 c 0,23,24
 802 838 802 838 704 818 c 1,25,26
 666 702 666 702 649 627 c 0,27,28
 585 344 585 344 573 92 c 1,29,30
 373 75 373 75 160 0 c 1,0,-1
EndSplineSet
Validated: 1
EndChar

StartChar: uni2010
Encoding: 8208 8208 117
Width: 1329
GlyphClass: 2
Flags: W
HStem: 606 342<469.078 635.499 1047.81 1218.92> 659 236<521.492 1167.69>
LayerCount: 2
Fore
SplineSet
331 606 m 1,0,-1
 327 616 l 1,1,2
 420 767 420 767 486 948 c 1,3,4
 716 895 716 895 873 895 c 0,5,6
 1082 895 1082 895 1357 948 c 1,7,-1
 1361 938 l 1,8,9
 1268 787 1268 787 1202 606 c 1,10,11
 981 659 981 659 796 659 c 0,12,13
 615 659 615 659 331 606 c 1,0,-1
EndSplineSet
Validated: 1
EndChar

StartChar: uni2011
Encoding: 8209 8209 118
Width: 1329
GlyphClass: 2
Flags: W
HStem: 606 342<469.078 635.499 1047.81 1218.92> 659 236<521.492 1167.69>
LayerCount: 2
Fore
SplineSet
331 606 m 1,0,-1
 327 616 l 1,1,2
 420 767 420 767 486 948 c 1,3,4
 716 895 716 895 873 895 c 0,5,6
 1082 895 1082 895 1357 948 c 1,7,-1
 1361 938 l 1,8,9
 1268 787 1268 787 1202 606 c 1,10,11
 981 659 981 659 796 659 c 0,12,13
 615 659 615 659 331 606 c 1,0,-1
EndSplineSet
Validated: 1
EndChar

StartChar: figuredash
Encoding: 8210 8210 119
Width: 1409
GlyphClass: 2
Flags: W
HStem: 606 342<434.078 630.993 1138.39 1333.92> 659 236<486.95 1282.23>
LayerCount: 2
Fore
SplineSet
296 606 m 1,0,-1
 292 616 l 1,1,2
 385 767 385 767 451 948 c 1,3,4
 681 895 681 895 913 895 c 0,5,6
 1197 895 1197 895 1472 948 c 1,7,-1
 1476 938 l 1,8,9
 1383 787 1383 787 1317 606 c 1,10,11
 1096 659 1096 659 836 659 c 0,12,13
 580 659 580 659 296 606 c 1,0,-1
EndSplineSet
Validated: 1
EndChar

StartChar: endash
Encoding: 8211 8211 120
Width: 1409
GlyphClass: 2
Flags: W
HStem: 606 342<434.078 630.993 1138.39 1333.92> 659 236<486.95 1282.23>
LayerCount: 2
Fore
SplineSet
296 606 m 1,0,-1
 292 616 l 1,1,2
 385 767 385 767 451 948 c 1,3,4
 681 895 681 895 913 895 c 0,5,6
 1197 895 1197 895 1472 948 c 1,7,-1
 1476 938 l 1,8,9
 1383 787 1383 787 1317 606 c 1,10,11
 1096 659 1096 659 836 659 c 0,12,13
 580 659 580 659 296 606 c 1,0,-1
EndSplineSet
Validated: 1
EndChar

StartChar: emdash
Encoding: 8212 8212 121
Width: 1359
GlyphClass: 2
Flags: W
HStem: 606 342<309.078 538.216 1172.02 1408.92> 659 236<362.56 1356.62>
LayerCount: 2
Fore
SplineSet
171 606 m 1,0,-1
 167 616 l 1,1,2
 260 767 260 767 326 948 c 1,3,4
 556 895 556 895 888 895 c 0,5,6
 1272 895 1272 895 1547 948 c 1,7,-1
 1551 938 l 1,8,9
 1458 787 1458 787 1392 606 c 1,10,11
 1171 659 1171 659 811 659 c 0,12,13
 455 659 455 659 171 606 c 1,0,-1
EndSplineSet
Validated: 1
EndChar

StartChar: afii00208
Encoding: 8213 8213 122
Width: 1359
GlyphClass: 2
Flags: W
HStem: 606 342<309.078 538.216 1172.02 1408.92> 659 236<362.56 1356.62>
LayerCount: 2
Fore
SplineSet
171 606 m 1,0,-1
 167 616 l 1,1,2
 260 767 260 767 326 948 c 1,3,4
 556 895 556 895 888 895 c 0,5,6
 1272 895 1272 895 1547 948 c 1,7,-1
 1551 938 l 1,8,9
 1458 787 1458 787 1392 606 c 1,10,11
 1171 659 1171 659 811 659 c 0,12,13
 455 659 455 659 171 606 c 1,0,-1
EndSplineSet
Validated: 1
EndChar

StartChar: underscoredbl
Encoding: 8215 8215 123
Width: 1221
GlyphClass: 2
Flags: W
HStem: -380 146<132.994 513.18 529.599 549.679 566.036 945.823> -353 92<165.312 912.998> -172 146<181.014 561.2 577.619 597.7 614.057 993.845> -145 92<213.332 961.018>
LayerCount: 2
Fore
SplineSet
112.6 -162 m 1,0,1
 172.222 -90 172.222 -90 208.997 -26 c 1,2,3
 346.764 -53 346.764 -53 605.764 -53 c 0,4,5
 871.764 -53 871.764 -53 1059 -26 c 1,6,-1
 1062.69 -36 l 1,7,8
 1003.07 -108 1003.07 -108 965.291 -172 c 1,9,10
 829.524 -145 829.524 -145 569.524 -145 c 0,11,12
 302.524 -145 302.524 -145 116.291 -172 c 1,13,-1
 112.6 -162 l 1,0,1
64.5791 -370 m 1,14,15
 124.201 -298 124.201 -298 160.977 -234 c 1,16,17
 298.743 -261 298.743 -261 557.743 -261 c 0,18,19
 823.743 -261 823.743 -261 1010.98 -234 c 1,20,-1
 1014.67 -244 l 1,21,22
 955.046 -316 955.046 -316 917.271 -380 c 1,23,24
 781.504 -353 781.504 -353 521.504 -353 c 0,25,26
 254.504 -353 254.504 -353 68.2705 -380 c 1,27,-1
 64.5791 -370 l 1,14,15
EndSplineSet
Validated: 1
EndChar

StartChar: quoteleft
Encoding: 8216 8216 124
Width: 804
GlyphClass: 2
Flags: W
HStem: 1534 16<1021.33 1033>
VStem: 418 372<1045.75 1271.45>
LayerCount: 2
Fore
SplineSet
1037 1550 m 1,0,-1
 1033 1534 l 1,1,2
 844 1439 844 1439 799 1236 c 0,3,4
 790 1195 790 1195 790 1161 c 0,5,6
 790 1061 790 1061 871 1019 c 1,7,8
 671 1002 671 1002 458 927 c 1,9,-1
 450 933 l 1,10,11
 418 992 418 992 418 1070 c 0,12,13
 418 1122 418 1122 432 1184 c 0,14,15
 521 1550 521 1550 1037 1550 c 1,0,-1
EndSplineSet
Validated: 1
EndChar

StartChar: quoteright
Encoding: 8217 8217 125
Width: 804
GlyphClass: 2
Flags: W
HStem: 927 16<342 353.672>
VStem: 585 372<1207.22 1430.91>
LayerCount: 2
Fore
SplineSet
917 1550 m 1,0,-1
 925 1544 l 1,1,2
 957 1485 957 1485 957 1407 c 0,3,4
 957 1355 957 1355 943 1293 c 0,5,6
 854 927 854 927 338 927 c 1,7,-1
 342 943 l 1,8,9
 531 1038 531 1038 576 1241 c 0,10,11
 585 1282 585 1282 585 1316 c 0,12,13
 585 1416 585 1416 504 1458 c 1,14,15
 704 1475 704 1475 917 1550 c 1,0,-1
EndSplineSet
Validated: 1
EndChar

StartChar: quotesinglbase
Encoding: 8218 8218 126
Width: 804
GlyphClass: 2
Flags: W
HStem: -226 16<76 87.3682>
VStem: 319 372<52.2129 279.654>
LayerCount: 2
Fore
SplineSet
651 397 m 1,0,-1
 659 391 l 1,1,2
 691 334 691 334 691 256 c 0,3,4
 691 201 691 201 676 140 c 0,5,6
 592 -226 592 -226 72 -226 c 1,7,-1
 76 -210 l 1,8,9
 260 -119 260 -119 309 88 c 0,10,11
 319 130 319 130 319 164 c 0,12,13
 319 265 319 265 237 305 c 1,14,15
 437 322 437 322 651 397 c 1,0,-1
EndSplineSet
Validated: 1
EndChar

StartChar: quotereversed
Encoding: 8219 8219 127
Width: 804
GlyphClass: 2
Flags: W
HStem: 927 623<605.232 727.599>
VStem: 448 342<1055.34 1329.4>
LayerCount: 2
Fore
SplineSet
603 1550 m 1,0,1
 782 1475 782 1475 974 1458 c 1,2,3
 840 1403 840 1403 802 1241 c 0,4,5
 790 1190 790 1190 790 1146 c 0,6,7
 790 1013 790 1013 898 943 c 1,8,-1
 894 927 l 1,9,10
 448 927 448 927 448 1199 c 0,11,12
 448 1242 448 1242 459 1293 c 0,13,14
 496 1449 496 1449 591 1544 c 1,15,-1
 603 1550 l 1,0,1
EndSplineSet
Validated: 1
EndChar

StartChar: quotedblleft
Encoding: 8220 8220 128
Width: 1307
GlyphClass: 2
Flags: W
HStem: 1534 16<1021.33 1033 1524.33 1536>
VStem: 418 372<1045.75 1271.45> 921 372<1045.75 1271.45>
LayerCount: 2
Fore
SplineSet
1540 1550 m 1,0,-1
 1536 1534 l 1,1,2
 1347 1439 1347 1439 1302 1236 c 0,3,4
 1293 1195 1293 1195 1293 1161 c 0,5,6
 1293 1061 1293 1061 1374 1019 c 1,7,8
 1174 1002 1174 1002 961 927 c 1,9,-1
 953 933 l 1,10,11
 921 992 921 992 921 1070 c 0,12,13
 921 1122 921 1122 935 1184 c 0,14,15
 1024 1550 1024 1550 1540 1550 c 1,0,-1
1037 1550 m 1,16,-1
 1033 1534 l 1,17,18
 844 1439 844 1439 799 1236 c 0,19,20
 790 1195 790 1195 790 1161 c 0,21,22
 790 1061 790 1061 871 1019 c 1,23,24
 671 1002 671 1002 458 927 c 1,25,-1
 450 933 l 1,26,27
 418 992 418 992 418 1070 c 0,28,29
 418 1122 418 1122 432 1184 c 0,30,31
 521 1550 521 1550 1037 1550 c 1,16,-1
EndSplineSet
Validated: 1
EndChar

StartChar: quotedblright
Encoding: 8221 8221 129
Width: 1307
GlyphClass: 2
Flags: W
HStem: 927 16<342 353.672 844 855.672>
VStem: 585 372<1207.22 1430.91> 1087 372<1207.22 1430.91>
LayerCount: 2
Fore
SplineSet
1419 1550 m 1,0,-1
 1427 1544 l 1,1,2
 1459 1485 1459 1485 1459 1407 c 0,3,4
 1459 1355 1459 1355 1445 1293 c 0,5,6
 1356 927 1356 927 840 927 c 1,7,-1
 844 943 l 1,8,9
 1033 1038 1033 1038 1078 1241 c 0,10,11
 1087 1282 1087 1282 1087 1316 c 0,12,13
 1087 1416 1087 1416 1006 1458 c 1,14,15
 1206 1475 1206 1475 1419 1550 c 1,0,-1
917 1550 m 1,16,-1
 925 1544 l 1,17,18
 957 1485 957 1485 957 1407 c 0,19,20
 957 1355 957 1355 943 1293 c 0,21,22
 854 927 854 927 338 927 c 1,23,-1
 342 943 l 1,24,25
 531 1038 531 1038 576 1241 c 0,26,27
 585 1282 585 1282 585 1316 c 0,28,29
 585 1416 585 1416 504 1458 c 1,30,31
 704 1475 704 1475 917 1550 c 1,16,-1
EndSplineSet
Validated: 1
EndChar

StartChar: quotedblbase
Encoding: 8222 8222 130
Width: 1307
GlyphClass: 2
Flags: W
HStem: -226 16<76 87.3682 578 589.368>
VStem: 319 372<52.2129 279.654> 821 372<52.2129 279.654>
LayerCount: 2
Fore
SplineSet
1153 397 m 1,0,-1
 1161 391 l 1,1,2
 1193 334 1193 334 1193 256 c 0,3,4
 1193 201 1193 201 1178 140 c 0,5,6
 1094 -226 1094 -226 574 -226 c 1,7,-1
 578 -210 l 1,8,9
 762 -119 762 -119 811 88 c 0,10,11
 821 130 821 130 821 164 c 0,12,13
 821 265 821 265 739 305 c 1,14,15
 939 322 939 322 1153 397 c 1,0,-1
651 397 m 1,16,-1
 659 391 l 1,17,18
 691 334 691 334 691 256 c 0,19,20
 691 201 691 201 676 140 c 0,21,22
 592 -226 592 -226 72 -226 c 1,23,-1
 76 -210 l 1,24,25
 260 -119 260 -119 309 88 c 0,26,27
 319 130 319 130 319 164 c 0,28,29
 319 265 319 265 237 305 c 1,30,31
 437 322 437 322 651 397 c 1,16,-1
EndSplineSet
Validated: 1
EndChar

StartChar: uni201F
Encoding: 8223 8223 131
Width: 1307
GlyphClass: 2
Flags: W
HStem: 927 623<605.232 727.599 1107.23 1229.6>
VStem: 448 342<1055.34 1329.4> 950 342<1055.34 1329.4>
LayerCount: 2
Fore
SplineSet
1105 1550 m 1,0,1
 1284 1475 1284 1475 1476 1458 c 1,2,3
 1342 1403 1342 1403 1304 1241 c 0,4,5
 1292 1190 1292 1190 1292 1146 c 0,6,7
 1292 1013 1292 1013 1400 943 c 1,8,-1
 1396 927 l 1,9,10
 950 927 950 927 950 1199 c 0,11,12
 950 1242 950 1242 961 1293 c 0,13,14
 998 1449 998 1449 1093 1544 c 1,15,-1
 1105 1550 l 1,0,1
603 1550 m 1,16,17
 782 1475 782 1475 974 1458 c 1,18,19
 840 1403 840 1403 802 1241 c 0,20,21
 790 1190 790 1190 790 1146 c 0,22,23
 790 1013 790 1013 898 943 c 1,24,-1
 894 927 l 1,25,26
 448 927 448 927 448 1199 c 0,27,28
 448 1242 448 1242 459 1293 c 0,29,30
 496 1449 496 1449 591 1544 c 1,31,-1
 603 1550 l 1,16,17
EndSplineSet
Validated: 1
EndChar

StartChar: dagger
Encoding: 8224 8224 132
Width: 1409
GlyphClass: 2
Flags: W
HStem: 0 21G<503 618.5> 830 342<486.078 680.557 1182.75 1385.69> 1490 20G<1139 1254>
DStem2: 715 730 1043 782 0.248414 0.968654<-467.074 152.279>
LayerCount: 2
Fore
SplineSet
512 0 m 1,0,-1
 503 6 l 1,1,2
 633 371 633 371 715 730 c 0,3,4
 732 804 732 804 747 879 c 1,5,6
 555 869 555 869 348 830 c 1,7,-1
 344 840 l 1,8,9
 437 991 437 991 503 1172 c 1,10,11
 647 1139 647 1139 792 1126 c 1,12,13
 815 1270 815 1270 832 1418 c 1,14,15
 1032 1435 1032 1435 1246 1510 c 1,16,-1
 1254 1504 l 1,17,18
 1187 1317 1187 1317 1132 1124 c 1,19,20
 1330 1135 1330 1135 1524 1172 c 1,21,-1
 1527 1162 l 1,22,23
 1434 1011 1434 1011 1369 830 c 1,24,25
 1225 864 1225 864 1065 876 c 1,26,27
 1053 830 1053 830 1043 782 c 0,28,29
 956 386 956 386 925 92 c 1,30,31
 725 75 725 75 512 0 c 1,0,-1
EndSplineSet
Validated: 1
EndChar

StartChar: daggerdbl
Encoding: 8225 8225 133
Width: 1409
GlyphClass: 2
Flags: W
HStem: 0 21G<503 618.5> 324 342<369.078 560.594 1069.44 1268.91> 830 342<486.078 680.557 1182.75 1385.69> 1490 20G<1139 1254>
LayerCount: 2
Fore
SplineSet
512 0 m 1,0,-1
 503 6 l 1,1,2
 567 188 567 188 621 373 c 1,3,4
 434 362 434 362 231 324 c 1,5,-1
 227 334 l 1,6,7
 320 485 320 485 386 666 c 1,8,9
 537 631 537 631 688 619 c 1,10,11
 707 694 707 694 715 730 c 0,12,13
 734 813 734 813 747 879 c 1,14,15
 555 869 555 869 348 830 c 1,16,-1
 344 840 l 1,17,18
 437 991 437 991 503 1172 c 1,19,20
 647 1139 647 1139 792 1126 c 1,21,22
 815 1270 815 1270 832 1418 c 1,23,24
 1032 1435 1032 1435 1246 1510 c 1,25,-1
 1254 1504 l 1,26,27
 1187 1317 1187 1317 1132 1124 c 1,28,29
 1330 1135 1330 1135 1524 1172 c 1,30,-1
 1527 1162 l 1,31,32
 1434 1011 1434 1011 1369 830 c 1,33,34
 1225 864 1225 864 1065 876 c 1,35,36
 1056 842 1056 842 1043 782 c 0,37,38
 1015 656 1015 656 1006 617 c 1,39,40
 1209 628 1209 628 1407 666 c 1,41,-1
 1410 656 l 1,42,43
 1318 505 1318 505 1252 324 c 1,44,45
 1114 357 1114 357 962 369 c 1,46,47
 940 229 940 229 925 92 c 1,48,49
 725 75 725 75 512 0 c 1,0,-1
EndSplineSet
Validated: 1
EndChar

StartChar: bullet
Encoding: 8226 8226 134
Width: 1025
GlyphClass: 2
Flags: W
LayerCount: 2
Fore
SplineSet
767 1185 m 1,0,-1
 777 1185 l 1,1,2
 895 1152 895 1152 977 1070 c 0,3,4
 1066 981 1066 981 1066 863 c 0,5,6
 1066 821 1066 821 1055 778 c 0,7,8
 1019 624 1019 624 869 505 c 24,9,10
 769 426 769 426 618 372 c 1,11,-1
 608 372 l 1,12,13
 487 405 487 405 407 487 c 0,14,15
 320 576 320 576 320 694 c 0,16,17
 320 735 320 735 330 779 c 0,18,19
 364 929 364 929 516 1052 c 0,20,21
 611 1129 611 1129 767 1185 c 1,0,-1
EndSplineSet
Validated: 1
EndChar

StartChar: uni2023
Encoding: 8227 8227 135
Width: 1048
GlyphClass: 2
Flags: W
LayerCount: 2
Fore
SplineSet
226 280 m 1,0,-1
 216 288 l 1,1,2
 322 528 322 528 374 753 c 0,3,4
 426 979 426 979 431 1218 c 1,5,-1
 444 1225 l 1,6,7
 618 1046 618 1046 771 946 c 0,8,9
 958 824 958 824 1126 772 c 1,10,-1
 1123 760 l 1,11,12
 966 709 966 709 703 569 c 0,13,14
 532 478 532 478 226 280 c 1,0,-1
EndSplineSet
Validated: 1
EndChar

StartChar: onedotenleader
Encoding: 8228 8228 136
Width: 702
GlyphClass: 2
Flags: W
HStem: 0 518
VStem: 151 519
LayerCount: 2
Fore
SplineSet
160 0 m 1,0,-1
 151 6 l 1,1,2
 195 113 195 113 218 216 c 0,3,4
 243 327 243 327 248 426 c 1,5,6
 448 443 448 443 662 518 c 1,7,-1
 670 512 l 1,8,9
 625 389 625 389 602 289.5 c 128,-1,10
 579 190 579 190 573 92 c 1,11,12
 373 75 373 75 160 0 c 1,0,-1
EndSplineSet
Validated: 1
EndChar

StartChar: twodotenleader
Encoding: 8229 8229 137
Width: 1234
GlyphClass: 2
Flags: W
HStem: 0 518
LayerCount: 2
Fore
SplineSet
692 0 m 1,0,-1
 683 6 l 1,1,2
 727 113 727 113 750 216 c 0,3,4
 775 327 775 327 780 426 c 1,5,6
 980 443 980 443 1194 518 c 1,7,-1
 1202 512 l 1,8,9
 1157 389 1157 389 1134 289.5 c 128,-1,10
 1111 190 1111 190 1105 92 c 1,11,12
 905 75 905 75 692 0 c 1,0,-1
160 0 m 1,13,-1
 151 6 l 1,14,15
 195 113 195 113 218 216 c 0,16,17
 243 327 243 327 248 426 c 1,18,19
 448 443 448 443 662 518 c 1,20,-1
 670 512 l 1,21,22
 624 387 624 387 602 290 c 0,23,24
 579 190 579 190 573 92 c 1,25,26
 373 75 373 75 160 0 c 1,13,-1
EndSplineSet
Validated: 1
EndChar

StartChar: ellipsis
Encoding: 8230 8230 138
Width: 1766
GlyphClass: 2
Flags: W
HStem: 0 518
LayerCount: 2
Fore
SplineSet
1224 0 m 1,0,-1
 1215 6 l 1,1,2
 1259 113 1259 113 1282 216 c 0,3,4
 1307 327 1307 327 1312 426 c 1,5,6
 1512 443 1512 443 1726 518 c 1,7,-1
 1734 512 l 1,8,9
 1689 389 1689 389 1666 289.5 c 128,-1,10
 1643 190 1643 190 1637 92 c 1,11,12
 1437 75 1437 75 1224 0 c 1,0,-1
692 0 m 1,13,-1
 683 6 l 1,14,15
 727 113 727 113 750 216 c 0,16,17
 775 327 775 327 780 426 c 1,18,19
 980 443 980 443 1194 518 c 1,20,-1
 1202 512 l 1,21,22
 1156 387 1156 387 1134 290 c 0,23,24
 1111 190 1111 190 1105 92 c 1,25,26
 905 75 905 75 692 0 c 1,13,-1
160 0 m 1,27,-1
 151 6 l 1,28,29
 195 113 195 113 218 216 c 0,30,31
 243 327 243 327 248 426 c 1,32,33
 448 443 448 443 662 518 c 1,34,-1
 670 512 l 1,35,36
 624 387 624 387 602 290 c 0,37,38
 579 190 579 190 573 92 c 1,39,40
 373 75 373 75 160 0 c 1,27,-1
EndSplineSet
Validated: 1
EndChar

StartChar: uni2027
Encoding: 8231 8231 139
Width: 702
GlyphClass: 2
Flags: W
HStem: 520 518
VStem: 271 519
LayerCount: 2
Fore
SplineSet
782 1038 m 1,0,-1
 790 1032 l 1,1,2
 745 909 745 909 722 809.5 c 128,-1,3
 699 710 699 710 693 612 c 1,4,5
 493 595 493 595 280 520 c 1,6,-1
 271 526 l 1,7,8
 311 622 311 622 338 736 c 0,9,10
 364 847 364 847 368 946 c 1,11,12
 568 963 568 963 782 1038 c 1,0,-1
EndSplineSet
Validated: 1
EndChar

StartChar: perthousand
Encoding: 8240 8240 140
Width: 2699
GlyphClass: 2
Flags: W
HStem: 0 21G<601.5 691 1357.5 1503.5 2134.5 2280.5> 1490 20G<764.5 911 1555 1645>
VStem: 395 242<1016.41 1198.49> 909 232<1010.58 1199.36> 1130 242<319.407 501.488> 1644 232<313.579 502.356> 1907 242<319.407 501.488> 2421 232<313.579 502.356>
LayerCount: 2
Fore
SplineSet
2222 586 m 1,0,1
 2166 521 2166 521 2152 453 c 0,2,3
 2149 438 2149 438 2149 423 c 0,4,5
 2149 351 2149 351 2230 283 c 0,6,7
 2280 242 2280 242 2354 229 c 1,8,9
 2397 281 2397 281 2416 357 c 0,10,11
 2421 377 2421 377 2421 396 c 0,12,13
 2421 476 2421 476 2340 536 c 0,14,15
 2291 574 2291 574 2222 586 c 1,0,1
2205 0 m 1,16,-1
 2195 0 l 1,17,18
 2074 33 2074 33 1994 115 c 0,19,20
 1907 204 1907 204 1907 323 c 0,21,22
 1907 363 1907 363 1917 407 c 0,23,24
 1951 557 1951 557 2103 680 c 0,25,26
 2199 757 2199 757 2354 813 c 1,27,-1
 2364 813 l 1,28,29
 2482 780 2482 780 2564 698 c 0,30,31
 2653 609 2653 609 2653 491 c 0,32,33
 2653 449 2653 449 2642 406 c 0,34,35
 2606 252 2606 252 2456 133 c 24,36,37
 2356 54 2356 54 2205 0 c 1,16,-1
1445 586 m 1,38,39
 1389 521 1389 521 1375 453 c 0,40,41
 1372 438 1372 438 1372 423 c 0,42,43
 1372 351 1372 351 1453 283 c 0,44,45
 1503 242 1503 242 1577 229 c 1,46,47
 1620 281 1620 281 1639 357 c 0,48,49
 1644 377 1644 377 1644 396 c 0,50,51
 1644 476 1644 476 1563 536 c 0,52,53
 1514 574 1514 574 1445 586 c 1,38,39
1428 0 m 1,54,-1
 1418 0 l 1,55,56
 1297 33 1297 33 1217 115 c 0,57,58
 1130 204 1130 204 1130 323 c 0,59,60
 1130 363 1130 363 1140 407 c 0,61,62
 1174 557 1174 557 1326 680 c 0,63,64
 1422 757 1422 757 1577 813 c 1,65,-1
 1587 813 l 1,66,67
 1705 780 1705 780 1787 698 c 0,68,69
 1876 609 1876 609 1876 491 c 0,70,71
 1876 449 1876 449 1865 406 c 0,72,73
 1829 252 1829 252 1679 133 c 24,74,75
 1579 54 1579 54 1428 0 c 1,54,-1
680 0 m 1,76,77
 523 66 523 66 348 88 c 1,78,79
 752 452 752 452 1045 804 c 0,80,81
 1291 1099 1291 1099 1555 1504 c 1,82,-1
 1567 1510 l 1,83,84
 1723 1444 1723 1444 1898 1422 c 1,85,86
 1559 1081 1559 1081 1272 749 c 0,87,88
 960 388 960 388 691 6 c 1,89,-1
 680 0 l 1,76,77
710 1283 m 1,90,91
 654 1218 654 1218 640 1150 c 0,92,93
 637 1135 637 1135 637 1120 c 0,94,95
 637 1048 637 1048 718 980 c 0,96,97
 768 939 768 939 842 926 c 1,98,99
 885 978 885 978 904 1054 c 0,100,101
 909 1074 909 1074 909 1093 c 0,102,103
 909 1173 909 1173 828 1233 c 0,104,105
 779 1271 779 1271 710 1283 c 1,90,91
852 1510 m 1,106,107
 970 1477 970 1477 1052 1395 c 0,108,109
 1141 1306 1141 1306 1141 1188 c 0,110,111
 1141 1146 1141 1146 1130 1103 c 0,112,113
 1094 949 1094 949 944 830 c 24,114,115
 844 751 844 751 693 697 c 1,116,-1
 683 697 l 1,117,118
 562 730 562 730 482 812 c 0,119,120
 395 901 395 901 395 1020 c 0,121,122
 395 1060 395 1060 405 1104 c 0,123,124
 439 1254 439 1254 591 1377 c 0,125,126
 687 1454 687 1454 842 1510 c 1,127,-1
 852 1510 l 1,106,107
EndSplineSet
Validated: 1
EndChar

StartChar: minute
Encoding: 8242 8242 141
Width: 1072
GlyphClass: 2
Flags: W
LayerCount: 2
Fore
SplineSet
884 1550 m 1,0,1
 1063 1475 1063 1475 1255 1458 c 1,2,-1
 1256 1448 l 1,3,4
 882 1154 882 1154 653 846 c 1,5,-1
 642 840 l 1,6,7
 499 899 499 899 368 920 c 1,8,-1
 365 930 l 1,9,10
 679 1215 679 1215 872 1544 c 1,11,-1
 884 1550 l 1,0,1
EndSplineSet
Validated: 1
EndChar

StartChar: second
Encoding: 8243 8243 142
Width: 1566
GlyphClass: 2
Flags: W
LayerCount: 2
Fore
SplineSet
884 1550 m 1,0,1
 1063 1475 1063 1475 1255 1458 c 1,2,-1
 1256 1448 l 1,3,4
 882 1154 882 1154 653 846 c 1,5,-1
 642 840 l 1,6,7
 499 899 499 899 368 920 c 1,8,-1
 365 930 l 1,9,10
 679 1215 679 1215 872 1544 c 1,11,-1
 884 1550 l 1,0,1
1378 1550 m 1,12,13
 1557 1475 1557 1475 1749 1458 c 1,14,-1
 1750 1448 l 1,15,16
 1376 1154 1376 1154 1147 846 c 1,17,-1
 1136 840 l 1,18,19
 993 899 993 899 862 920 c 1,20,-1
 859 930 l 1,21,22
 1172 1215 1172 1215 1366 1544 c 1,23,-1
 1378 1550 l 1,12,13
EndSplineSet
Validated: 1
EndChar

StartChar: uni2034
Encoding: 8244 8244 143
Width: 2060
GlyphClass: 2
Flags: W
LayerCount: 2
Fore
SplineSet
884 1550 m 1,0,1
 1063 1475 1063 1475 1255 1458 c 1,2,-1
 1256 1448 l 1,3,4
 882 1154 882 1154 653 846 c 1,5,-1
 642 840 l 1,6,7
 499 899 499 899 368 920 c 1,8,-1
 365 930 l 1,9,10
 679 1215 679 1215 872 1544 c 1,11,-1
 884 1550 l 1,0,1
1378 1550 m 1,12,13
 1557 1475 1557 1475 1749 1458 c 1,14,-1
 1750 1448 l 1,15,16
 1376 1154 1376 1154 1147 846 c 1,17,-1
 1136 840 l 1,18,19
 993 899 993 899 862 920 c 1,20,-1
 859 930 l 1,21,22
 1172 1215 1172 1215 1366 1544 c 1,23,-1
 1378 1550 l 1,12,13
1872 1550 m 1,24,25
 2051 1475 2051 1475 2243 1458 c 1,26,-1
 2244 1448 l 1,27,28
 1870 1154 1870 1154 1641 846 c 1,29,-1
 1630 840 l 1,30,31
 1487 899 1487 899 1356 920 c 1,32,-1
 1353 930 l 1,33,34
 1666 1215 1666 1215 1860 1544 c 1,35,-1
 1872 1550 l 1,24,25
EndSplineSet
Validated: 1
EndChar

StartChar: uni2035
Encoding: 8245 8245 144
Width: 1072
GlyphClass: 2
Flags: W
VStem: 484 653
LayerCount: 2
Fore
SplineSet
904 1550 m 1,0,-1
 912 1544 l 1,1,2
 955 1215 955 1215 1137 930 c 1,3,-1
 1128 920 l 1,4,5
 989 899 989 899 818 840 c 1,6,-1
 809 846 l 1,7,8
 722 1154 722 1154 484 1448 c 1,9,-1
 491 1458 l 1,10,11
 691 1475 691 1475 904 1550 c 1,0,-1
EndSplineSet
Validated: 1
EndChar

StartChar: uni2036
Encoding: 8246 8246 145
Width: 1566
GlyphClass: 2
Flags: W
LayerCount: 2
Fore
SplineSet
1398 1550 m 1,0,-1
 1406 1544 l 1,1,2
 1448 1215 1448 1215 1631 930 c 1,3,-1
 1622 920 l 1,4,5
 1483 899 1483 899 1312 840 c 1,6,-1
 1303 846 l 1,7,8
 1216 1154 1216 1154 978 1448 c 1,9,-1
 985 1458 l 1,10,11
 1185 1475 1185 1475 1398 1550 c 1,0,-1
904 1550 m 1,12,-1
 912 1544 l 1,13,14
 955 1215 955 1215 1137 930 c 1,15,-1
 1128 920 l 1,16,17
 989 899 989 899 818 840 c 1,18,-1
 809 846 l 1,19,20
 722 1154 722 1154 484 1448 c 1,21,-1
 491 1458 l 1,22,23
 691 1475 691 1475 904 1550 c 1,12,-1
EndSplineSet
Validated: 1
EndChar

StartChar: uni2037
Encoding: 8247 8247 146
Width: 2060
GlyphClass: 2
Flags: W
LayerCount: 2
Fore
SplineSet
1892 1550 m 1,0,-1
 1900 1544 l 1,1,2
 1942 1215 1942 1215 2125 930 c 1,3,-1
 2116 920 l 1,4,5
 1977 899 1977 899 1806 840 c 1,6,-1
 1797 846 l 1,7,8
 1710 1154 1710 1154 1472 1448 c 1,9,-1
 1479 1458 l 1,10,11
 1679 1475 1679 1475 1892 1550 c 1,0,-1
1398 1550 m 1,12,-1
 1406 1544 l 1,13,14
 1448 1215 1448 1215 1631 930 c 1,15,-1
 1622 920 l 1,16,17
 1483 899 1483 899 1312 840 c 1,18,-1
 1303 846 l 1,19,20
 1216 1154 1216 1154 978 1448 c 1,21,-1
 985 1458 l 1,22,23
 1185 1475 1185 1475 1398 1550 c 1,12,-1
904 1550 m 1,24,-1
 912 1544 l 1,25,26
 955 1215 955 1215 1137 930 c 1,27,-1
 1128 920 l 1,28,29
 989 899 989 899 818 840 c 1,30,-1
 809 846 l 1,31,32
 722 1154 722 1154 484 1448 c 1,33,-1
 491 1458 l 1,34,35
 691 1475 691 1475 904 1550 c 1,24,-1
EndSplineSet
Validated: 1
EndChar

StartChar: guilsinglleft
Encoding: 8249 8249 147
Width: 1080
GlyphClass: 2
Flags: W
LayerCount: 2
Fore
SplineSet
286 587 m 1,0,1
 406 783 406 783 468 979 c 1,2,3
 792 1084 792 1084 1188 1362 c 1,4,-1
 1192 1352 l 1,5,6
 1086 1180 1086 1180 1023 1000 c 1,7,8
 825 940 825 940 686 797 c 1,9,10
 762 624 762 624 1010 591 c 1,11,-1
 1014 581 l 1,12,13
 894 385 894 385 832 189 c 1,14,15
 660 474 660 474 289 577 c 1,16,-1
 286 587 l 1,0,1
EndSplineSet
Validated: 1
EndChar

StartChar: guilsinglright
Encoding: 8250 8250 148
Width: 1080
GlyphClass: 2
Flags: W
LayerCount: 2
Fore
SplineSet
1153 964 m 1,0,1
 1032 768 1032 768 970 572 c 1,2,3
 646 467 646 467 250 189 c 1,4,-1
 246 199 l 1,5,6
 352 371 352 371 415 551 c 1,7,8
 613 611 613 611 752 754 c 1,9,10
 699 897 699 897 428 960 c 1,11,-1
 424 970 l 1,12,13
 544 1166 544 1166 606 1362 c 1,14,15
 765 1095 765 1095 1149 974 c 1,16,-1
 1153 964 l 1,0,1
EndSplineSet
Validated: 1
EndChar

StartChar: uni2043
Encoding: 8259 8259 149
Width: 1421
GlyphClass: 2
Flags: W
LayerCount: 2
Fore
SplineSet
1182 1343 m 1,0,-1
 1191 1337 l 1,1,2
 1122 1178 1122 1178 1071 1012 c 1,3,4
 1194 1088 1194 1088 1305 1173 c 1,5,6
 1383 1028 1383 1028 1485 926 c 1,7,-1
 1482 915 l 1,8,9
 1314 862 1314 862 1144 788 c 1,10,11
 1275 718 1275 718 1424 662 c 1,12,-1
 1421 651 l 1,13,14
 1273 549 1273 549 1127 404 c 1,15,16
 1053 490 1053 490 971 563 c 1,17,18
 956 441 956 441 955 316 c 1,19,20
 768 292 768 292 604 234 c 1,21,-1
 595 240 l 1,22,23
 666 406 666 406 716 566 c 1,24,25
 597 492 597 492 480 404 c 1,26,27
 403 549 403 549 300 651 c 1,28,-1
 303 662 l 1,29,30
 478 718 478 718 641 788 c 1,31,32
 505 862 505 862 361 915 c 1,33,-1
 364 926 l 1,34,35
 513 1028 513 1028 658 1173 c 1,36,37
 728 1089 728 1089 814 1015 c 1,38,39
 830 1141 830 1141 831 1261 c 1,40,41
 1018 1285 1018 1285 1182 1343 c 1,0,-1
EndSplineSet
Validated: 1
EndChar

StartChar: fraction
Encoding: 8260 8260 150
Width: 1259
GlyphClass: 2
Flags: W
LayerCount: 2
Fore
SplineSet
327 -150 m 1,0,1
 171 -84 171 -84 -4 -62 c 1,2,3
 369 372 369 372 743 868 c 0,4,5
 1039 1260 1039 1260 1269 1654 c 1,6,-1
 1280 1660 l 1,7,8
 1437 1594 1437 1594 1612 1572 c 1,9,10
 1218 1113 1218 1113 864 642 c 0,11,12
 570 251 570 251 339 -144 c 1,13,-1
 327 -150 l 1,0,1
EndSplineSet
Validated: 1
EndChar

StartChar: Euro
Encoding: 8364 8364 151
Width: 1647
VWidth: 0
GlyphClass: 2
Flags: W
HStem: 0 21G<771 1049> 434 277<847.468 1079.49> 732 277<810.247 1148.23> 775 191<803 1127.25> 1490 20G<1088 1362.5>
LayerCount: 2
Fore
SplineSet
923 0 m 1,0,-1
 913 0 l 1,1,2
 629 104 629 104 517 255 c 0,3,4
 447 349 447 349 424 463 c 1,5,6
 327 453 327 453 226 434 c 1,7,-1
 223 444 l 1,8,9
 303 571 303 571 349 711 c 1,10,11
 386 702 386 702 423 695 c 1,12,13
 428 723 428 723 435 754 c 1,14,15
 366 745 366 745 295 732 c 1,16,-1
 291 742 l 1,17,18
 372 869 372 869 418 1009 c 1,19,20
 471 996 471 996 526 988 c 1,21,22
 612 1137 612 1137 759 1261 c 0,23,24
 964 1433 964 1433 1212 1510 c 1,25,-1
 1222 1510 l 1,26,27
 1503 1406 1503 1406 1617 1254 c 0,28,29
 1650 1210 1650 1210 1673 1161 c 1,30,-1
 1319 1004 l 1,31,32
 1300 1032 1300 1032 1276 1057 c 0,33,34
 1176 1161 1176 1161 906 1174 c 1,35,36
 842 1077 842 1077 803 966 c 1,37,38
 1035 966 1035 966 1256 1009 c 1,39,-1
 1260 999 l 1,40,41
 1179 872 1179 872 1133 732 c 1,42,43
 949 773 949 773 759 775 c 1,44,45
 756 744 756 744 756 715 c 0,46,47
 756 693 756 693 758 668 c 1,48,49
 978 671 978 671 1187 711 c 1,50,-1
 1191 701 l 1,51,52
 1111 574 1111 574 1064 434 c 1,53,54
 955 458 955 458 844 469 c 1,55,56
 966 362 966 362 1229 336 c 1,57,58
 1260 398 1260 398 1274 460 c 0,59,60
 1287 518 1287 518 1287 575 c 0,61,62
 1287 614 1287 614 1281 654 c 1,63,-1
 1625 554 l 1,64,65
 1538 386 1538 386 1375 248 c 0,66,67
 1175 78 1175 78 923 0 c 1,0,-1
EndSplineSet
Validated: 1
EndChar

StartChar: afii61248
Encoding: 8453 8453 152
Width: 1921
GlyphClass: 2
Flags: W
HStem: 0 21G<601.5 691 1357.5 1503.5> 1490 20G<763.5 907.5 1555 1645>
VStem: 395 242<1016.29 1198.03> 1130 242<319.407 501.488> 1644 232<313.579 502.356>
LayerCount: 2
Fore
SplineSet
1445 586 m 1,0,1
 1389 521 1389 521 1375 453 c 0,2,3
 1372 438 1372 438 1372 423 c 0,4,5
 1372 351 1372 351 1453 283 c 0,6,7
 1503 242 1503 242 1577 229 c 1,8,9
 1620 281 1620 281 1639 357 c 0,10,11
 1644 377 1644 377 1644 396 c 0,12,13
 1644 476 1644 476 1563 536 c 0,14,15
 1514 574 1514 574 1445 586 c 1,0,1
1428 0 m 1,16,-1
 1418 0 l 1,17,18
 1297 33 1297 33 1217 115 c 0,19,20
 1130 204 1130 204 1130 323 c 0,21,22
 1130 363 1130 363 1140 407 c 0,23,24
 1174 557 1174 557 1326 680 c 0,25,26
 1422 757 1422 757 1577 813 c 1,27,-1
 1587 813 l 1,28,29
 1705 780 1705 780 1787 698 c 0,30,31
 1876 609 1876 609 1876 491 c 0,32,33
 1876 449 1876 449 1865 406 c 0,34,35
 1829 252 1829 252 1679 133 c 24,36,37
 1579 54 1579 54 1428 0 c 1,16,-1
693 697 m 1,38,-1
 683 697 l 1,39,40
 562 730 562 730 482 812 c 0,41,42
 395 901 395 901 395 1020 c 0,43,44
 395 1060 395 1060 405 1104 c 0,45,46
 439 1252 439 1252 591 1377 c 0,47,48
 685 1454 685 1454 842 1510 c 1,49,-1
 852 1510 l 1,50,51
 963 1479 963 1479 1052 1395 c 0,52,53
 1069 1379 1069 1379 1083 1360 c 1,54,-1
 856 1208 l 1,55,56
 843 1222 843 1222 828 1233 c 0,57,58
 776 1271 776 1271 710 1283 c 1,59,60
 653 1217 653 1217 640 1150 c 0,61,62
 637 1135 637 1135 637 1119 c 0,63,64
 637 1047 637 1047 718 980 c 0,65,66
 769 939 769 939 842 926 c 1,67,68
 861 951 861 951 866 976 c 0,69,70
 869 990 869 990 869 1004 c 0,71,72
 869 1026 869 1026 860 1055 c 9,73,-1
 1063 955 l 17,74,75
 1017 888 1017 888 944 830 c 8,76,77
 843 751 843 751 693 697 c 1,38,-1
680 0 m 1,78,79
 523 66 523 66 348 88 c 1,80,81
 752 452 752 452 1045 804 c 0,82,83
 1291 1099 1291 1099 1555 1504 c 1,84,-1
 1567 1510 l 1,85,86
 1723 1444 1723 1444 1898 1422 c 1,87,88
 1559 1081 1559 1081 1272 749 c 0,89,90
 960 388 960 388 691 6 c 1,91,-1
 680 0 l 1,78,79
EndSplineSet
Validated: 1
EndChar

StartChar: afii61289
Encoding: 8467 8467 153
Width: 1220
GlyphClass: 2
Flags: W
HStem: 0 21G<603.5 711.5> 1490 20G<1097 1256.5>
LayerCount: 2
Fore
SplineSet
657 0 m 0,0,1
 550 0 550 0 484 57 c 1,2,-1
 452 20 l 1,3,-1
 55 20 l 1,4,5
 240 191 240 191 403 368 c 1,6,7
 412 431 412 431 426 493 c 0,8,9
 451 601 451 601 596 902 c 0,10,11
 751 1221 751 1221 880 1360 c 0,12,13
 1020 1510 1020 1510 1174 1510 c 0,14,15
 1339 1510 1339 1510 1339 1349 c 0,16,17
 1339 1302 1339 1302 1325 1243 c 0,18,19
 1294 1110 1294 1110 1210 952 c 0,20,21
 1026 602 1026 602 732 323 c 1,22,23
 733 299 733 299 736 283 c 1,24,-1
 815 362 l 1,25,-1
 1154 362 l 1,26,27
 1010 169 1010 169 867 70 c 0,28,29
 766 0 766 0 657 0 c 0,0,1
EndSplineSet
Validated: 1
EndChar

StartChar: trademark
Encoding: 8482 8482 154
Width: 2028
GlyphClass: 2
Flags: W
HStem: 1490 20G<468 570 1075.5 1178 1466 1544 2047 2115>
VStem: 1811 248<795.532 1084.91>
LayerCount: 2
Fore
SplineSet
494 729 m 1,0,-1
 486 735 l 1,1,2
 554 889 554 889 598 1072 c 0,3,4
 623 1176 623 1176 641 1315 c 1,5,6
 532 1306 532 1306 396 1237 c 1,7,-1
 387 1243 l 1,8,9
 432 1321 432 1321 504 1510 c 1,10,11
 636 1484 636 1484 808 1484 c 0,12,13
 981 1484 981 1484 1170 1510 c 1,14,-1
 1178 1504 l 1,15,16
 1133 1426 1133 1426 1062 1237 c 1,17,18
 986 1292 986 1292 894 1315 c 1,19,20
 852 1205 852 1205 827 1094 c 0,21,22
 793 946 793 946 781 793 c 1,23,24
 633 782 633 782 494 729 c 1,0,-1
1002 729 m 1,25,-1
 994 735 l 1,26,27
 1135 1021 1135 1021 1245 1360 c 1,28,29
 1234 1401 1234 1401 1206 1440 c 1,30,31
 1396 1462 1396 1462 1536 1510 c 1,32,-1
 1544 1504 l 1,33,34
 1542 1457 1542 1457 1542 1414 c 0,35,36
 1542 1148 1542 1148 1599 1016 c 1,37,38
 1724 1178 1724 1178 1839 1412 c 1,39,40
 1837 1428 1837 1428 1832 1441 c 1,41,42
 1987 1460 1987 1460 2107 1510 c 1,43,-1
 2115 1504 l 1,44,45
 2059 1177 2059 1177 2059 895 c 0,46,47
 2059 843 2059 843 2061 794 c 1,48,49
 1932 778 1932 778 1780 729 c 1,50,-1
 1772 735 l 1,51,52
 1805 878 1805 878 1811 1090 c 1,53,54
 1713 947 1713 947 1635 786 c 1,55,56
 1502 780 1502 780 1370 729 c 1,57,-1
 1362 735 l 1,58,59
 1355 932 1355 932 1318 1133 c 1,60,61
 1224 910 1224 910 1195 782 c 1,62,63
 1098 774 1098 774 1002 729 c 1,25,-1
EndSplineSet
Validated: 1
EndChar

StartChar: uni2126
Encoding: 8486 8486 155
Width: 1594
VWidth: 0
GlyphClass: 2
Flags: W
HStem: 0 21G<57 152 661.5 751.596 903.603 971 1382 1495> 1490 20G<992.5 1263.5>
VStem: 321 339<534.289 844.973> 1283 343<680.074 974.056>
LayerCount: 2
Fore
SplineSet
61 0 m 1,0,1
 57 10 l 1,2,3
 144 142 144 142 240 402 c 1,4,5
 322 298 322 298 467 260 c 1,6,7
 321 408 321 408 321 608 c 0,8,9
 321 676 321 676 339 753 c 0,10,11
 405 1046 405 1046 663 1261 c 24,12,13
 869 1433 869 1433 1116 1510 c 1,14,-1
 1126 1510 l 1,15,16
 1401 1409 1401 1409 1521 1254 c 16,17,18
 1626 1119 1626 1119 1626 935 c 0,19,20
 1626 851 1626 851 1604 759 c 0,21,22
 1545 506 1545 506 1347 310 c 1,23,24
 1489 336 1489 336 1626 402 c 1,25,-1
 1630 392 l 1,26,27
 1543 260 1543 260 1447 0 c 1,28,29
 1317 23 1317 23 1182 23 c 0,30,31
 1043 23 1043 23 899 0 c 1,32,-1
 954 239 l 1,33,34
 1204 388 1204 388 1265 646 c 0,35,36
 1283 722 1283 722 1283 789 c 0,37,38
 1283 942 1283 942 1180 1057 c 0,39,40
 1085 1161 1085 1161 810 1174 c 1,41,42
 713 1028 713 1028 677 864 c 0,43,44
 660 787 660 787 660 721 c 0,45,46
 660 509 660 509 838 396 c 1,47,-1
 747 0 l 1,48,49
 576 26 576 26 409.5 26 c 128,-1,50
 243 26 243 26 61 0 c 1,0,1
EndSplineSet
Validated: 1
EndChar

StartChar: estimated
Encoding: 8494 8494 156
Width: 1483
GlyphClass: 2
Flags: W
HStem: 0 238<664.037 976.765> 456 230<706 1094> 896 234<796.865 1082.61>
LayerCount: 2
Fore
SplineSet
1389 377 m 1,0,1
 1280 200 1280 200 1104 96 c 1,2,3
 939 0 939 0 748 0 c 0,4,5
 471 0 471 0 356 154 c 0,6,7
 263 279 263 279 263 430 c 0,8,9
 263 490 263 490 278 556 c 0,10,11
 329 780 329 780 538 960 c 0,12,13
 736 1130 736 1130 1010 1130 c 0,14,15
 1271 1130 1271 1130 1399 942 c 16,16,17
 1475 830 1475 830 1475 684 c 0,18,19
 1475 610 1475 610 1456 531 c 2,20,-1
 1438 456 l 1,21,-1
 653 456 l 1,22,-1
 622 319 l 1,23,24
 693 238 693 238 806 238 c 0,25,26
 913 238 913 238 989 290 c 0,27,28
 1043 327 1043 327 1065 377 c 1,29,-1
 1389 377 l 1,0,1
706 686 m 1,30,-1
 1094 686 l 1,31,-1
 1125 817 l 1,32,33
 1045 896 1045 896 956 896 c 0,34,35
 852 896 852 896 737 817 c 1,36,-1
 706 686 l 1,30,-1
EndSplineSet
Validated: 1
EndChar

StartChar: partialdiff
Encoding: 8706 8706 157
Width: 1297
GlyphClass: 2
Flags: W
HStem: 0 295<397.5 701.459> 730 262<804.953 998> 1490 20G<1061 1213.5>
VStem: 174 375<220.5 470.161> 1072 342<992.602 1217.77>
LayerCount: 2
Fore
SplineSet
483 0 m 0,0,1
 312 0 312 0 230 101 c 0,2,3
 174 170 174 170 174 271 c 0,4,5
 174 320 174 320 187 376 c 0,6,7
 237 590 237 590 448 765 c 0,8,9
 697 972 697 972 1063 992 c 1,10,11
 1072 1045 1072 1045 1072 1092 c 0,12,13
 1072 1107 1072 1107 1071 1122 c 0,14,15
 1067 1189 1067 1189 1048 1211 c 0,16,17
 1030 1233 1030 1233 1003 1232 c 0,18,19
 978 1231 978 1231 951 1196 c 0,20,21
 909 1141 909 1141 858 1058 c 1,22,-1
 613 1180 l 1,23,24
 736 1358 736 1358 868 1433 c 0,25,26
 1003 1510 1003 1510 1119 1510 c 0,27,28
 1308 1510 1308 1510 1378 1365 c 0,29,30
 1414 1290 1414 1290 1414 1178 c 0,31,32
 1414 1070 1414 1070 1382 933 c 0,33,34
 1321 663 1321 663 1175 439 c 0,35,36
 1032 219 1032 219 840 110 c 0,37,38
 647 0 647 0 483 0 c 0,0,1
941 730 m 2,39,40
 889 730 889 730 819 697 c 0,41,42
 743 661 743 661 658 571 c 128,-1,43
 573 481 573 481 552 391 c 0,44,45
 549 378 549 378 549 367 c 0,46,47
 549 340 549 340 563 321 c 0,48,49
 581 295 581 295 617 295 c 0,50,51
 650 295 650 295 687 318 c 0,52,53
 776 374 776 374 854 467 c 0,54,55
 942 573 942 573 998 730 c 1,56,-1
 941 730 l 2,39,40
EndSplineSet
Validated: 1
EndChar

StartChar: uni2206
Encoding: 8710 8710 158
Width: 1483
GlyphClass: 2
Flags: W
HStem: 0 21G<6 208 1265.5 1479> 47 194<470.92 1071.4> 1490 20G<1172 1287>
LayerCount: 2
Fore
SplineSet
467 263 m 1,0,1
 592 241 592 241 772 241 c 0,2,3
 929 241 929 241 1076 270 c 1,4,5
 1064 723 1064 723 970 1091 c 1,6,7
 678 708 678 708 467 263 c 1,0,1
11 0 m 1,8,-1
 6 6 l 1,9,10
 526 689 526 689 865 1418 c 1,11,12
 1065 1435 1065 1435 1279 1510 c 1,13,-1
 1287 1504 l 1,14,15
 1339 730 1339 730 1479 6 c 1,16,-1
 1472 0 l 1,17,18
 1059 47 1059 47 710 47 c 0,19,20
 405 47 405 47 11 0 c 1,8,-1
EndSplineSet
Validated: 1
EndChar

StartChar: product
Encoding: 8719 8719 159
Width: 1524
GlyphClass: 2
Flags: W
HStem: -380 21G<94 209 853 968> 1219 241<838.001 1239.93> 1490 20G<1527.5 1691>
DStem2: 94 -374 835 1210 0.242382 0.970181<431.56 1596.85>
LayerCount: 2
Fore
SplineSet
102 -380 m 1,0,-1
 94 -374 l 1,1,2
 217 -25 217 -25 349 543 c 0,3,4
 490 1149 490 1149 531 1507 c 1,5,-1
 542 1513 l 1,6,7
 832 1460 832 1460 1091 1460 c 0,8,9
 1372 1460 1372 1460 1683 1510 c 1,10,-1
 1691 1504 l 1,11,12
 1562 1139 1562 1139 1436 592 c 0,13,14
 1311 51 1311 51 1275 -288 c 1,15,16
 1075 -305 1075 -305 861 -380 c 1,17,-1
 853 -374 l 1,18,19
 981 -13 981 -13 1108 540 c 0,20,21
 1206 965 1206 965 1243 1211 c 1,22,23
 1145 1219 1145 1219 1030 1219 c 0,24,25
 931 1219 931 1219 835 1210 c 1,26,27
 779 1034 779 1034 677 592 c 0,28,29
 552 53 552 53 516 -288 c 1,30,31
 316 -305 316 -305 102 -380 c 1,0,-1
EndSplineSet
Validated: 1
EndChar

StartChar: summation
Encoding: 8721 8721 160
Width: 1420
GlyphClass: 2
Flags: W
HStem: -380 21G<-36 137 1002.5 1188> -336 242<665.138 1124.91> 1490 20G<803 918 1518 1610>
LayerCount: 2
Fore
SplineSet
-28 -380 m 1,0,-1
 -36 -374 l 1,1,2
 511 186 511 186 735 568 c 1,3,4
 678 963 678 963 496 1418 c 1,5,6
 696 1435 696 1435 910 1510 c 1,7,-1
 918 1504 l 1,8,9
 1031 1452 1031 1452 1239 1452 c 0,10,11
 1429 1452 1429 1452 1607 1510 c 1,12,-1
 1610 1500 l 1,13,14
 1524 1368 1524 1368 1428 1108 c 1,15,16
 1218 1121 1218 1121 1113 1184 c 0,17,18
 969 1270 969 1270 892 1428 c 1,19,20
 932 879 932 879 1116 572 c 1,21,22
 793 186 793 186 663 -84 c 1,23,24
 731 -94 731 -94 852 -94 c 0,25,26
 1061 -94 1061 -94 1319 22 c 1,27,-1
 1323 12 l 1,28,29
 1236 -120 1236 -120 1140 -380 c 1,30,31
 865 -336 865 -336 602 -336 c 0,32,33
 302 -336 302 -336 -28 -380 c 1,0,-1
EndSplineSet
Validated: 1
EndChar

StartChar: minus
Encoding: 8722 8722 161
Width: 1409
GlyphClass: 2
Flags: W
HStem: 606 342<434.078 630.993 1138.39 1333.92> 659 236<486.95 1282.23>
LayerCount: 2
Fore
SplineSet
296 606 m 1,0,-1
 292 616 l 1,1,2
 385 767 385 767 451 948 c 1,3,4
 681 895 681 895 913 895 c 0,5,6
 1197 895 1197 895 1472 948 c 1,7,-1
 1476 938 l 1,8,9
 1383 787 1383 787 1317 606 c 1,10,11
 1096 659 1096 659 836 659 c 0,12,13
 580 659 580 659 296 606 c 1,0,-1
EndSplineSet
Validated: 1
EndChar

StartChar: uni2215
Encoding: 8725 8725 162
Width: 1259
GlyphClass: 2
Flags: W
LayerCount: 2
Fore
SplineSet
327 -150 m 1,0,1
 171 -84 171 -84 -4 -62 c 1,2,3
 369 372 369 372 743 868 c 0,4,5
 1039 1260 1039 1260 1269 1654 c 1,6,-1
 1280 1660 l 1,7,8
 1437 1594 1437 1594 1612 1572 c 1,9,10
 1218 1113 1218 1113 864 642 c 0,11,12
 570 251 570 251 339 -144 c 1,13,-1
 327 -150 l 1,0,1
EndSplineSet
Validated: 1
EndChar

StartChar: asteriskmath
Encoding: 8727 8727 163
Width: 1421
GlyphClass: 2
Flags: W
LayerCount: 2
Fore
SplineSet
1182 1343 m 1,0,-1
 1191 1337 l 1,1,2
 1122 1178 1122 1178 1071 1012 c 1,3,4
 1194 1088 1194 1088 1305 1173 c 1,5,6
 1383 1028 1383 1028 1485 926 c 1,7,-1
 1482 915 l 1,8,9
 1314 862 1314 862 1144 788 c 1,10,11
 1275 718 1275 718 1424 662 c 1,12,-1
 1421 651 l 1,13,14
 1273 549 1273 549 1127 404 c 1,15,16
 1053 490 1053 490 971 563 c 1,17,18
 956 441 956 441 955 316 c 1,19,20
 768 292 768 292 604 234 c 1,21,-1
 595 240 l 1,22,23
 666 406 666 406 716 566 c 1,24,25
 597 492 597 492 480 404 c 1,26,27
 403 549 403 549 300 651 c 1,28,-1
 303 662 l 1,29,30
 478 718 478 718 641 788 c 1,31,32
 505 862 505 862 361 915 c 1,33,-1
 364 926 l 1,34,35
 513 1028 513 1028 658 1173 c 1,36,37
 728 1089 728 1089 814 1015 c 1,38,39
 830 1141 830 1141 831 1261 c 1,40,41
 1018 1285 1018 1285 1182 1343 c 1,0,-1
EndSplineSet
Validated: 1
EndChar

StartChar: uni2218
Encoding: 8728 8728 164
Width: 1025
GlyphClass: 2
Flags: W
VStem: 319 242<691.407 873.488> 833 232<685.579 874.356>
LayerCount: 2
Fore
SplineSet
634 958 m 1,0,1
 578 893 578 893 564 825 c 0,2,3
 561 810 561 810 561 795 c 0,4,5
 561 723 561 723 642 655 c 0,6,7
 692 614 692 614 766 601 c 1,8,9
 809 653 809 653 828 729 c 0,10,11
 833 749 833 749 833 768 c 0,12,13
 833 848 833 848 752 908 c 0,14,15
 703 946 703 946 634 958 c 1,0,1
776 1185 m 1,16,17
 894 1152 894 1152 976 1070 c 0,18,19
 1065 981 1065 981 1065 863 c 0,20,21
 1065 821 1065 821 1054 778 c 0,22,23
 1018 624 1018 624 868 505 c 24,24,25
 768 426 768 426 617 372 c 1,26,-1
 607 372 l 1,27,28
 486 405 486 405 406 487 c 0,29,30
 319 576 319 576 319 695 c 0,31,32
 319 735 319 735 329 779 c 0,33,34
 363 929 363 929 515 1052 c 0,35,36
 611 1129 611 1129 766 1185 c 1,37,-1
 776 1185 l 1,16,17
EndSplineSet
Validated: 1
EndChar

StartChar: uni2219
Encoding: 8729 8729 165
Width: 702
GlyphClass: 2
Flags: W
HStem: 520 518
VStem: 271 519
LayerCount: 2
Fore
SplineSet
782 1038 m 1,0,-1
 790 1032 l 1,1,2
 745 909 745 909 722 809.5 c 128,-1,3
 699 710 699 710 693 612 c 1,4,5
 493 595 493 595 280 520 c 1,6,-1
 271 526 l 1,7,8
 311 622 311 622 338 736 c 0,9,10
 364 847 364 847 368 946 c 1,11,12
 568 963 568 963 782 1038 c 1,0,-1
EndSplineSet
Validated: 1
EndChar

StartChar: radical
Encoding: 8730 8730 166
Width: 1456
GlyphClass: 2
Flags: W
HStem: 0 21G<422 537.5> 1490 20G<1601 1703>
LayerCount: 2
Fore
SplineSet
431 0 m 1,0,-1
 422 6 l 1,1,2
 422 450 422 450 264 712 c 1,3,4
 464 729 464 729 678 804 c 1,5,-1
 686 798 l 1,6,7
 678 732 678 732 678 674 c 0,8,9
 678 509 678 509 740 419 c 1,10,11
 1085 880 1085 880 1322 1422 c 1,12,13
 1507 1444 1507 1444 1695 1510 c 1,14,-1
 1703 1504 l 1,15,16
 1185 818 1185 818 844 92 c 1,17,18
 644 75 644 75 431 0 c 1,0,-1
EndSplineSet
Validated: 1
EndChar

StartChar: uni221B
Encoding: 8731 8731 167
Width: 1456
GlyphClass: 2
Flags: W
HStem: 0 21G<422 537.5> 1490 20G<740 817.5 1601 1703>
VStem: 494 161<1261 1350.68> 768 228<1253.69 1351>
LayerCount: 2
Fore
SplineSet
431 0 m 1,0,-1
 422 6 l 1,1,2
 422 450 422 450 264 712 c 1,3,4
 464 729 464 729 678 804 c 1,5,-1
 686 798 l 1,6,7
 678 732 678 732 678 674 c 0,8,9
 678 509 678 509 740 419 c 1,10,11
 1085 880 1085 880 1322 1422 c 1,12,13
 1507 1444 1507 1444 1695 1510 c 1,14,-1
 1703 1504 l 1,15,16
 1185 818 1185 818 844 92 c 1,17,18
 644 75 644 75 431 0 c 1,0,-1
772 1510 m 1,19,-1
 783 1510 l 1,20,21
 852 1499 852 1499 901 1472 c 0,22,23
 996 1419 996 1419 996 1351 c 0,24,25
 996 1337 996 1337 994 1328 c 0,26,27
 981 1258 981 1258 894 1213 c 1,28,29
 948 1204 948 1204 986 1167 c 0,30,31
 1016 1138 1016 1138 1016 1092 c 0,32,33
 1016 1075 1016 1075 1012 1054 c 0,34,35
 986 945 986 945 854 886 c 0,36,37
 745 837 745 837 644 825 c 1,38,-1
 632 825 l 1,39,40
 538 839 538 839 478 889 c 0,41,42
 426 932 426 932 403 1003 c 1,43,-1
 592 1100 l 1,44,45
 603 1069 603 1069 647 1038 c 0,46,47
 693 1006 693 1006 757 997 c 1,48,49
 775 1022 775 1022 778 1038 c 0,50,51
 779 1043 779 1043 779 1048 c 0,52,53
 779 1078 779 1078 735 1091 c 1,54,-1
 591 1134 l 1,55,56
 750 1193 750 1193 766 1273 c 0,57,58
 768 1283 768 1283 768 1292 c 0,59,60
 768 1331 768 1331 722 1341 c 2,61,-1
 669 1353 l 1,62,63
 659 1326 659 1326 656 1311 c 0,64,65
 655 1306 655 1306 655 1301 c 0,66,67
 655 1269 655 1269 722 1262 c 1,68,-1
 541 1195 l 1,69,70
 494 1211 494 1211 494 1261 c 0,71,72
 494 1275 494 1275 498 1292 c 0,73,74
 519 1382 519 1382 623 1445 c 0,75,76
 708 1497 708 1497 772 1510 c 1,19,-1
EndSplineSet
Validated: 1
EndChar

StartChar: infinity
Encoding: 8734 8734 168
Width: 1537
GlyphClass: 2
Flags: W
VStem: 319 242<691.407 873.488> 833 240<691.407 874.714> 1345 232<685.99 873.999>
LayerCount: 2
Fore
SplineSet
776 1185 m 1,0,1
 894 1152 894 1152 976 1070 c 0,2,3
 993 1053 993 1053 1007 1035 c 1,4,-1
 1027 1052 l 1,5,6
 1123 1129 1123 1129 1278 1185 c 1,7,-1
 1288 1185 l 1,8,9
 1406 1152 1406 1152 1488 1070 c 0,10,11
 1577 981 1577 981 1577 863 c 0,12,13
 1577 821 1577 821 1566 778 c 0,14,15
 1530 624 1530 624 1380 505 c 0,16,17
 1280 426 1280 426 1129 372 c 1,18,-1
 1119 372 l 1,19,20
 994 406 994 406 918 487 c 0,21,22
 902 504 902 504 888 522 c 1,23,-1
 868 505 l 1,24,25
 768 426 768 426 617 372 c 1,26,-1
 607 372 l 1,27,28
 486 405 486 405 406 487 c 0,29,30
 319 576 319 576 319 695 c 0,31,32
 319 735 319 735 329 779 c 0,33,34
 363 929 363 929 515 1052 c 0,35,36
 609 1128 609 1128 766 1185 c 1,37,-1
 776 1185 l 1,0,1
634 958 m 1,38,39
 578 893 578 893 564 825 c 0,40,41
 561 810 561 810 561 795 c 0,42,43
 561 723 561 723 642 655 c 0,44,45
 692 614 692 614 766 601 c 1,46,47
 809 653 809 653 828 729 c 0,48,49
 833 749 833 749 833 768 c 0,50,51
 833 848 833 848 752 908 c 0,52,53
 703 946 703 946 634 958 c 1,38,39
1146 958 m 1,54,55
 1090 893 1090 893 1076 825 c 0,56,57
 1073 810 1073 810 1073 795 c 0,58,59
 1073 723 1073 723 1154 655 c 0,60,61
 1204 614 1204 614 1278 601 c 1,62,63
 1321 653 1321 653 1340 729 c 0,64,65
 1345 749 1345 749 1345 768 c 0,66,67
 1345 848 1345 848 1264 908 c 0,68,69
 1215 946 1215 946 1146 958 c 1,54,55
EndSplineSet
Validated: 1
EndChar

StartChar: approxequal
Encoding: 8776 8776 169
Width: 1383
GlyphClass: 2
Flags: W
HStem: 291 316<855.792 1165.17> 456 316<462.831 772.208> 779 316<968.792 1278.17> 944 316<575.831 885.208>
LayerCount: 2
Fore
SplineSet
336 779 m 1,0,-1
 332 789 l 1,1,2
 419 921 419 921 515 1181 c 1,3,4
 636 1260 636 1260 752 1260 c 0,5,6
 882 1260 882 1260 972 1134 c 0,7,8
 1000 1095 1000 1095 1063 1095 c 0,9,10
 1293 1095 1293 1095 1518 1260 c 1,11,-1
 1522 1250 l 1,12,13
 1435 1118 1435 1118 1339 858 c 1,14,15
 1218 779 1218 779 1102 779 c 0,16,17
 972 779 972 779 882 905 c 0,18,19
 854 944 854 944 791 944 c 0,20,21
 561 944 561 944 336 779 c 1,0,-1
223 291 m 1,22,-1
 219 301 l 1,23,24
 306 433 306 433 402 693 c 1,25,26
 523 772 523 772 639 772 c 0,27,28
 769 772 769 772 859 646 c 0,29,30
 887 607 887 607 950 607 c 0,31,32
 1180 607 1180 607 1405 772 c 1,33,-1
 1409 762 l 1,34,35
 1322 630 1322 630 1226 370 c 1,36,37
 1105 291 1105 291 989 291 c 0,38,39
 859 291 859 291 769 417 c 0,40,41
 741 456 741 456 678 456 c 0,42,43
 448 456 448 456 223 291 c 1,22,-1
EndSplineSet
Validated: 1
EndChar

StartChar: notequal
Encoding: 8800 8800 170
Width: 1517
GlyphClass: 2
Flags: W
HStem: 400 342<1145.12 1339.92> 453 236<968 1288.38> 816 342<536.312 732.993> 868 237<588.95 883>
LayerCount: 2
Fore
SplineSet
200 218 m 1,0,1
 325 321 325 321 438 423 c 1,2,3
 371 413 371 413 302 400 c 1,4,-1
 299 410 l 1,5,6
 392 561 392 561 457 742 c 1,7,8
 591 711 591 711 725 698 c 1,9,10
 789 764 789 764 847 828 c 2,11,-1
 883 868 l 1,12,13
 652 863 652 863 398 816 c 1,14,-1
 395 826 l 1,15,16
 488 977 488 977 553 1158 c 1,17,18
 783 1105 783 1105 1015 1105 c 0,19,20
 1050 1105 1050 1105 1084 1106 c 1,21,22
 1223 1279 1223 1279 1340 1451 c 1,23,-1
 1351 1457 l 1,24,25
 1508 1391 1508 1391 1683 1369 c 1,26,27
 1536 1252 1536 1252 1402 1130 c 1,28,29
 1488 1141 1488 1141 1574 1158 c 1,30,-1
 1578 1148 l 1,31,32
 1485 997 1485 997 1419 816 c 1,33,34
 1280 849 1280 849 1126 862 c 1,35,-1
 1018 746 l 1,36,-1
 968 689 l 1,37,38
 1227 694 1227 694 1478 742 c 1,39,-1
 1482 732 l 1,40,41
 1389 581 1389 581 1323 400 c 1,42,43
 1103 453 1103 453 843 453 c 0,44,45
 805 453 805 453 766 452 c 1,46,47
 616 265 616 265 543 136 c 1,48,-1
 532 130 l 1,49,50
 375 198 375 198 200 218 c 1,0,1
EndSplineSet
Validated: 1
EndChar

StartChar: equivalence
Encoding: 8801 8801 171
Width: 1409
GlyphClass: 2
Flags: W
HStem: 190 342<338.078 534.993 1042.39 1237.92> 243 236<390.95 1186.23> 606 342<434.078 630.993 1138.39 1333.92> 659 236<486.95 1282.23> 1022 342<530.078 726.993 1234.39 1429.92> 1075 236<582.95 1378.23>
LayerCount: 2
Fore
SplineSet
392 1022 m 1,0,-1
 388 1032 l 1,1,2
 481 1183 481 1183 547 1364 c 1,3,4
 777 1311 777 1311 1009 1311 c 0,5,6
 1293 1311 1293 1311 1568 1364 c 1,7,-1
 1572 1354 l 1,8,9
 1479 1203 1479 1203 1413 1022 c 1,10,11
 1192 1075 1192 1075 932 1075 c 0,12,13
 676 1075 676 1075 392 1022 c 1,0,-1
200 190 m 1,14,-1
 196 200 l 1,15,16
 289 351 289 351 355 532 c 1,17,18
 585 479 585 479 817 479 c 0,19,20
 1101 479 1101 479 1376 532 c 1,21,-1
 1380 522 l 1,22,23
 1287 371 1287 371 1221 190 c 1,24,25
 1000 243 1000 243 740 243 c 0,26,27
 484 243 484 243 200 190 c 1,14,-1
296 606 m 1,28,-1
 292 616 l 1,29,30
 385 767 385 767 451 948 c 1,31,32
 681 895 681 895 913 895 c 0,33,34
 1197 895 1197 895 1472 948 c 1,35,-1
 1476 938 l 1,36,37
 1383 787 1383 787 1317 606 c 1,38,39
 1096 659 1096 659 836 659 c 0,40,41
 580 659 580 659 296 606 c 1,28,-1
EndSplineSet
Validated: 1
EndChar

StartChar: lessequal
Encoding: 8804 8804 172
Width: 1480
GlyphClass: 2
Flags: W
HStem: 24 342<299.312 495.993 998.654 1199.69> 77 236<351.95 1148.23>
LayerCount: 2
Fore
SplineSet
162 24 m 1,0,-1
 158 34 l 1,1,2
 251 185 251 185 316 366 c 1,3,4
 546 313 546 313 778 313 c 0,5,6
 1062 313 1062 313 1338 366 c 1,7,-1
 1341 356 l 1,8,9
 1248 205 1248 205 1183 24 c 1,10,11
 962 77 962 77 702 77 c 0,12,13
 446 77 446 77 162 24 c 1,0,-1
328 770 m 1,14,15
 449 966 449 966 510 1162 c 1,16,17
 1069 1244 1069 1244 1631 1545 c 1,18,-1
 1634 1535 l 1,19,20
 1529 1364 1529 1364 1465 1183 c 1,21,22
 1118 1152 1118 1152 796 982 c 1,23,24
 957 804 957 804 1453 774 c 1,25,-1
 1456 764 l 1,26,27
 1337 568 1337 568 1274 372 c 1,28,29
 945 666 945 666 331 760 c 1,30,-1
 328 770 l 1,14,15
EndSplineSet
Validated: 1
EndChar

StartChar: greaterequal
Encoding: 8805 8805 173
Width: 1480
GlyphClass: 2
Flags: W
HStem: 24 342<349.312 545.993 1048.65 1249.69> 77 236<401.95 1198.23>
LayerCount: 2
Fore
SplineSet
212 24 m 1,0,-1
 208 34 l 1,1,2
 301 185 301 185 366 366 c 1,3,4
 596 313 596 313 828 313 c 0,5,6
 1112 313 1112 313 1388 366 c 1,7,-1
 1391 356 l 1,8,9
 1298 205 1298 205 1233 24 c 1,10,11
 1012 77 1012 77 752 77 c 0,12,13
 496 77 496 77 212 24 c 1,0,-1
1595 1147 m 1,14,15
 1474 951 1474 951 1412 755 c 1,16,17
 853 673 853 673 292 372 c 1,18,-1
 288 382 l 1,19,20
 394 553 394 553 457 734 c 1,21,22
 805 765 805 765 1127 935 c 1,23,24
 969 1107 969 1107 470 1143 c 1,25,-1
 466 1153 l 1,26,27
 585 1349 585 1349 649 1545 c 1,28,29
 1008 1257 1008 1257 1591 1157 c 1,30,-1
 1595 1147 l 1,14,15
EndSplineSet
Validated: 1
EndChar

StartChar: lozenge
Encoding: 9674 9674 174
Width: 1583
GlyphClass: 2
Flags: W
LayerCount: 2
Fore
SplineSet
1272 1384 m 1,0,-1
 1280 1378 l 1,1,2
 1365 1083 1365 1083 1627 839 c 1,3,4
 1290 572 1290 572 1085 272 c 1,5,6
 885 255 885 255 672 180 c 1,7,-1
 663 186 l 1,8,9
 570 480 570 480 318 727 c 1,10,11
 669 990 669 990 858 1292 c 1,12,13
 1058 1309 1058 1309 1272 1384 c 1,0,-1
965 1072 m 1,14,15
 795 938 795 938 721 820 c 1,16,17
 768 597 768 597 946 471 c 1,18,19
 1075 575 1075 575 1204 747 c 1,20,21
 1162 950 1162 950 965 1072 c 1,14,15
EndSplineSet
Validated: 1
EndChar

StartChar: Y
Encoding: 89 89 175
Width: 1363
Flags: W
HStem: 0 21G<498 613.5> 1490 20G<639 754 1603 1705>
LayerCount: 2
Fore
SplineSet
507 0 m 1,0,-1
 498 6 l 1,1,2
 577 230 577 230 628 412 c 1,3,4
 564 894 564 894 332 1418 c 1,5,6
 532 1435 532 1435 746 1510 c 1,7,-1
 754 1504 l 1,8,9
 774 1014 774 1014 895 718 c 1,10,11
 1134 1028 1134 1028 1324 1422 c 1,12,13
 1509 1444 1509 1444 1697 1510 c 1,14,-1
 1705 1504 l 1,15,16
 1153 831 1153 831 972 458 c 1,17,18
 939 273 939 273 920 92 c 1,19,20
 720 75 720 75 507 0 c 1,0,-1
EndSplineSet
Validated: 1
EndChar

StartChar: X
Encoding: 88 88 176
Width: 1413
Flags: W
HStem: 0 21G<31 133.5 982 1097.5> 1490 20G<664 779 1628 1730>
LayerCount: 2
Fore
SplineSet
40 0 m 1,0,-1
 31 6 l 1,1,2
 486 429 486 429 731 703 c 1,3,4
 554 1090 554 1090 357 1418 c 1,5,6
 557 1435 557 1435 771 1510 c 1,7,-1
 779 1504 l 1,8,9
 828 1252 828 1252 962 922 c 1,10,11
 1158 1150 1158 1150 1349 1422 c 1,12,13
 1534 1444 1534 1444 1722 1510 c 1,14,-1
 1730 1504 l 1,15,16
 1305 1086 1305 1086 1042 742 c 1,17,18
 1180 416 1180 416 1404 92 c 1,19,20
 1204 75 1204 75 991 0 c 1,21,-1
 982 6 l 1,22,23
 910 279 910 279 813 526 c 1,24,25
 606 312 606 312 412 88 c 1,26,27
 227 66 227 66 40 0 c 1,0,-1
EndSplineSet
Validated: 1
EndChar

StartChar: Z
Encoding: 90 90 177
Width: 1358
Flags: W
HStem: 0 21G<81 241.5 1067.5 1234> 44 242<753 1131.17> 1224 241<612.239 1031> 1490 20G<542 694.5 1440 1605>
LayerCount: 2
Fore
SplineSet
90 0 m 1,0,-1
 81 6 l 1,1,2
 605 579 605 579 1031 1223 c 1,3,4
 1011 1224 1011 1224 928 1224 c 0,5,6
 668 1224 668 1224 411 1108 c 1,7,-1
 407 1118 l 1,8,9
 494 1250 494 1250 590 1510 c 1,10,11
 799 1465 799 1465 1058 1465 c 0,12,13
 1283 1465 1283 1465 1597 1510 c 1,14,-1
 1605 1504 l 1,15,16
 928 642 928 642 753 286 c 1,17,18
 1070 286 1070 286 1365 402 c 1,19,-1
 1368 392 l 1,20,21
 1282 260 1282 260 1186 0 c 1,22,23
 949 44 949 44 666 44 c 0,24,25
 393 44 393 44 90 0 c 1,0,-1
EndSplineSet
Validated: 1
EndChar

StartChar: J
Encoding: 74 74 178
Width: 1357
VWidth: 0
Flags: W
HStem: 0 21G<414 685.5> 1490 20G<1409 1524>
LayerCount: 2
Fore
SplineSet
562 0 m 1,0,-1
 552 0 l 1,1,2
 276 102 276 102 157 256 c 16,3,4
 123 300 123 300 101 349 c 1,5,-1
 455 506 l 1,6,7
 472 479 472 479 498 453 c 0,8,9
 600 349 600 349 868 336 c 1,10,11
 933 502 933 502 985 730 c 0,12,13
 1070 1105 1070 1105 1102 1418 c 1,14,15
 1302 1435 1302 1435 1516 1510 c 1,16,-1
 1524 1504 l 1,17,18
 1400 1153 1400 1153 1313 782 c 0,19,20
 1287 671 1287 671 1264 554 c 1,21,22
 1178 386 1178 386 1014 249 c 8,23,24
 809 77 809 77 562 0 c 1,0,-1
EndSplineSet
Validated: 1
EndChar

StartChar: U
Encoding: 85 85 179
Width: 1564
VWidth: 0
Flags: W
HStem: 0 21G<602 892.5> 1490 20G<814 929 1616 1731>
VStem: 322 376<376.354 650.244>
LayerCount: 2
Fore
SplineSet
769 0 m 1,0,-1
 759 0 l 1,1,2
 445 115 445 115 364 256 c 16,3,4
 322 329 322 329 322 424 c 0,5,6
 322 482 322 482 337 547 c 1,7,8
 389 726 389 726 436 930 c 0,9,10
 482 1131 482 1131 507 1418 c 1,11,12
 707 1435 707 1435 921 1510 c 1,13,-1
 929 1504 l 1,14,15
 812 1191 812 1191 747 910 c 0,16,17
 698 697 698 697 698 575 c 0,18,19
 698 476 698 476 730 437 c 0,20,21
 802 349 802 349 1075 336 c 1,22,23
 1140 502 1140 502 1192 730 c 0,24,25
 1277 1105 1277 1105 1309 1418 c 1,26,27
 1509 1435 1509 1435 1723 1510 c 1,28,-1
 1731 1504 l 1,29,30
 1607 1153 1607 1153 1520 782 c 0,31,32
 1494 671 1494 671 1471 554 c 1,33,34
 1385 386 1385 386 1221 249 c 8,35,36
 1016 77 1016 77 769 0 c 1,0,-1
EndSplineSet
Validated: 1
EndChar

StartChar: K
Encoding: 75 75 180
Width: 1483
Flags: W
HStem: 0 21G<181 296.5 982 1097.5> 1490 20G<817 932 1610 1725>
LayerCount: 2
Fore
SplineSet
190 0 m 1,0,-1
 181 6 l 1,1,2
 312 376 312 376 393 730 c 0,3,4
 469 1063 469 1063 510 1418 c 1,5,6
 710 1435 710 1435 924 1510 c 1,7,-1
 932 1504 l 1,8,9
 807 1154 807 1154 721 782 c 1,10,11
 1054 1076 1054 1076 1303 1418 c 1,12,13
 1503 1435 1503 1435 1717 1510 c 1,14,-1
 1725 1504 l 1,15,16
 1334 1152 1334 1152 1133 904 c 1,17,18
 1192 430 1192 430 1404 92 c 1,19,20
 1204 75 1204 75 991 0 c 1,21,-1
 982 6 l 1,22,23
 947 332 947 332 820 616 c 1,24,25
 722 526 722 526 647 413 c 1,26,27
 620 251 620 251 603 92 c 1,28,29
 403 75 403 75 190 0 c 1,0,-1
EndSplineSet
Validated: 1
EndChar

StartChar: Q
Encoding: 81 81 181
Width: 1504
VWidth: 0
Flags: W
HStem: 0 21G<632 832 984 1115> 1490 20G<948 1219.5>
VStem: 272 343<534.628 834.191> 1238 342<676.522 975.102>
LayerCount: 2
Fore
SplineSet
765 1174 m 1,0,1
 668 1028 668 1028 632 864 c 0,2,3
 615 787 615 787 615 721 c 0,4,5
 615 560 615 560 718 453 c 0,6,7
 777 392 777 392 893 361 c 1,8,9
 840 490 840 490 756 608 c 1,10,11
 845 625 845 625 1090 700 c 1,12,-1
 1098 694 l 1,13,14
 1111 566 1111 566 1149 445 c 1,15,16
 1196 543 1196 543 1220 646 c 0,17,18
 1238 723 1238 723 1238 790 c 0,19,20
 1238 950 1238 950 1136 1055.5 c 128,-1,21
 1034 1161 1034 1161 765 1174 c 1,0,1
782 0 m 1,22,-1
 772 0 l 1,23,24
 492 103 492 103 376 255 c 0,25,26
 272 392 272 392 272 576 c 0,27,28
 272 659 272 659 293 751 c 0,29,30
 361 1048 361 1048 618 1261 c 0,31,32
 825 1433 825 1433 1071 1510 c 1,33,-1
 1081 1510 l 1,34,35
 1358 1408 1358 1408 1476 1254 c 0,36,37
 1580 1118 1580 1118 1580 934 c 0,38,39
 1580 852 1580 852 1559 759 c 0,40,41
 1493 468 1493 468 1232 246 c 1,42,43
 1273 167 1273 167 1326 92 c 1,44,45
 1237 75 1237 75 993 0 c 1,46,-1
 984 6 l 1,47,48
 981 42 981 42 975 77 c 1,49,50
 882 31 882 31 782 0 c 1,22,-1
EndSplineSet
Validated: 1
EndChar

StartChar: P
Encoding: 80 80 182
Width: 1426
VWidth: 0
Flags: W
HStem: 0 21G<192 307.5> 352 227<688.973 1024.22> 1182 328<668.801 1092.79>
VStem: 1214 339<819.271 1070.74>
LayerCount: 2
Fore
SplineSet
201 0 m 1,0,-1
 192 6 l 1,1,2
 303 323 303 323 348 515 c 0,3,4
 378 643 378 643 408 938 c 1,5,6
 607 955 607 955 821 1030 c 1,7,-1
 829 1024 l 1,8,9
 725 760 725 760 687 609 c 1,10,11
 773 579 773 579 856 579 c 0,12,13
 981 579 981 579 1081 662 c 0,14,15
 1177 742 1177 742 1206 869 c 0,16,17
 1214 904 1214 904 1214 936 c 0,18,19
 1214 1021 1214 1021 1159 1086 c 0,20,21
 1078 1182 1078 1182 890 1182 c 0,22,23
 649 1182 649 1182 359 1011 c 1,24,-1
 356 1021 l 1,25,26
 476 1217 476 1217 538 1413 c 1,27,28
 728 1510 728 1510 966 1510 c 0,29,30
 1292 1510 1292 1510 1444 1340 c 0,31,32
 1553 1218 1553 1218 1553 1049 c 0,33,34
 1553 986 1553 986 1537 911 c 0,35,36
 1483 677 1483 677 1288 522 c 0,37,38
 1075 352 1075 352 804 352 c 0,39,40
 726 352 726 352 641 368 c 1,41,42
 623 240 623 240 614 92 c 1,43,44
 414 75 414 75 201 0 c 1,0,-1
EndSplineSet
Validated: 1
EndChar

StartChar: D
Encoding: 68 68 183
Width: 1528
VWidth: 0
Flags: W
HStem: 0 241<804 965.06> 1182 328<668.801 1094.04>
VStem: 1265 339<667.731 1014.91>
LayerCount: 2
Fore
SplineSet
201 0 m 1,0,1
 192 6 l 1,2,3
 303 323 303 323 348 515 c 0,4,5
 378 643 378 643 408 938 c 1,6,7
 607 955 607 955 821 1030 c 1,8,-1
 829 1024 l 1,9,10
 716 737 716 737 680 580 c 0,11,12
 636 389 636 389 629 268 c 1,13,14
 706 241 706 241 793 241 c 0,15,16
 886 241 886 241 965 282 c 0,17,18
 1042 321 1042 321 1104 407 c 0,19,20
 1213 557 1213 557 1251 723 c 0,21,22
 1265 784 1265 784 1265 838 c 0,23,24
 1265 972 1265 972 1182 1070 c 0,25,26
 1087 1182 1087 1182 890 1182 c 0,27,28
 649 1182 649 1182 359 1011 c 1,29,-1
 356 1021 l 1,30,31
 476 1217 476 1217 538 1413 c 1,32,33
 728 1510 728 1510 966 1510 c 0,34,35
 1291 1510 1291 1510 1462 1326 c 0,36,37
 1604 1173 1604 1173 1604 945 c 0,38,39
 1604 850 1604 850 1579 740 c 0,40,41
 1527 510 1527 510 1363 318 c 0,42,43
 1093 0 1093 0 804 0 c 1,44,-1
 614 92 l 1,45,46
 414 75 414 75 201 0 c 1,0,1
EndSplineSet
Validated: 1
EndChar

StartChar: R
Encoding: 82 82 184
Width: 1513
VWidth: 0
Flags: W
HStem: 0 21G<192 307.5 982 1097.5> 352 227<689.687 835.557> 1182 328<668.801 1093.23>
VStem: 1214 339<819.109 1070.64>
LayerCount: 2
Fore
SplineSet
201 0 m 1,0,-1
 192 6 l 1,1,2
 303 323 303 323 348 515 c 0,3,4
 378 643 378 643 408 938 c 1,5,6
 607 955 607 955 821 1030 c 1,7,-1
 829 1024 l 1,8,9
 725 760 725 760 687 609 c 1,10,11
 773 579 773 579 856 579 c 0,12,13
 982 579 982 579 1081 662 c 0,14,15
 1176 741 1176 741 1206 869 c 0,16,17
 1214 903 1214 903 1214 935 c 0,18,19
 1214 1020 1214 1020 1159 1086 c 8,20,21
 1080 1182 1080 1182 890 1182 c 0,22,23
 649 1182 649 1182 359 1011 c 1,24,-1
 356 1021 l 1,25,26
 476 1217 476 1217 538 1413 c 1,27,28
 728 1510 728 1510 966 1510 c 0,29,30
 1292 1510 1292 1510 1444 1340 c 0,31,32
 1553 1218 1553 1218 1553 1049 c 0,33,34
 1553 985 1553 985 1537 911 c 0,35,36
 1483 677 1483 677 1288 522 c 0,37,38
 1221 469 1221 469 1149 432 c 1,39,40
 1228 254 1228 254 1404 92 c 1,41,42
 1204 75 1204 75 991 0 c 1,43,-1
 982 6 l 1,44,45
 920 204 920 204 804 352 c 1,46,47
 726 352 726 352 641 368 c 1,48,49
 623 240 623 240 614 92 c 1,50,51
 414 75 414 75 201 0 c 1,0,-1
EndSplineSet
Validated: 1
EndChar

StartChar: S
Encoding: 83 83 185
Width: 1356
VWidth: 0
Flags: W
HStem: 0 21G<566.5 841> 1490 20G<876.5 1156.5>
VStem: 384 281<955 1119.12> 1067 298<428.04 682.5>
DStem2: 779 1001 617 693 0.930108 -0.367287<-137.02 459.353>
LayerCount: 2
Fore
SplineSet
715 0 m 1,0,-1
 705 0 l 1,1,2
 428 98 428 98 309 255 c 0,3,4
 246 338 246 338 221 439 c 1,5,-1
 569 581 l 1,6,7
 609 489 609 489 651 453 c 0,8,9
 799 328 799 328 1011 296 c 1,10,11
 1049 356 1049 356 1064 424 c 0,12,13
 1067 438 1067 438 1067 450 c 0,14,15
 1067 533 1067 533 934 580 c 2,16,-1
 617 693 l 2,17,18
 384 776 384 776 384 955 c 0,19,20
 384 991 384 991 393 1031 c 0,21,22
 420 1150 420 1150 551 1261 c 0,23,24
 749 1428 749 1428 1004 1510 c 1,25,-1
 1014 1510 l 1,26,27
 1299 1405 1299 1405 1409 1254 c 0,28,29
 1417 1243 1417 1243 1429 1225 c 1,30,-1
 1106 1011 l 1,31,32
 1077 1050 1077 1050 1068 1057 c 0,33,34
 895 1192 895 1192 722 1234 c 1,35,36
 678 1185 678 1185 667 1130 c 0,37,38
 665 1120 665 1120 665 1111 c 0,39,40
 665 1046 665 1046 779 1001 c 2,41,-1
 1131 862 l 2,42,43
 1365 770 1365 770 1365 595 c 0,44,45
 1365 562 1365 562 1357 526 c 0,46,47
 1325 382 1325 382 1167 248 c 0,48,49
 967 78 967 78 715 0 c 1,0,-1
EndSplineSet
Validated: 1
EndChar

StartChar: two
Encoding: 50 50 186
Width: 1401
VWidth: 0
Flags: W
HStem: 0 21G<121 285.5 1070 1237> 45 259<601.707 1181.56> 1490 20G<903 1184.5>
VStem: 399 277<882.787 1098.73>
LayerCount: 2
Fore
SplineSet
130 0 m 1,0,1
 121 6 l 1,2,3
 311 414 311 414 664 640 c 0,4,5
 715 672 715 672 1030 848 c 0,6,7
 1117 897 1117 897 1129 956 c 0,8,9
 1131 966 1131 966 1131 976 c 0,10,11
 1131 1016 1131 1016 1095 1057 c 0,12,13
 1004 1158 1004 1158 725 1174 c 1,14,15
 692 1137 692 1137 679 1088 c 0,16,17
 676 1077 676 1077 676 1066 c 0,18,19
 676 974 676 974 872 937 c 1,20,-1
 506 753 l 1,21,22
 399 841 399 841 399 947 c 0,23,24
 399 971 399 971 405 997 c 0,25,26
 438 1141 438 1141 578 1261 c 0,27,28
 775 1430 775 1430 1031 1510 c 1,29,-1
 1041 1510 l 1,30,31
 1328 1402 1328 1402 1436 1254 c 0,32,33
 1494 1174 1494 1174 1494 1076 c 0,34,35
 1494 1038 1494 1038 1485 994 c 8,36,37
 1425 734 1425 734 1092 600 c 0,38,39
 912 528 912 528 802 471 c 0,40,41
 664 400 664 400 597 341 c 1,42,43
 727 304 727 304 907 304 c 0,44,45
 1150 304 1150 304 1368 402 c 1,46,-1
 1372 392 l 1,47,48
 1285 260 1285 260 1189 0 c 1,49,50
 951 45 951 45 701 45 c 0,51,52
 441 45 441 45 130 0 c 1,0,1
EndSplineSet
Validated: 1
EndChar

StartChar: three
Encoding: 51 51 187
Width: 1355
Flags: W
HStem: 0 21G<568 843> 1490 20G<874.5 1114>
VStem: 460 299<1007.7 1179.01> 1044 340<1052.26 1233> 1066 297<427.228 623.5>
LayerCount: 2
Fore
SplineSet
715 0 m 1,0,-1
 705 0 l 1,1,2
 431 99 431 99 309 255 c 0,3,4
 248 333 248 333 221 438 c 1,5,-1
 569 582 l 1,6,7
 593 516 593 516 651 453 c 0,8,9
 747 349 747 349 1021 336 c 1,10,11
 1055 386 1055 386 1063 421 c 0,12,13
 1066 434 1066 434 1066 446 c 0,14,15
 1066 528 1066 528 932 580 c 2,16,-1
 536 733 l 1,17,-1
 886 883 l 1,18,19
 1044 948 1044 948 1044 1064 c 24,20,21
 1044 1124 1044 1124 1007 1149 c 0,22,23
 908 1217 908 1217 797 1240 c 1,24,25
 769 1202 769 1202 762 1172 c 0,26,27
 759 1160 759 1160 759 1148 c 0,28,29
 759 1078 759 1078 873 1054 c 1,30,-1
 527 887 l 1,31,32
 460 954 460 954 460 1038 c 0,33,34
 460 1063 460 1063 466 1091 c 0,35,36
 485 1180 485 1180 597 1287 c 0,37,38
 745 1428 745 1428 1004 1510 c 1,39,-1
 1014 1510 l 1,40,41
 1214 1437 1214 1437 1316 1339 c 0,42,43
 1384 1274 1384 1274 1384 1192 c 0,44,45
 1384 1165 1384 1165 1377 1138 c 0,46,47
 1339 993 1339 993 1157 888 c 1,48,-1
 1117 866 l 1,49,50
 1274 809 1274 809 1327 719 c 0,51,52
 1363 658 1363 658 1363 589 c 0,53,54
 1363 559 1363 559 1356 525 c 0,55,56
 1322 381 1322 381 1167 249 c 0,57,58
 971 81 971 81 715 0 c 1,0,-1
EndSplineSet
Validated: 1
EndChar

StartChar: five
Encoding: 53 53 188
Width: 1355
Flags: W
HStem: 0 21G<568 843> 1490 20G<880 995 1466.5 1552>
VStem: 573 291<1099.64 1265.98> 1066 299<428.8 635.5>
LayerCount: 2
Fore
SplineSet
715 0 m 1,0,-1
 705 0 l 1,1,2
 431 99 431 99 309 255 c 0,3,4
 248 333 248 333 221 438 c 1,5,-1
 569 582 l 1,6,7
 593 516 593 516 651 453 c 0,8,9
 747 349 747 349 1021 336 c 1,10,11
 1056 388 1056 388 1063 421 c 0,12,13
 1066 436 1066 436 1066 449 c 0,14,15
 1066 556 1066 556 935 597 c 2,16,-1
 421 756 l 1,17,18
 481 893 481 893 526 1088 c 0,19,20
 569 1275 569 1275 573 1418 c 1,21,22
 773 1435 773 1435 987 1510 c 1,23,-1
 995 1504 l 1,24,25
 1088 1461 1088 1461 1265 1461 c 0,26,27
 1384 1461 1384 1461 1549 1510 c 1,28,-1
 1552 1500 l 1,29,30
 1466 1368 1466 1368 1370 1108 c 1,31,32
 1189 1121 1189 1121 1102 1183 c 0,33,34
 1002 1254 1002 1254 969 1428 c 1,35,36
 906 1278 906 1278 888 1184 c 0,37,38
 864 1059 864 1059 864 977 c 9,39,-1
 1124 900 l 18,40,41
 1266 858 1266 858 1330 738 c 0,42,43
 1365 672 1365 672 1365 599 c 0,44,45
 1365 567 1365 567 1356 525 c 0,46,47
 1326 384 1326 384 1167 249 c 0,48,49
 971 81 971 81 715 0 c 1,0,-1
EndSplineSet
Validated: 1
EndChar

StartChar: cent
Encoding: 162 162 189
Width: 1188
Flags: W
VStem: 216 314<430.627 660.131>
LayerCount: 2
Fore
SplineSet
435 -150 m 1,0,-1
 427 -144 l 1,1,2
 461 -42 461 -42 492 51 c 1,3,4
 389 99 389 99 326 166 c 0,5,6
 216 284 216 284 216 445 c 0,7,8
 216 504 216 504 231 569 c 0,9,10
 276 765 276 765 450 914 c 0,11,12
 576 1022 576 1022 727 1086 c 1,13,14
 734 1138 734 1138 741 1192 c 1,15,16
 872 1217 872 1217 1014 1280 c 1,17,-1
 1022 1274 l 1,18,19
 990 1180 990 1180 963 1094 c 1,20,21
 1089 1041 1089 1041 1163 964 c 0,22,23
 1222 902 1222 902 1248 829 c 1,24,-1
 941 665 l 1,25,26
 915 716 915 716 862 762 c 1,27,28
 833 657 833 657 818 590 c 0,29,30
 791 473 791 473 763 307 c 1,31,32
 811 295 811 295 870 291 c 1,33,34
 888 370 888 370 888 458 c 1,35,-1
 1171 361 l 1,36,37
 1118 282 1118 282 1039 216 c 0,38,39
 889 91 889 91 719 27 c 1,40,-1
 708 -62 l 1,41,42
 578 -89 578 -89 435 -150 c 1,0,-1
688 832 m 1,43,44
 658 836 658 836 625 839 c 1,45,46
 556 730 556 730 538 646 c 0,47,48
 530 609 530 609 530 574 c 0,49,50
 530 476 530 476 596 403 c 1,51,52
 619 486 619 486 631 540 c 0,53,54
 663 684 663 684 688 832 c 1,43,44
EndSplineSet
Validated: 1
EndChar

StartChar: paragraph
Encoding: 182 182 190
Width: 1266
Flags: W
HStem: 0 21G<712 764.5> 1490 20G<750.5 893.5 1348 1463>
LayerCount: 2
Fore
SplineSet
721 0 m 1,0,-1
 712 6 l 1,1,2
 839 364 839 364 924 730 c 1,3,-1
 687 589 l 1,4,-1
 677 589 l 1,5,6
 452 627 452 627 377 751 c 0,7,8
 329 830 329 830 329 934 c 0,9,10
 329 995 329 995 345 1061 c 0,11,12
 385 1242 385 1242 558 1375 c 0,13,14
 668 1460 668 1460 833 1510 c 1,15,-1
 843 1510 l 1,16,17
 944 1490 944 1490 1005 1445 c 0,18,19
 1020 1434 1020 1434 1041 1418 c 1,20,21
 1241 1435 1241 1435 1455 1510 c 1,22,-1
 1463 1504 l 1,23,24
 1342 1165 1342 1165 1252 782 c 0,25,26
 1170 433 1170 433 1134 92 c 1,27,-1
 956 62 l 1,28,-1
 1237 1277 l 1,29,-1
 1177 1277 l 1,30,-1
 894 52 l 1,31,32
 808 31 808 31 721 0 c 1,0,-1
EndSplineSet
Validated: 1
EndChar

StartChar: uni00B5
Encoding: 181 181 191
Width: 1413
Flags: W
HStem: -380 21G<64 179> 0 21G<675 777 862 977.5> 1110 20G<699.5 814 1407.5 1522>
LayerCount: 2
Fore
SplineSet
871 0 m 1,0,-1
 862 6 l 1,1,-1
 880 50 l 1,2,3
 813 21 813 21 741 0 c 1,4,-1
 731 0 l 1,5,6
 619 33 619 33 538 81 c 1,7,8
 505 -106 505 -106 486 -288 c 1,9,10
 286 -305 286 -305 72 -380 c 1,11,-1
 64 -374 l 1,12,13
 193 -8 193 -8 275 350 c 0,14,15
 351 681 351 681 393 1038 c 1,16,17
 593 1055 593 1055 806 1130 c 1,18,-1
 814 1124 l 1,19,20
 702 798 702 798 666 646 c 0,21,22
 652 587 652 587 652 538 c 0,23,24
 652 432 652 432 718 377 c 0,25,26
 807 302 807 302 966 291 c 1,27,28
 1002 405 1002 405 1025 503 c 0,29,30
 1088 771 1088 771 1101 1038 c 1,31,32
 1301 1055 1301 1055 1514 1130 c 1,33,-1
 1522 1124 l 1,34,35
 1409 795 1409 795 1355 565 c 0,36,37
 1301 331 1301 331 1284 92 c 1,38,39
 1084 75 1084 75 871 0 c 1,0,-1
EndSplineSet
Validated: 1
EndChar

StartChar: M
Encoding: 77 77 192
Width: 1854
Flags: W
HStem: 0 21G<51 141 690 805.5 1403 1518.5> 1490 20G<785 900 1839 1954>
VStem: 1535 272<350.172 861.336>
LayerCount: 2
Fore
SplineSet
60 0 m 1,0,-1
 51 6 l 1,1,2
 351 592 351 592 534 1181 c 1,3,-1
 478 1418 l 1,4,5
 678 1435 678 1435 892 1510 c 1,6,-1
 900 1504 l 1,7,8
 891 1351 891 1351 891 1213 c 0,9,10
 891 721 891 721 1008 419 c 1,11,12
 1318 828 1318 828 1538 1298 c 1,13,-1
 1532 1418 l 1,14,15
 1732 1435 1732 1435 1946 1510 c 1,16,-1
 1954 1504 l 1,17,-1
 1931 1406 l 1,18,19
 1807 870 1807 870 1807 422 c 0,20,21
 1807 252 1807 252 1825 92 c 1,22,23
 1625 75 1625 75 1412 0 c 1,24,-1
 1403 6 l 1,25,26
 1442 129 1442 129 1468 241 c 0,27,28
 1535 534 1535 534 1535 807 c 0,29,30
 1535 838 1535 838 1534 866 c 1,31,32
 1277 480 1277 480 1112 92 c 1,33,34
 912 75 912 75 699 0 c 1,35,-1
 690 6 l 1,36,37
 684 555 684 555 604 796 c 1,38,39
 478 460 478 460 392 88 c 1,40,41
 222 66 222 66 60 0 c 1,0,-1
EndSplineSet
Validated: 1
EndChar

StartChar: B
Encoding: 66 66 193
Width: 1500
VWidth: 0
Flags: W
HStem: 0 241<804 1009.73> 1182 328<668.801 1026.9>
VStem: 1051 317<1034 1260> 1189 319<403.054 610.357>
LayerCount: 2
Fore
SplineSet
201 0 m 1,0,-1
 192 6 l 1,1,2
 303 323 303 323 348 515 c 0,3,4
 378 643 378 643 408 938 c 1,5,6
 607 955 607 955 821 1030 c 1,7,-1
 829 1024 l 1,8,9
 716 737 716 737 680 580 c 0,10,11
 636 389 636 389 629 268 c 1,12,13
 705 241 705 241 793 241 c 0,14,15
 950 241 950 241 1045 303 c 0,16,17
 1161 379 1161 379 1184 484 c 0,18,19
 1189 507 1189 507 1189 528 c 0,20,21
 1189 579 1189 579 1154 608 c 0,22,23
 1106 647 1106 647 1003 647 c 0,24,25
 895 647 895 647 747 522 c 1,26,-1
 743 532 l 1,27,28
 863 728 863 728 925 924 c 1,29,30
 1033 965 1033 965 1046 1031 c 0,31,32
 1051 1056 1051 1056 1051 1075 c 0,33,34
 1051 1109 1051 1109 1035 1131 c 0,35,36
 996 1182 996 1182 890 1182 c 0,37,38
 649 1182 649 1182 359 1011 c 1,39,-1
 356 1021 l 1,40,41
 476 1217 476 1217 538 1413 c 1,42,43
 728 1510 728 1510 966 1510 c 0,44,45
 1179 1510 1179 1510 1292 1393 c 0,46,47
 1368 1314 1368 1314 1368 1206 c 0,48,49
 1368 1169 1368 1169 1359 1127 c 0,50,51
 1335 1016 1335 1016 1237 930 c 1,52,53
 1369 895 1369 895 1441 803 c 0,54,55
 1508 717 1508 717 1508 603 c 0,56,57
 1508 553 1508 553 1495 498 c 0,58,59
 1445 286 1445 286 1246 147 c 0,60,61
 1036 0 1036 0 804 0 c 1,62,-1
 614 92 l 1,63,64
 414 75 414 75 201 0 c 1,0,-1
EndSplineSet
Validated: 1
EndChar

StartChar: F
Encoding: 70 70 194
Width: 1193
Flags: W
HStem: 0 21G<181 296.5> 593 242<733 1066.66> 1490 20G<817 932 1403.5 1489>
LayerCount: 2
Fore
SplineSet
190 0 m 1,0,-1
 181 6 l 1,1,2
 312 376 312 376 393 730 c 0,3,4
 469 1063 469 1063 510 1418 c 1,5,6
 710 1435 710 1435 924 1510 c 1,7,-1
 932 1504 l 1,8,9
 1031 1461 1031 1461 1202 1461 c 0,10,11
 1321 1461 1321 1461 1486 1510 c 1,12,-1
 1489 1500 l 1,13,14
 1403 1368 1403 1368 1307 1108 c 1,15,16
 1126 1121 1126 1121 1039 1183 c 0,17,18
 939 1254 939 1254 906 1428 c 1,19,20
 806 1136 806 1136 733 835 c 1,21,22
 1009 835 1009 835 1263 950 c 1,23,-1
 1267 940 l 1,24,25
 1181 808 1181 808 1085 548 c 1,26,27
 942 593 942 593 680 593 c 1,28,29
 630 342 630 342 603 92 c 1,30,31
 403 75 403 75 190 0 c 1,0,-1
EndSplineSet
Validated: 1
EndChar

StartChar: dollar
Encoding: 36 36 195
Width: 1356
Flags: W
VStem: 384 276<866.5 1108.38> 1067 298<430.68 680.5>
LayerCount: 2
Fore
SplineSet
1185 1660 m 1,0,-1
 1194 1654 l 1,1,2
 1161 1559 1161 1559 1130 1461 c 1,3,4
 1325 1370 1325 1370 1409 1254 c 0,5,6
 1417 1243 1417 1243 1429 1225 c 1,7,-1
 1106 1011 l 1,8,9
 1087 1037 1087 1037 1068 1057 c 128,-1,10
 1049 1077 1049 1077 1024 1093 c 1,11,12
 1001 1008 1001 1008 980 922 c 1,13,-1
 1131 862 l 2,14,15
 1365 768 1365 768 1365 593 c 0,16,17
 1365 561 1365 561 1357 526 c 0,18,19
 1324 382 1324 382 1167 248 c 0,20,21
 1004 109 1004 109 804 31 c 1,22,23
 797 -16 797 -16 792 -62 c 1,24,25
 662 -89 662 -89 519 -150 c 1,26,-1
 511 -144 l 1,27,28
 544 -47 544 -47 575 53 c 1,29,30
 398 138 398 138 309 255 c 0,31,32
 247 337 247 337 221 439 c 1,33,-1
 569 581 l 1,34,35
 601 507 601 507 651 453 c 0,36,37
 665 438 665 438 683 424 c 1,38,39
 713 535 713 535 740 649 c 1,40,-1
 617 693 l 2,41,42
 384 777 384 777 384 956 c 0,43,44
 384 992 384 992 393 1031 c 0,45,46
 421 1152 421 1152 551 1261 c 0,47,48
 709 1393 709 1393 899 1472 c 1,49,50
 906 1522 906 1522 913 1572 c 1,51,52
 1044 1597 1044 1597 1185 1660 c 1,0,-1
815 987 m 1,53,54
 832 1073 832 1073 847 1158 c 1,55,56
 780 1170 780 1170 698 1174 c 1,57,58
 665 1127 665 1127 661 1106 c 0,59,60
 660 1101 660 1101 660 1096 c 0,61,62
 660 1047 660 1047 779 1001 c 2,63,-1
 815 987 l 1,53,54
904 591 m 1,64,65
 879 471 879 471 858 354 c 1,66,67
 929 340 929 340 1021 336 c 1,68,69
 1058 395 1058 395 1064 424 c 0,70,71
 1067 438 1067 438 1067 451 c 0,72,73
 1067 531 1067 531 934 580 c 2,74,-1
 904 591 l 1,64,65
EndSplineSet
Validated: 1
EndChar

StartChar: Agrave
Encoding: 192 192 196
Width: 1483
Flags: W
HStem: 0 21G<6 108.5 1077 1192.5> 421 231<680.715 1054.43> 1490 20G<1172 1287>
LayerCount: 2
Fore
SplineSet
15 0 m 1,0,-1
 6 6 l 1,1,2
 525 692 525 692 865 1418 c 1,3,4
 1065 1435 1065 1435 1279 1510 c 1,5,-1
 1287 1504 l 1,6,7
 1292 723 1292 723 1499 92 c 1,8,9
 1299 75 1299 75 1086 0 c 1,10,-1
 1077 6 l 1,11,12
 1087 119 1087 119 1087 226 c 0,13,14
 1086 326 1086 326 1079 411 c 1,15,16
 970 421 970 421 800 421 c 0,17,18
 641 421 641 421 542 411 c 1,19,20
 459 253 459 253 387 88 c 1,21,22
 202 66 202 66 15 0 c 1,0,-1
678 655 m 1,23,24
 740 652 740 652 866 652 c 0,25,26
 1000 652 1000 652 1058 654 c 1,27,28
 1030 888 1030 888 970 1091 c 1,29,30
 812 881 812 881 678 655 c 1,23,24
1054 1880 m 1,31,-1
 1065 1878 l 1,32,33
 1144 1734 1144 1734 1315 1664 c 1,34,-1
 1310 1652 l 1,35,36
 1172 1586 1172 1586 1081 1520 c 1,37,-1
 1070 1522 l 1,38,39
 918 1617 918 1617 664 1649 c 1,40,-1
 666 1659 l 1,41,42
 863 1742 863 1742 1054 1880 c 1,31,-1
EndSplineSet
Validated: 1
EndChar

StartChar: Aacute
Encoding: 193 193 197
Width: 1483
Flags: W
HStem: 0 21G<6 108.5 1077 1192.5> 421 231<680.715 1054.43> 1490 20G<1172 1287>
LayerCount: 2
Fore
SplineSet
15 0 m 1,0,-1
 6 6 l 1,1,2
 525 692 525 692 865 1418 c 1,3,4
 1065 1435 1065 1435 1279 1510 c 1,5,-1
 1287 1504 l 1,6,7
 1292 723 1292 723 1499 92 c 1,8,9
 1299 75 1299 75 1086 0 c 1,10,-1
 1077 6 l 1,11,12
 1087 119 1087 119 1087 226 c 0,13,14
 1086 326 1086 326 1079 411 c 1,15,16
 970 421 970 421 800 421 c 0,17,18
 641 421 641 421 542 411 c 1,19,20
 459 253 459 253 387 88 c 1,21,22
 202 66 202 66 15 0 c 1,0,-1
678 655 m 1,23,24
 740 652 740 652 866 652 c 0,25,26
 1000 652 1000 652 1058 654 c 1,27,28
 1030 888 1030 888 970 1091 c 1,29,30
 812 881 812 881 678 655 c 1,23,24
1344 1880 m 1,31,32
 1471 1742 1471 1742 1630 1659 c 1,33,-1
 1628 1649 l 1,34,35
 1358 1617 1358 1617 1162 1522 c 1,36,-1
 1151 1520 l 1,37,38
 1090 1586 1090 1586 982 1652 c 1,39,-1
 983 1664 l 1,40,41
 1186 1734 1186 1734 1333 1878 c 1,42,-1
 1344 1880 l 1,31,32
EndSplineSet
Validated: 1
EndChar

StartChar: Acircumflex
Encoding: 194 194 198
Width: 1483
Flags: W
HStem: 0 21G<6 108.5 1077 1192.5> 421 231<680.715 1054.43> 1490 20G<1172 1287>
LayerCount: 2
Fore
SplineSet
15 0 m 1,0,-1
 6 6 l 1,1,2
 525 692 525 692 865 1418 c 1,3,4
 1065 1435 1065 1435 1279 1510 c 1,5,-1
 1287 1504 l 1,6,7
 1292 723 1292 723 1499 92 c 1,8,9
 1299 75 1299 75 1086 0 c 1,10,-1
 1077 6 l 1,11,12
 1087 119 1087 119 1087 226 c 0,13,14
 1086 326 1086 326 1079 411 c 1,15,16
 970 421 970 421 800 421 c 0,17,18
 641 421 641 421 542 411 c 1,19,20
 459 253 459 253 387 88 c 1,21,22
 202 66 202 66 15 0 c 1,0,-1
678 655 m 1,23,24
 740 652 740 652 866 652 c 0,25,26
 1000 652 1000 652 1058 654 c 1,27,28
 1030 888 1030 888 970 1091 c 1,29,30
 812 881 812 881 678 655 c 1,23,24
1357 1880 m 1,31,-1
 1366 1874 l 1,32,33
 1357 1835 1357 1835 1357 1798 c 0,34,35
 1357 1680 1357 1680 1455 1595 c 1,36,-1
 1453 1585 l 1,37,38
 1341 1575 1341 1575 1218 1530 c 1,39,-1
 1210 1536 l 1,40,41
 1121 1619 1121 1619 1115 1683 c 1,42,43
 1082 1616 1082 1616 954 1536 c 1,44,-1
 942 1530 l 1,45,46
 859 1567 859 1567 733 1585 c 1,47,-1
 735 1595 l 1,48,49
 883 1671 883 1671 926 1791 c 1,50,51
 1136 1805 1136 1805 1357 1880 c 1,31,-1
EndSplineSet
Validated: 1
EndChar

StartChar: Atilde
Encoding: 195 195 199
Width: 1483
Flags: W
HStem: 0 21G<6 108.5 1077 1192.5> 421 231<680.715 1054.43> 1490 20G<1172 1287> 1557 219<1210.95 1343.15> 1661 219<958.6 1091.12>
LayerCount: 2
Fore
SplineSet
15 0 m 1,0,-1
 6 6 l 1,1,2
 525 692 525 692 865 1418 c 1,3,4
 1065 1435 1065 1435 1279 1510 c 1,5,-1
 1287 1504 l 1,6,7
 1292 723 1292 723 1499 92 c 1,8,9
 1299 75 1299 75 1086 0 c 1,10,-1
 1077 6 l 1,11,12
 1087 119 1087 119 1087 226 c 0,13,14
 1086 326 1086 326 1079 411 c 1,15,16
 970 421 970 421 800 421 c 0,17,18
 641 421 641 421 542 411 c 1,19,20
 459 253 459 253 387 88 c 1,21,22
 202 66 202 66 15 0 c 1,0,-1
678 655 m 1,23,24
 740 652 740 652 866 652 c 0,25,26
 1000 652 1000 652 1058 654 c 1,27,28
 1030 888 1030 888 970 1091 c 1,29,30
 812 881 812 881 678 655 c 1,23,24
1506 1880 m 1,31,-1
 1515 1873 l 1,32,33
 1403 1729 1403 1729 1361 1616 c 1,34,35
 1296 1557 1296 1557 1229 1557 c 0,36,37
 1157 1557 1157 1557 1116 1594 c 0,38,39
 1047 1661 1047 1661 1011 1661 c 0,40,41
 968 1661 968 1661 910 1626 c 0,42,43
 812 1567 812 1567 796 1557 c 1,44,-1
 787 1564 l 1,45,46
 899 1708 899 1708 941 1821 c 1,47,48
 1006 1880 1006 1880 1073 1880 c 0,49,50
 1147 1880 1147 1880 1186 1843 c 0,51,52
 1254 1776 1254 1776 1291 1776 c 0,53,54
 1333 1776 1333 1776 1392 1811 c 0,55,56
 1485 1866 1485 1866 1506 1880 c 1,31,-1
EndSplineSet
Validated: 1
EndChar

StartChar: Adieresis
Encoding: 196 196 200
Width: 1483
Flags: W
HStem: 0 21G<6 108.5 1077 1192.5> 421 231<680.715 1054.43> 1490 20G<1172 1287>
LayerCount: 2
Fore
SplineSet
15 0 m 1,0,-1
 6 6 l 1,1,2
 525 692 525 692 865 1418 c 1,3,4
 1065 1435 1065 1435 1279 1510 c 1,5,-1
 1287 1504 l 1,6,7
 1292 723 1292 723 1499 92 c 1,8,9
 1299 75 1299 75 1086 0 c 1,10,-1
 1077 6 l 1,11,12
 1087 119 1087 119 1087 226 c 0,13,14
 1086 326 1086 326 1079 411 c 1,15,16
 970 421 970 421 800 421 c 0,17,18
 641 421 641 421 542 411 c 1,19,20
 459 253 459 253 387 88 c 1,21,22
 202 66 202 66 15 0 c 1,0,-1
678 655 m 1,23,24
 740 652 740 652 866 652 c 0,25,26
 1000 652 1000 652 1058 654 c 1,27,28
 1030 888 1030 888 970 1091 c 1,29,30
 812 881 812 881 678 655 c 1,23,24
1111 1534 m 1,31,32
 1145 1599 1145 1599 1158 1659 c 0,33,34
 1170 1717 1170 1717 1170 1788 c 1,35,36
 1310 1814 1310 1814 1483 1880 c 1,37,-1
 1492 1874 l 1,38,39
 1451 1784 1451 1784 1443 1738 c 0,40,41
 1433 1680 1433 1680 1433 1620 c 1,42,43
 1283 1592 1283 1592 1120 1528 c 1,44,-1
 1111 1534 l 1,31,32
751 1534 m 1,45,46
 785 1599 785 1599 798 1659 c 0,47,48
 810 1717 810 1717 810 1788 c 1,49,50
 950 1814 950 1814 1123 1880 c 1,51,-1
 1132 1874 l 1,52,53
 1094 1790 1094 1790 1083.5 1738 c 128,-1,54
 1073 1686 1073 1686 1073 1620 c 1,55,56
 923 1592 923 1592 760 1528 c 1,57,-1
 751 1534 l 1,45,46
EndSplineSet
Validated: 1
EndChar

StartChar: Aring
Encoding: 197 197 201
Width: 1483
Flags: W
HStem: 0 21G<6 108.5 1077 1192.5> 421 231<680.715 1054.43> 1490 20G<1172 1287>
VStem: 906 155<1644.72 1760.5> 1182 146<1620.58 1738.31>
LayerCount: 2
Fore
SplineSet
15 0 m 1,0,-1
 6 6 l 1,1,2
 525 692 525 692 865 1418 c 1,3,4
 1065 1435 1065 1435 1279 1510 c 1,5,-1
 1287 1504 l 1,6,7
 1292 723 1292 723 1499 92 c 1,8,9
 1299 75 1299 75 1086 0 c 1,10,-1
 1077 6 l 1,11,12
 1087 119 1087 119 1087 226 c 0,13,14
 1086 326 1086 326 1079 411 c 1,15,16
 970 421 970 421 800 421 c 0,17,18
 641 421 641 421 542 411 c 1,19,20
 459 253 459 253 387 88 c 1,21,22
 202 66 202 66 15 0 c 1,0,-1
678 655 m 1,23,24
 740 652 740 652 866 652 c 0,25,26
 1000 652 1000 652 1058 654 c 1,27,28
 1030 888 1030 888 970 1091 c 1,29,30
 812 881 812 881 678 655 c 1,23,24
1150 1619 m 1,31,32
 1171 1643 1171 1643 1180 1676 c 0,33,34
 1182 1683 1182 1683 1182 1690 c 0,35,36
 1182 1717 1182 1717 1159 1739 c 0,37,38
 1139 1759 1139 1759 1091 1762 c 1,39,40
 1069 1737 1069 1737 1061 1705 c 0,41,42
 1051 1667 1051 1667 1080 1644 c 0,43,44
 1103 1625 1103 1625 1150 1619 c 1,31,32
1161 1880 m 1,45,46
 1248 1859 1248 1859 1293 1806 c 0,47,48
 1328 1765 1328 1765 1328 1718 c 0,49,50
 1328 1702 1328 1702 1324 1686 c 0,51,52
 1308 1624 1308 1624 1236 1570 c 0,53,54
 1166 1518 1166 1518 1065 1503 c 1,55,56
 994 1523 994 1523 944 1574 c 0,57,58
 906 1613 906 1613 906 1662 c 0,59,60
 906 1677 906 1677 910 1694 c 0,61,62
 926 1763 926 1763 1019 1822 c 0,63,64
 1066 1852 1066 1852 1161 1880 c 1,45,46
EndSplineSet
Validated: 1
EndChar

StartChar: AE
Encoding: 198 198 202
Width: 1868
Flags: W
HStem: 0 21G<6 108.5 800 917.5 1653.5 1774> 45 241<1256.69 1710.91> 597 231<802.715 980 1352 1655.54> 1490 20G<1380.5 1551 2022.5 2108>
VStem: 980 319<434.059 593> 1033 319<835 1003.6>
LayerCount: 2
Fore
SplineSet
809 0 m 1,0,-1
 800 6 l 1,1,2
 904 299 904 299 980 597 c 1,3,4
 951 597 951 597 922 597 c 0,5,6
 763 597 763 597 664 587 c 1,7,8
 512 332 512 332 387 88 c 1,9,10
 202 66 202 66 15 0 c 1,11,-1
 6 6 l 1,12,13
 558 692 558 692 878 1406 c 1,14,15
 1218 1420 1218 1420 1543 1510 c 1,16,-1
 1551 1504 l 1,17,18
 1644 1461 1644 1461 1821 1461 c 0,19,20
 1940 1461 1940 1461 2105 1510 c 1,21,-1
 2108 1500 l 1,22,23
 2022 1368 2022 1368 1926 1108 c 1,24,25
 1745 1121 1745 1121 1658 1183 c 0,26,27
 1558 1254 1558 1254 1525 1428 c 1,28,29
 1425 1136 1425 1136 1352 835 c 1,30,31
 1628 835 1628 835 1882 950 c 1,32,-1
 1886 940 l 1,33,34
 1800 808 1800 808 1704 548 c 1,35,36
 1561 593 1561 593 1299 593 c 1,37,38
 1271 461 1271 461 1248 296 c 1,39,40
 1317 286 1317 286 1438 286 c 0,41,42
 1647 286 1647 286 1905 402 c 1,43,-1
 1908 392 l 1,44,45
 1822 260 1822 260 1726 0 c 1,46,47
 1581 45 1581 45 1387 45 c 0,48,49
 1026 45 1026 45 809 0 c 1,0,-1
1113 1292 m 1,50,51
 935 1062 935 1062 800 831 c 1,52,53
 861 828 861 828 987 828 c 0,54,55
 1010 828 1010 828 1033 828 c 1,56,57
 1082 1055 1082 1055 1113 1292 c 1,50,51
EndSplineSet
Validated: 1
EndChar

StartChar: Amacron
Encoding: 256 256 203
Width: 1483
Flags: W
HStem: 0 21G<6 108.5 1077 1192.5> 421 231<680.715 1054.43> 1490 20G<1172 1287> 1609 181<921.535 1352.49>
LayerCount: 2
Fore
SplineSet
15 0 m 1,0,-1
 6 6 l 1,1,2
 525 692 525 692 865 1418 c 1,3,4
 1065 1435 1065 1435 1279 1510 c 1,5,-1
 1287 1504 l 1,6,7
 1292 723 1292 723 1499 92 c 1,8,9
 1299 75 1299 75 1086 0 c 1,10,-1
 1077 6 l 1,11,12
 1087 119 1087 119 1087 226 c 0,13,14
 1086 326 1086 326 1079 411 c 1,15,16
 970 421 970 421 800 421 c 0,17,18
 641 421 641 421 542 411 c 1,19,20
 459 253 459 253 387 88 c 1,21,22
 202 66 202 66 15 0 c 1,0,-1
678 655 m 1,23,24
 740 652 740 652 866 652 c 0,25,26
 1000 652 1000 652 1058 654 c 1,27,28
 1030 888 1030 888 970 1091 c 1,29,30
 812 881 812 881 678 655 c 1,23,24
918 1833 m 1,31,32
 1031 1790 1031 1790 1159 1790 c 0,33,34
 1305 1790 1305 1790 1476 1833 c 1,35,-1
 1480 1823 l 1,36,37
 1400 1696 1400 1696 1356 1566 c 1,38,39
 1244 1609 1244 1609 1095 1609 c 0,40,41
 955 1609 955 1609 798 1566 c 1,42,-1
 794 1576 l 1,43,44
 874 1703 874 1703 918 1833 c 1,31,32
EndSplineSet
Validated: 1
EndChar

StartChar: Abreve
Encoding: 258 258 204
Width: 1483
Flags: W
HStem: 0 21G<6 108.5 1077 1192.5> 421 231<680.715 1054.43> 1490 20G<1172 1287> 1560 210<1002.32 1272.9>
VStem: 889 558<1560 1769.04>
LayerCount: 2
Fore
SplineSet
15 0 m 1,0,-1
 6 6 l 1,1,2
 525 692 525 692 865 1418 c 1,3,4
 1065 1435 1065 1435 1279 1510 c 1,5,-1
 1287 1504 l 1,6,7
 1292 723 1292 723 1499 92 c 1,8,9
 1299 75 1299 75 1086 0 c 1,10,-1
 1077 6 l 1,11,12
 1087 119 1087 119 1087 226 c 0,13,14
 1086 326 1086 326 1079 411 c 1,15,16
 970 421 970 421 800 421 c 0,17,18
 641 421 641 421 542 411 c 1,19,20
 459 253 459 253 387 88 c 1,21,22
 202 66 202 66 15 0 c 1,0,-1
678 655 m 1,23,24
 740 652 740 652 866 652 c 0,25,26
 1000 652 1000 652 1058 654 c 1,27,28
 1030 888 1030 888 970 1091 c 1,29,30
 812 881 812 881 678 655 c 1,23,24
916 1880 m 1,31,32
 1035 1770 1035 1770 1143 1770 c 0,33,34
 1256 1770 1256 1770 1438 1880 c 1,35,-1
 1447 1874 l 1,36,37
 1374 1560 1374 1560 1088 1560 c 0,38,39
 889 1560 889 1560 889 1750 c 0,40,41
 889 1804 889 1804 905 1874 c 1,42,-1
 916 1880 l 1,31,32
EndSplineSet
Validated: 1
EndChar

StartChar: Aogonek
Encoding: 260 260 205
Width: 1483
Flags: W
HStem: -380 21G<1091 1192> 0 21G<6 108.5> 421 231<680.715 1054.43> 1490 20G<1172 1287>
VStem: 761 300<-273.36 -1.64465>
LayerCount: 2
Fore
SplineSet
15 0 m 1,0,-1
 6 6 l 1,1,2
 525 692 525 692 865 1418 c 1,3,4
 1065 1435 1065 1435 1279 1510 c 1,5,-1
 1287 1504 l 1,6,7
 1292 723 1292 723 1499 92 c 1,8,9
 1299 75 1299 75 1086 0 c 1,10,11
 1073 -29 1073 -29 1067 -61 c 0,12,13
 1061 -91 1061 -91 1061 -121 c 0,14,15
 1061 -259 1061 -259 1192 -374 c 1,16,-1
 1180 -380 l 1,17,18
 1002 -305 1002 -305 810 -288 c 1,19,20
 761 -224 761 -224 761 -147 c 0,21,22
 761 -115 761 -115 769 -83 c 0,23,24
 815 100 815 100 1087 189 c 1,25,26
 1087 326 1087 326 1079 411 c 1,27,28
 970 421 970 421 800 421 c 0,29,30
 641 421 641 421 542 411 c 1,31,32
 459 253 459 253 387 88 c 1,33,34
 202 66 202 66 15 0 c 1,0,-1
678 655 m 1,35,36
 740 652 740 652 866 652 c 0,37,38
 1000 652 1000 652 1058 654 c 1,39,40
 1030 888 1030 888 970 1091 c 1,41,42
 812 881 812 881 678 655 c 1,35,36
EndSplineSet
Validated: 1
EndChar

StartChar: Ccedilla
Encoding: 199 199 206
Width: 1456
VWidth: 0
Flags: W
HStem: -380 21G<386 501> 1490 20G<948 1221.5>
VStem: 272 343<534.364 834.361> 661 289<-153.276 47.0947>
LayerCount: 2
Fore
SplineSet
656 48 m 1,0,1
 466 137 466 137 376 255 c 0,2,3
 272 391 272 391 272 576 c 0,4,5
 272 659 272 659 293 751 c 0,6,7
 361 1048 361 1048 618 1261 c 0,8,9
 825 1433 825 1433 1071 1510 c 1,10,-1
 1081 1510 l 1,11,12
 1362 1406 1362 1406 1476 1254 c 0,13,14
 1509 1210 1509 1210 1532 1161 c 1,15,-1
 1178 1004 l 1,16,17
 1159 1032 1159 1032 1135 1057 c 0,18,19
 1035 1161 1035 1161 765 1174 c 1,20,21
 670 1032 670 1032 632 864 c 0,22,23
 615 788 615 788 615 722 c 0,24,25
 615 559 615 559 718 453 c 0,26,27
 822 346 822 346 1088 336 c 1,28,29
 1119 398 1119 398 1133 460 c 0,30,31
 1146 518 1146 518 1146 575 c 0,32,33
 1146 614 1146 614 1140 654 c 1,34,-1
 1484 554 l 1,35,36
 1398 388 1398 388 1234 248 c 0,37,38
 1094 129 1094 129 930 56 c 1,39,40
 950 17 950 17 950 -28 c 0,41,42
 950 -55 950 -55 943 -83 c 0,43,44
 919 -197 919 -197 808 -288 c 1,45,46
 608 -305 608 -305 394 -380 c 1,47,-1
 386 -374 l 1,48,49
 618 -228 618 -228 655 -61 c 0,50,51
 661 -34 661 -34 661 -6 c 0,52,53
 661 19 661 19 656 48 c 1,0,1
EndSplineSet
Validated: 1
EndChar

StartChar: Cacute
Encoding: 262 262 207
Width: 1456
VWidth: 0
Flags: W
HStem: 0 21G<632 908> 1490 20G<948 1221.5>
VStem: 272 343<534.461 834.361>
LayerCount: 2
Fore
SplineSet
782 0 m 1,0,-1
 772 0 l 1,1,2
 492 103 492 103 376 255 c 0,3,4
 272 392 272 392 272 576 c 0,5,6
 272 659 272 659 293 751 c 0,7,8
 361 1048 361 1048 618 1261 c 24,9,10
 825 1433 825 1433 1071 1510 c 1,11,-1
 1081 1510 l 1,12,13
 1362 1406 1362 1406 1476 1254 c 16,14,15
 1509 1210 1509 1210 1532 1161 c 1,16,-1
 1178 1004 l 1,17,18
 1159 1032 1159 1032 1135 1057 c 0,19,20
 1035 1161 1035 1161 765 1174 c 1,21,22
 670 1032 670 1032 632 864 c 0,23,24
 615 788 615 788 615 722 c 0,25,26
 615 559 615 559 718 453 c 0,27,28
 822 346 822 346 1088 336 c 1,29,30
 1119 398 1119 398 1133 460 c 0,31,32
 1146 518 1146 518 1146 575 c 0,33,34
 1146 614 1146 614 1140 654 c 9,35,-1
 1484 554 l 17,36,37
 1397 386 1397 386 1234 248 c 0,38,39
 1034 78 1034 78 782 0 c 1,0,-1
1344 1880 m 1,40,41
 1471 1742 1471 1742 1630 1659 c 1,42,-1
 1628 1649 l 1,43,44
 1358 1617 1358 1617 1162 1522 c 1,45,-1
 1151 1520 l 1,46,47
 1090 1586 1090 1586 982 1652 c 1,48,-1
 983 1664 l 1,49,50
 1186 1734 1186 1734 1333 1878 c 1,51,-1
 1344 1880 l 1,40,41
EndSplineSet
Validated: 1
EndChar

StartChar: Ccircumflex
Encoding: 264 264 208
Width: 1456
VWidth: 0
Flags: W
HStem: 0 21G<632 908> 1490 20G<948 1221.5>
VStem: 272 343<534.461 834.361>
LayerCount: 2
Fore
SplineSet
1357 1880 m 1,0,-1
 1366 1874 l 1,1,2
 1357 1835 1357 1835 1357 1798 c 0,3,4
 1357 1680 1357 1680 1455 1595 c 1,5,-1
 1453 1585 l 1,6,7
 1341 1575 1341 1575 1218 1530 c 1,8,-1
 1210 1536 l 1,9,10
 1121 1619 1121 1619 1115 1683 c 1,11,12
 1082 1616 1082 1616 954 1536 c 1,13,-1
 942 1530 l 1,14,15
 859 1567 859 1567 733 1585 c 1,16,-1
 735 1595 l 1,17,18
 883 1671 883 1671 926 1791 c 1,19,20
 1136 1805 1136 1805 1357 1880 c 1,0,-1
782 0 m 1,21,-1
 772 0 l 1,22,23
 492 103 492 103 376 255 c 0,24,25
 272 392 272 392 272 576 c 0,26,27
 272 659 272 659 293 751 c 0,28,29
 361 1048 361 1048 618 1261 c 24,30,31
 825 1433 825 1433 1071 1510 c 1,32,-1
 1081 1510 l 1,33,34
 1362 1406 1362 1406 1476 1254 c 16,35,36
 1509 1210 1509 1210 1532 1161 c 1,37,-1
 1178 1004 l 1,38,39
 1159 1032 1159 1032 1135 1057 c 0,40,41
 1035 1161 1035 1161 765 1174 c 1,42,43
 670 1032 670 1032 632 864 c 0,44,45
 615 788 615 788 615 722 c 0,46,47
 615 559 615 559 718 453 c 0,48,49
 822 346 822 346 1088 336 c 1,50,51
 1119 398 1119 398 1133 460 c 0,52,53
 1146 518 1146 518 1146 575 c 0,54,55
 1146 614 1146 614 1140 654 c 9,56,-1
 1484 554 l 17,57,58
 1397 386 1397 386 1234 248 c 0,59,60
 1034 78 1034 78 782 0 c 1,21,-1
EndSplineSet
Validated: 1
EndChar

StartChar: Cdotaccent
Encoding: 266 266 209
Width: 1456
VWidth: 0
Flags: W
HStem: 0 21G<632 908> 1490 20G<948 1221.5>
VStem: 272 343<534.461 834.361>
LayerCount: 2
Fore
SplineSet
782 0 m 1,0,-1
 772 0 l 1,1,2
 492 103 492 103 376 255 c 0,3,4
 272 392 272 392 272 576 c 0,5,6
 272 659 272 659 293 751 c 0,7,8
 361 1048 361 1048 618 1261 c 24,9,10
 825 1433 825 1433 1071 1510 c 1,11,-1
 1081 1510 l 1,12,13
 1362 1406 1362 1406 1476 1254 c 16,14,15
 1509 1210 1509 1210 1532 1161 c 1,16,-1
 1178 1004 l 1,17,18
 1159 1032 1159 1032 1135 1057 c 0,19,20
 1035 1161 1035 1161 765 1174 c 1,21,22
 670 1032 670 1032 632 864 c 0,23,24
 615 788 615 788 615 722 c 0,25,26
 615 559 615 559 718 453 c 0,27,28
 822 346 822 346 1088 336 c 1,29,30
 1119 398 1119 398 1133 460 c 0,31,32
 1146 518 1146 518 1146 575 c 0,33,34
 1146 614 1146 614 1140 654 c 9,35,-1
 1484 554 l 17,36,37
 1397 386 1397 386 1234 248 c 0,38,39
 1034 78 1034 78 782 0 c 1,0,-1
868 1508 m 1,40,41
 902 1573 902 1573 918 1646 c 0,42,43
 933 1717 933 1717 933 1788 c 1,44,45
 1133 1805 1133 1805 1346 1880 c 1,46,-1
 1355 1874 l 1,47,48
 1313 1778 1313 1778 1303 1726 c 0,49,50
 1290 1658 1290 1658 1290 1594 c 1,51,52
 1090 1577 1090 1577 877 1502 c 1,53,-1
 868 1508 l 1,40,41
EndSplineSet
Validated: 1
EndChar

StartChar: Ccaron
Encoding: 268 268 210
Width: 1456
VWidth: 0
Flags: W
HStem: 0 21G<632 908> 1490 20G<948 1221.5>
VStem: 272 343<534.461 834.361>
LayerCount: 2
Fore
SplineSet
782 0 m 1,0,-1
 772 0 l 1,1,2
 492 103 492 103 376 255 c 0,3,4
 272 392 272 392 272 576 c 0,5,6
 272 659 272 659 293 751 c 0,7,8
 361 1048 361 1048 618 1261 c 24,9,10
 825 1433 825 1433 1071 1510 c 1,11,-1
 1081 1510 l 1,12,13
 1362 1406 1362 1406 1476 1254 c 16,14,15
 1509 1210 1509 1210 1532 1161 c 1,16,-1
 1178 1004 l 1,17,18
 1159 1032 1159 1032 1135 1057 c 0,19,20
 1035 1161 1035 1161 765 1174 c 1,21,22
 670 1032 670 1032 632 864 c 0,23,24
 615 788 615 788 615 722 c 0,25,26
 615 559 615 559 718 453 c 0,27,28
 822 346 822 346 1088 336 c 1,29,30
 1119 398 1119 398 1133 460 c 0,31,32
 1146 518 1146 518 1146 575 c 0,33,34
 1146 614 1146 614 1140 654 c 9,35,-1
 1484 554 l 17,36,37
 1397 386 1397 386 1234 248 c 0,38,39
 1034 78 1034 78 782 0 c 1,0,-1
1016 1880 m 1,40,-1
 1025 1874 l 1,41,42
 1113 1791 1113 1791 1120 1727 c 1,43,44
 1152 1794 1152 1794 1281 1874 c 1,45,-1
 1292 1880 l 1,46,47
 1375 1843 1375 1843 1501 1825 c 1,48,-1
 1499 1815 l 1,49,50
 1351 1739 1351 1739 1308 1619 c 1,51,52
 1099 1605 1099 1605 877 1530 c 1,53,-1
 869 1536 l 1,54,55
 878 1575 878 1575 878 1611 c 0,56,57
 878 1730 878 1730 779 1815 c 1,58,-1
 781 1825 l 1,59,60
 894 1835 894 1835 1016 1880 c 1,40,-1
EndSplineSet
Validated: 1
EndChar

StartChar: Eth
Encoding: 208 208 211
Width: 1528
VWidth: 0
Flags: W
HStem: 0 241<804 965.06> 482 327<740.058 920.289> 1182 328<668.801 1094.04>
VStem: 1265 339<669.757 1014.91>
LayerCount: 2
Fore
SplineSet
201 0 m 1,0,-1
 192 6 l 1,1,2
 304 325 304 325 347 513 c 1,3,4
 255 503 255 503 167 482 c 1,5,-1
 164 492 l 1,6,7
 232 619 232 619 302 809 c 1,8,9
 346 797 346 797 391 788 c 1,10,11
 400 857 400 857 408 938 c 1,12,13
 607 955 607 955 821 1030 c 1,14,-1
 829 1024 l 1,15,16
 773 879 773 879 735 768 c 1,17,18
 897 776 897 776 1040 809 c 1,19,-1
 1043 799 l 1,20,21
 975 672 975 672 905 482 c 1,22,23
 795 512 795 512 667 521 c 1,24,25
 635 372 635 372 629 268 c 1,26,27
 706 241 706 241 793 241 c 0,28,29
 886 241 886 241 965 282 c 0,30,31
 1041 321 1041 321 1104 407 c 0,32,33
 1212 553 1212 553 1251 723 c 0,34,35
 1265 784 1265 784 1265 838 c 0,36,37
 1265 972 1265 972 1182 1070 c 0,38,39
 1087 1182 1087 1182 890 1182 c 0,40,41
 649 1182 649 1182 359 1011 c 1,42,-1
 356 1021 l 1,43,44
 476 1217 476 1217 538 1413 c 1,45,46
 728 1510 728 1510 966 1510 c 0,47,48
 1291 1510 1291 1510 1462 1326 c 0,49,50
 1604 1173 1604 1173 1604 945 c 0,51,52
 1604 850 1604 850 1579 740 c 0,53,54
 1527 510 1527 510 1363 318 c 0,55,56
 1093 0 1093 0 804 0 c 1,57,-1
 614 92 l 1,58,59
 414 75 414 75 201 0 c 1,0,-1
EndSplineSet
Validated: 1
EndChar

StartChar: Dcaron
Encoding: 270 270 212
Width: 1528
VWidth: 0
Flags: W
HStem: 0 241<804 965.06> 1182 328<668.801 1094.04>
VStem: 1265 339<667.731 1014.91>
LayerCount: 2
Fore
SplineSet
1016 1880 m 1,0,-1
 1025 1874 l 1,1,2
 1113 1791 1113 1791 1120 1727 c 1,3,4
 1152 1794 1152 1794 1281 1874 c 1,5,-1
 1292 1880 l 1,6,7
 1375 1843 1375 1843 1501 1825 c 1,8,-1
 1499 1815 l 1,9,10
 1351 1739 1351 1739 1308 1619 c 1,11,12
 1099 1605 1099 1605 877 1530 c 1,13,-1
 869 1536 l 1,14,15
 878 1575 878 1575 878 1611 c 0,16,17
 878 1730 878 1730 779 1815 c 1,18,-1
 781 1825 l 1,19,20
 894 1835 894 1835 1016 1880 c 1,0,-1
201 0 m 1,21,-1
 192 6 l 1,22,23
 303 323 303 323 348 515 c 0,24,25
 378 643 378 643 408 938 c 1,26,27
 607 955 607 955 821 1030 c 1,28,-1
 829 1024 l 1,29,30
 716 737 716 737 680 580 c 0,31,32
 636 389 636 389 629 268 c 1,33,34
 706 241 706 241 793 241 c 0,35,36
 886 241 886 241 965 282 c 0,37,38
 1042 321 1042 321 1104 407 c 0,39,40
 1213 557 1213 557 1251 723 c 0,41,42
 1265 784 1265 784 1265 838 c 0,43,44
 1265 972 1265 972 1182 1070 c 0,45,46
 1087 1182 1087 1182 890 1182 c 0,47,48
 649 1182 649 1182 359 1011 c 1,49,-1
 356 1021 l 1,50,51
 476 1217 476 1217 538 1413 c 1,52,53
 728 1510 728 1510 966 1510 c 0,54,55
 1291 1510 1291 1510 1462 1326 c 0,56,57
 1604 1173 1604 1173 1604 945 c 0,58,59
 1604 850 1604 850 1579 740 c 0,60,61
 1527 510 1527 510 1363 318 c 0,62,63
 1093 0 1093 0 804 0 c 1,64,-1
 614 92 l 1,65,66
 414 75 414 75 201 0 c 1,21,-1
EndSplineSet
Validated: 1
EndChar

StartChar: Dcroat
Encoding: 272 272 213
Width: 1528
VWidth: 0
Flags: W
HStem: 0 241<804 965.06> 482 327<740.058 920.289> 1182 328<668.801 1094.04>
VStem: 1265 339<669.757 1014.91>
LayerCount: 2
Fore
SplineSet
201 0 m 1,0,-1
 192 6 l 1,1,2
 304 325 304 325 347 513 c 1,3,4
 255 503 255 503 167 482 c 1,5,-1
 164 492 l 1,6,7
 232 619 232 619 302 809 c 1,8,9
 346 797 346 797 391 788 c 1,10,11
 400 857 400 857 408 938 c 1,12,13
 607 955 607 955 821 1030 c 1,14,-1
 829 1024 l 1,15,16
 773 879 773 879 735 768 c 1,17,18
 897 776 897 776 1040 809 c 1,19,-1
 1043 799 l 1,20,21
 975 672 975 672 905 482 c 1,22,23
 795 512 795 512 667 521 c 1,24,25
 635 372 635 372 629 268 c 1,26,27
 706 241 706 241 793 241 c 0,28,29
 886 241 886 241 965 282 c 0,30,31
 1041 321 1041 321 1104 407 c 0,32,33
 1212 553 1212 553 1251 723 c 0,34,35
 1265 784 1265 784 1265 838 c 0,36,37
 1265 972 1265 972 1182 1070 c 0,38,39
 1087 1182 1087 1182 890 1182 c 0,40,41
 649 1182 649 1182 359 1011 c 1,42,-1
 356 1021 l 1,43,44
 476 1217 476 1217 538 1413 c 1,45,46
 728 1510 728 1510 966 1510 c 0,47,48
 1291 1510 1291 1510 1462 1326 c 0,49,50
 1604 1173 1604 1173 1604 945 c 0,51,52
 1604 850 1604 850 1579 740 c 0,53,54
 1527 510 1527 510 1363 318 c 0,55,56
 1093 0 1093 0 804 0 c 1,57,-1
 614 92 l 1,58,59
 414 75 414 75 201 0 c 1,0,-1
EndSplineSet
Validated: 1
EndChar

